<?xml version="1.0" encoding="utf-8" standalone="no"?>
<!DOCTYPE svg PUBLIC "-//W3C//DTD SVG 1.1//EN"
  "http://www.w3.org/Graphics/SVG/1.1/DTD/svg11.dtd">
<svg xmlns:xlink="http://www.w3.org/1999/xlink" width="460.8pt" height="345.6pt" viewBox="0 0 460.8 345.6" xmlns="http://www.w3.org/2000/svg" version="1.1">
 <metadata>
  <rdf:RDF xmlns:dc="http://purl.org/dc/elements/1.1/" xmlns:cc="http://creativecommons.org/ns#" xmlns:rdf="http://www.w3.org/1999/02/22-rdf-syntax-ns#">
   <cc:Work>
    <dc:type rdf:resource="http://purl.org/dc/dcmitype/StillImage"/>
    <dc:date>2025-02-15T16:34:58.279768</dc:date>
    <dc:format>image/svg+xml</dc:format>
    <dc:creator>
     <cc:Agent>
      <dc:title>Matplotlib v3.8.4, https://matplotlib.org/</dc:title>
     </cc:Agent>
    </dc:creator>
   </cc:Work>
  </rdf:RDF>
 </metadata>
 <defs>
  <style type="text/css">*{stroke-linejoin: round; stroke-linecap: butt}</style>
 </defs>
 <g id="figure_1">
  <g id="patch_1">
   <path d="M 0 345.6 
L 460.8 345.6 
L 460.8 0 
L 0 0 
L 0 345.6 
z
" style="fill: none"/>
  </g>
  <g id="axes_1">
   <g id="patch_2">
    <path d="M 57.6 307.584 
L 414.72 307.584 
L 414.72 41.472 
L 57.6 41.472 
L 57.6 307.584 
z
" style="fill: none"/>
   </g>
   <g id="matplotlib.axis_1">
    <g id="xtick_1">
     <g id="line2d_1">
      <defs>
       <path id="mda312b0897" d="M 0 0 
L 0 3.5 
" style="stroke: #000000; stroke-width: 0.8"/>
      </defs>
      <g>
       <use xlink:href="#mda312b0897" x="73.832727" y="307.584" style="stroke: #000000; stroke-width: 0.8"/>
      </g>
     </g>
     <g id="text_1">
      <!-- 0 -->
      <g transform="translate(70.651477 322.182437) scale(0.1 -0.1)">
       <defs>
        <path id="DejaVuSans-30" d="M 2034 4250 
Q 1547 4250 1301 3770 
Q 1056 3291 1056 2328 
Q 1056 1369 1301 889 
Q 1547 409 2034 409 
Q 2525 409 2770 889 
Q 3016 1369 3016 2328 
Q 3016 3291 2770 3770 
Q 2525 4250 2034 4250 
z
M 2034 4750 
Q 2819 4750 3233 4129 
Q 3647 3509 3647 2328 
Q 3647 1150 3233 529 
Q 2819 -91 2034 -91 
Q 1250 -91 836 529 
Q 422 1150 422 2328 
Q 422 3509 836 4129 
Q 1250 4750 2034 4750 
z
" transform="scale(0.015625)"/>
       </defs>
       <use xlink:href="#DejaVuSans-30"/>
      </g>
     </g>
    </g>
    <g id="xtick_2">
     <g id="line2d_2">
      <g>
       <use xlink:href="#mda312b0897" x="138.763636" y="307.584" style="stroke: #000000; stroke-width: 0.8"/>
      </g>
     </g>
     <g id="text_2">
      <!-- 2 -->
      <g transform="translate(135.582386 322.182437) scale(0.1 -0.1)">
       <defs>
        <path id="DejaVuSans-32" d="M 1228 531 
L 3431 531 
L 3431 0 
L 469 0 
L 469 531 
Q 828 903 1448 1529 
Q 2069 2156 2228 2338 
Q 2531 2678 2651 2914 
Q 2772 3150 2772 3378 
Q 2772 3750 2511 3984 
Q 2250 4219 1831 4219 
Q 1534 4219 1204 4116 
Q 875 4013 500 3803 
L 500 4441 
Q 881 4594 1212 4672 
Q 1544 4750 1819 4750 
Q 2544 4750 2975 4387 
Q 3406 4025 3406 3419 
Q 3406 3131 3298 2873 
Q 3191 2616 2906 2266 
Q 2828 2175 2409 1742 
Q 1991 1309 1228 531 
z
" transform="scale(0.015625)"/>
       </defs>
       <use xlink:href="#DejaVuSans-32"/>
      </g>
     </g>
    </g>
    <g id="xtick_3">
     <g id="line2d_3">
      <g>
       <use xlink:href="#mda312b0897" x="203.694545" y="307.584" style="stroke: #000000; stroke-width: 0.8"/>
      </g>
     </g>
     <g id="text_3">
      <!-- 4 -->
      <g transform="translate(200.513295 322.182437) scale(0.1 -0.1)">
       <defs>
        <path id="DejaVuSans-34" d="M 2419 4116 
L 825 1625 
L 2419 1625 
L 2419 4116 
z
M 2253 4666 
L 3047 4666 
L 3047 1625 
L 3713 1625 
L 3713 1100 
L 3047 1100 
L 3047 0 
L 2419 0 
L 2419 1100 
L 313 1100 
L 313 1709 
L 2253 4666 
z
" transform="scale(0.015625)"/>
       </defs>
       <use xlink:href="#DejaVuSans-34"/>
      </g>
     </g>
    </g>
    <g id="xtick_4">
     <g id="line2d_4">
      <g>
       <use xlink:href="#mda312b0897" x="268.625455" y="307.584" style="stroke: #000000; stroke-width: 0.8"/>
      </g>
     </g>
     <g id="text_4">
      <!-- 6 -->
      <g transform="translate(265.444205 322.182437) scale(0.1 -0.1)">
       <defs>
        <path id="DejaVuSans-36" d="M 2113 2584 
Q 1688 2584 1439 2293 
Q 1191 2003 1191 1497 
Q 1191 994 1439 701 
Q 1688 409 2113 409 
Q 2538 409 2786 701 
Q 3034 994 3034 1497 
Q 3034 2003 2786 2293 
Q 2538 2584 2113 2584 
z
M 3366 4563 
L 3366 3988 
Q 3128 4100 2886 4159 
Q 2644 4219 2406 4219 
Q 1781 4219 1451 3797 
Q 1122 3375 1075 2522 
Q 1259 2794 1537 2939 
Q 1816 3084 2150 3084 
Q 2853 3084 3261 2657 
Q 3669 2231 3669 1497 
Q 3669 778 3244 343 
Q 2819 -91 2113 -91 
Q 1303 -91 875 529 
Q 447 1150 447 2328 
Q 447 3434 972 4092 
Q 1497 4750 2381 4750 
Q 2619 4750 2861 4703 
Q 3103 4656 3366 4563 
z
" transform="scale(0.015625)"/>
       </defs>
       <use xlink:href="#DejaVuSans-36"/>
      </g>
     </g>
    </g>
    <g id="xtick_5">
     <g id="line2d_5">
      <g>
       <use xlink:href="#mda312b0897" x="333.556364" y="307.584" style="stroke: #000000; stroke-width: 0.8"/>
      </g>
     </g>
     <g id="text_5">
      <!-- 8 -->
      <g transform="translate(330.375114 322.182437) scale(0.1 -0.1)">
       <defs>
        <path id="DejaVuSans-38" d="M 2034 2216 
Q 1584 2216 1326 1975 
Q 1069 1734 1069 1313 
Q 1069 891 1326 650 
Q 1584 409 2034 409 
Q 2484 409 2743 651 
Q 3003 894 3003 1313 
Q 3003 1734 2745 1975 
Q 2488 2216 2034 2216 
z
M 1403 2484 
Q 997 2584 770 2862 
Q 544 3141 544 3541 
Q 544 4100 942 4425 
Q 1341 4750 2034 4750 
Q 2731 4750 3128 4425 
Q 3525 4100 3525 3541 
Q 3525 3141 3298 2862 
Q 3072 2584 2669 2484 
Q 3125 2378 3379 2068 
Q 3634 1759 3634 1313 
Q 3634 634 3220 271 
Q 2806 -91 2034 -91 
Q 1263 -91 848 271 
Q 434 634 434 1313 
Q 434 1759 690 2068 
Q 947 2378 1403 2484 
z
M 1172 3481 
Q 1172 3119 1398 2916 
Q 1625 2713 2034 2713 
Q 2441 2713 2670 2916 
Q 2900 3119 2900 3481 
Q 2900 3844 2670 4047 
Q 2441 4250 2034 4250 
Q 1625 4250 1398 4047 
Q 1172 3844 1172 3481 
z
" transform="scale(0.015625)"/>
       </defs>
       <use xlink:href="#DejaVuSans-38"/>
      </g>
     </g>
    </g>
    <g id="xtick_6">
     <g id="line2d_6">
      <g>
       <use xlink:href="#mda312b0897" x="398.487273" y="307.584" style="stroke: #000000; stroke-width: 0.8"/>
      </g>
     </g>
     <g id="text_6">
      <!-- 10 -->
      <g transform="translate(392.124773 322.182437) scale(0.1 -0.1)">
       <defs>
        <path id="DejaVuSans-31" d="M 794 531 
L 1825 531 
L 1825 4091 
L 703 3866 
L 703 4441 
L 1819 4666 
L 2450 4666 
L 2450 531 
L 3481 531 
L 3481 0 
L 794 0 
L 794 531 
z
" transform="scale(0.015625)"/>
       </defs>
       <use xlink:href="#DejaVuSans-31"/>
       <use xlink:href="#DejaVuSans-30" x="63.623047"/>
      </g>
     </g>
    </g>
    <g id="text_7">
     <!-- $t$ -->
     <g transform="translate(234.16 335.860562) scale(0.1 -0.1)">
      <defs>
       <path id="DejaVuSans-Oblique-74" d="M 2706 3500 
L 2619 3053 
L 1472 3053 
L 1100 1153 
Q 1081 1047 1072 975 
Q 1063 903 1063 863 
Q 1063 663 1183 572 
Q 1303 481 1569 481 
L 2150 481 
L 2053 0 
L 1503 0 
Q 991 0 739 200 
Q 488 400 488 806 
Q 488 878 497 964 
Q 506 1050 525 1153 
L 897 3053 
L 409 3053 
L 500 3500 
L 978 3500 
L 1172 4494 
L 1747 4494 
L 1556 3500 
L 2706 3500 
z
" transform="scale(0.015625)"/>
      </defs>
      <use xlink:href="#DejaVuSans-Oblique-74" transform="translate(0 0.78125)"/>
     </g>
    </g>
   </g>
   <g id="matplotlib.axis_2">
    <g id="ytick_1">
     <g id="line2d_7">
      <defs>
       <path id="m6aeed607f4" d="M 0 0 
L -3.5 0 
" style="stroke: #000000; stroke-width: 0.8"/>
      </defs>
      <g>
       <use xlink:href="#m6aeed607f4" x="57.6" y="307.584" style="stroke: #000000; stroke-width: 0.8"/>
      </g>
     </g>
     <g id="text_8">
      <!-- 275.0 -->
      <g transform="translate(21.971875 311.383219) scale(0.1 -0.1)">
       <defs>
        <path id="DejaVuSans-37" d="M 525 4666 
L 3525 4666 
L 3525 4397 
L 1831 0 
L 1172 0 
L 2766 4134 
L 525 4134 
L 525 4666 
z
" transform="scale(0.015625)"/>
        <path id="DejaVuSans-35" d="M 691 4666 
L 3169 4666 
L 3169 4134 
L 1269 4134 
L 1269 2991 
Q 1406 3038 1543 3061 
Q 1681 3084 1819 3084 
Q 2600 3084 3056 2656 
Q 3513 2228 3513 1497 
Q 3513 744 3044 326 
Q 2575 -91 1722 -91 
Q 1428 -91 1123 -41 
Q 819 9 494 109 
L 494 744 
Q 775 591 1075 516 
Q 1375 441 1709 441 
Q 2250 441 2565 725 
Q 2881 1009 2881 1497 
Q 2881 1984 2565 2268 
Q 2250 2553 1709 2553 
Q 1456 2553 1204 2497 
Q 953 2441 691 2322 
L 691 4666 
z
" transform="scale(0.015625)"/>
        <path id="DejaVuSans-2e" d="M 684 794 
L 1344 794 
L 1344 0 
L 684 0 
L 684 794 
z
" transform="scale(0.015625)"/>
       </defs>
       <use xlink:href="#DejaVuSans-32"/>
       <use xlink:href="#DejaVuSans-37" x="63.623047"/>
       <use xlink:href="#DejaVuSans-35" x="127.246094"/>
       <use xlink:href="#DejaVuSans-2e" x="190.869141"/>
       <use xlink:href="#DejaVuSans-30" x="222.65625"/>
      </g>
     </g>
    </g>
    <g id="ytick_2">
     <g id="line2d_8">
      <g>
       <use xlink:href="#m6aeed607f4" x="57.6" y="244.905623" style="stroke: #000000; stroke-width: 0.8"/>
      </g>
     </g>
     <g id="text_9">
      <!-- 278.6 -->
      <g transform="translate(21.971875 248.704842) scale(0.1 -0.1)">
       <use xlink:href="#DejaVuSans-32"/>
       <use xlink:href="#DejaVuSans-37" x="63.623047"/>
       <use xlink:href="#DejaVuSans-38" x="127.246094"/>
       <use xlink:href="#DejaVuSans-2e" x="190.869141"/>
       <use xlink:href="#DejaVuSans-36" x="222.65625"/>
      </g>
     </g>
    </g>
    <g id="ytick_3">
     <g id="line2d_9">
      <g>
       <use xlink:href="#m6aeed607f4" x="57.6" y="157.852322" style="stroke: #000000; stroke-width: 0.8"/>
      </g>
     </g>
     <g id="text_10">
      <!-- 283.6 -->
      <g transform="translate(21.971875 161.651541) scale(0.1 -0.1)">
       <defs>
        <path id="DejaVuSans-33" d="M 2597 2516 
Q 3050 2419 3304 2112 
Q 3559 1806 3559 1356 
Q 3559 666 3084 287 
Q 2609 -91 1734 -91 
Q 1441 -91 1130 -33 
Q 819 25 488 141 
L 488 750 
Q 750 597 1062 519 
Q 1375 441 1716 441 
Q 2309 441 2620 675 
Q 2931 909 2931 1356 
Q 2931 1769 2642 2001 
Q 2353 2234 1838 2234 
L 1294 2234 
L 1294 2753 
L 1863 2753 
Q 2328 2753 2575 2939 
Q 2822 3125 2822 3475 
Q 2822 3834 2567 4026 
Q 2313 4219 1838 4219 
Q 1578 4219 1281 4162 
Q 984 4106 628 3988 
L 628 4550 
Q 988 4650 1302 4700 
Q 1616 4750 1894 4750 
Q 2613 4750 3031 4423 
Q 3450 4097 3450 3541 
Q 3450 3153 3228 2886 
Q 3006 2619 2597 2516 
z
" transform="scale(0.015625)"/>
       </defs>
       <use xlink:href="#DejaVuSans-32"/>
       <use xlink:href="#DejaVuSans-38" x="63.623047"/>
       <use xlink:href="#DejaVuSans-33" x="127.246094"/>
       <use xlink:href="#DejaVuSans-2e" x="190.869141"/>
       <use xlink:href="#DejaVuSans-36" x="222.65625"/>
      </g>
     </g>
    </g>
    <g id="ytick_4">
     <g id="line2d_10">
      <g>
       <use xlink:href="#m6aeed607f4" x="57.6" y="70.799021" style="stroke: #000000; stroke-width: 0.8"/>
      </g>
     </g>
     <g id="text_11">
      <!-- 288.6 -->
      <g transform="translate(21.971875 74.59824) scale(0.1 -0.1)">
       <use xlink:href="#DejaVuSans-32"/>
       <use xlink:href="#DejaVuSans-38" x="63.623047"/>
       <use xlink:href="#DejaVuSans-38" x="127.246094"/>
       <use xlink:href="#DejaVuSans-2e" x="190.869141"/>
       <use xlink:href="#DejaVuSans-36" x="222.65625"/>
      </g>
     </g>
    </g>
    <g id="ytick_5">
     <g id="line2d_11">
      <g>
       <use xlink:href="#m6aeed607f4" x="57.6" y="46.424097" style="stroke: #000000; stroke-width: 0.8"/>
      </g>
     </g>
     <g id="text_12">
      <!-- 290.0 -->
      <g transform="translate(21.971875 50.223316) scale(0.1 -0.1)">
       <defs>
        <path id="DejaVuSans-39" d="M 703 97 
L 703 672 
Q 941 559 1184 500 
Q 1428 441 1663 441 
Q 2288 441 2617 861 
Q 2947 1281 2994 2138 
Q 2813 1869 2534 1725 
Q 2256 1581 1919 1581 
Q 1219 1581 811 2004 
Q 403 2428 403 3163 
Q 403 3881 828 4315 
Q 1253 4750 1959 4750 
Q 2769 4750 3195 4129 
Q 3622 3509 3622 2328 
Q 3622 1225 3098 567 
Q 2575 -91 1691 -91 
Q 1453 -91 1209 -44 
Q 966 3 703 97 
z
M 1959 2075 
Q 2384 2075 2632 2365 
Q 2881 2656 2881 3163 
Q 2881 3666 2632 3958 
Q 2384 4250 1959 4250 
Q 1534 4250 1286 3958 
Q 1038 3666 1038 3163 
Q 1038 2656 1286 2365 
Q 1534 2075 1959 2075 
z
" transform="scale(0.015625)"/>
       </defs>
       <use xlink:href="#DejaVuSans-32"/>
       <use xlink:href="#DejaVuSans-39" x="63.623047"/>
       <use xlink:href="#DejaVuSans-30" x="127.246094"/>
       <use xlink:href="#DejaVuSans-2e" x="190.869141"/>
       <use xlink:href="#DejaVuSans-30" x="222.65625"/>
      </g>
     </g>
    </g>
    <g id="text_13">
     <!-- $X(t)$ -->
     <g transform="translate(15.892188 183.828) rotate(-90) scale(0.1 -0.1)">
      <defs>
       <path id="DejaVuSans-Oblique-58" d="M 878 4666 
L 1516 4666 
L 2316 2981 
L 3763 4666 
L 4500 4666 
L 2578 2438 
L 3738 0 
L 3103 0 
L 2163 1966 
L 459 0 
L -275 0 
L 1906 2509 
L 878 4666 
z
" transform="scale(0.015625)"/>
       <path id="DejaVuSans-28" d="M 1984 4856 
Q 1566 4138 1362 3434 
Q 1159 2731 1159 2009 
Q 1159 1288 1364 580 
Q 1569 -128 1984 -844 
L 1484 -844 
Q 1016 -109 783 600 
Q 550 1309 550 2009 
Q 550 2706 781 3412 
Q 1013 4119 1484 4856 
L 1984 4856 
z
" transform="scale(0.015625)"/>
       <path id="DejaVuSans-29" d="M 513 4856 
L 1013 4856 
Q 1481 4119 1714 3412 
Q 1947 2706 1947 2009 
Q 1947 1309 1714 600 
Q 1481 -109 1013 -844 
L 513 -844 
Q 928 -128 1133 580 
Q 1338 1288 1338 2009 
Q 1338 2731 1133 3434 
Q 928 4138 513 4856 
z
" transform="scale(0.015625)"/>
      </defs>
      <use xlink:href="#DejaVuSans-Oblique-58" transform="translate(0 0.125)"/>
      <use xlink:href="#DejaVuSans-28" transform="translate(68.505859 0.125)"/>
      <use xlink:href="#DejaVuSans-Oblique-74" transform="translate(107.519531 0.125)"/>
      <use xlink:href="#DejaVuSans-29" transform="translate(146.728516 0.125)"/>
     </g>
    </g>
   </g>
   <g id="line2d_12">
    <path d="M 73.832727 157.852322 
L 74.482686 157.907074 
L 75.132645 158.196946 
L 75.782604 158.757131 
L 76.432563 159.628059 
L 77.082523 160.856177 
L 77.732482 162.494835 
L 78.382441 164.605282 
L 79.0324 167.257752 
L 80.007338 172.431423 
L 80.982277 179.325142 
L 81.957215 188.302103 
L 82.932154 199.696152 
L 84.232072 218.472869 
L 85.53199 237.345551 
L 86.181949 243.987476 
L 86.831908 248.00681 
L 87.481867 250.079338 
L 88.131826 251.102807 
L 88.781785 251.660872 
L 90.081704 252.328762 
L 93.331499 253.579511 
L 98.531171 255.348047 
L 104.055823 256.990111 
L 109.905455 258.493742 
L 116.080066 259.844399 
L 122.254676 260.971705 
L 128.754267 261.932746 
L 135.253857 262.674138 
L 142.078428 263.225376 
L 148.902998 263.550221 
L 155.727568 263.652478 
L 162.552138 263.533603 
L 169.376708 263.192833 
L 176.201278 262.627136 
L 183.025848 261.830967 
L 189.525438 260.850661 
L 196.025029 259.643017 
L 202.19964 258.271835 
L 208.049271 256.755651 
L 213.898903 255.007588 
L 219.423554 253.118469 
L 224.623227 251.098823 
L 229.49792 248.956682 
L 233.722654 246.868293 
L 237.622408 244.708888 
L 241.197183 242.488812 
L 244.446978 240.219856 
L 247.371794 237.917114 
L 249.97163 235.601776 
L 252.246486 233.305029 
L 254.521343 230.672105 
L 256.47122 228.054656 
L 258.096118 225.528371 
L 259.721016 222.57486 
L 261.020934 219.796026 
L 262.320852 216.513021 
L 263.62077 212.538786 
L 264.595708 208.939942 
L 265.570647 204.626891 
L 266.545586 199.367124 
L 267.520524 192.846618 
L 268.495463 184.65368 
L 269.470401 174.274469 
L 270.44534 161.104412 
L 271.420278 144.454114 
L 272.395217 123.550714 
L 273.695135 89.086962 
L 274.345094 72.493125 
L 274.995053 61.747327 
L 275.320033 59.061149 
L 275.645012 57.616849 
L 275.969992 56.890198 
L 276.619951 56.32516 
L 277.594889 56.03224 
L 282.144603 55.152266 
L 288.644193 54.105993 
L 295.143784 53.28339 
L 301.968354 52.649875 
L 308.792924 52.244743 
L 315.617494 52.063274 
L 322.442064 52.1032 
L 329.266634 52.364495 
L 336.091204 52.849363 
L 342.915774 53.562409 
L 349.415364 54.460373 
L 355.914955 55.581291 
L 362.089566 56.864473 
L 368.264177 58.375935 
L 374.113808 60.037495 
L 379.63846 61.834613 
L 384.838133 63.754772 
L 389.712826 65.787401 
L 394.262539 67.923785 
L 398.487273 70.156915 
L 398.487273 70.156915 
" clip-path="url(#p5c20b87596)" style="fill: none; stroke: #1f77b4; stroke-width: 1.5; stroke-linecap: square"/>
   </g>
   <g id="line2d_13">
    <path d="M 73.832727 70.799021 
L 74.482686 70.853773 
L 75.457625 71.21409 
L 77.082523 72.099311 
L 80.007338 73.981713 
L 83.257133 76.347466 
L 86.181949 78.765204 
L 88.781785 81.215041 
L 91.056642 83.667578 
L 93.006519 86.076239 
L 94.956396 88.867516 
L 96.581294 91.590977 
L 98.206192 94.815325 
L 99.50611 97.891181 
L 100.806028 101.579207 
L 102.105946 106.120563 
L 103.080885 110.300354 
L 104.055823 115.382963 
L 105.030762 121.667537 
L 106.0057 129.548743 
L 106.980639 139.523834 
L 107.955577 152.183327 
L 108.930516 168.201488 
L 109.905455 188.344202 
L 110.880393 213.096547 
L 112.180311 246.593548 
L 112.505291 251.981212 
L 112.83027 255.491418 
L 113.15525 257.485198 
L 113.480229 258.514017 
L 113.805209 259.027395 
L 114.455168 259.447561 
L 115.755086 259.777021 
L 121.604717 260.863096 
L 128.104308 261.846693 
L 134.603898 262.609619 
L 141.428468 263.182712 
L 148.253038 263.528915 
L 155.077609 263.652273 
L 161.902179 263.554456 
L 168.726749 263.234913 
L 175.551319 262.690834 
L 182.375889 261.91693 
L 188.875479 260.958719 
L 195.37507 259.774392 
L 201.549681 258.426926 
L 207.724292 256.84575 
L 213.573923 255.11122 
L 219.098575 253.236555 
L 224.298247 251.232615 
L 229.17294 249.107864 
L 233.397674 247.037571 
L 237.297428 244.898512 
L 240.872203 242.701598 
L 244.121998 240.459267 
L 247.046814 238.187306 
L 249.64665 235.907528 
L 251.921507 233.651466 
L 254.196364 231.072917 
L 256.146241 228.518891 
L 257.771138 226.063696 
L 259.396036 223.20661 
L 260.695954 220.532223 
L 261.995872 217.389969 
L 263.29579 213.610517 
L 264.270729 210.20941 
L 265.245667 206.15679 
L 266.220606 201.243071 
L 267.195545 195.183485 
L 268.170483 187.600173 
L 269.145422 178.012762 
L 270.12036 165.845166 
L 271.095299 150.437612 
L 272.070238 131.036821 
L 273.045176 107.020133 
L 274.345094 72.493125 
L 274.995053 61.747327 
L 275.320033 59.061149 
L 275.645012 57.616849 
L 275.969992 56.890198 
L 276.619951 56.32516 
L 277.594889 56.03224 
L 282.144603 55.152266 
L 288.644193 54.105993 
L 295.143784 53.28339 
L 301.968354 52.649875 
L 308.792924 52.244743 
L 315.617494 52.063274 
L 322.442064 52.1032 
L 329.266634 52.364495 
L 336.091204 52.849363 
L 342.915774 53.562409 
L 349.415364 54.460373 
L 355.914955 55.581291 
L 362.089566 56.864473 
L 368.264177 58.375935 
L 374.113808 60.037495 
L 379.63846 61.834613 
L 384.838133 63.754772 
L 389.712826 65.787401 
L 394.262539 67.923785 
L 398.487273 70.156915 
L 398.487273 70.156915 
" clip-path="url(#p5c20b87596)" style="fill: none; stroke: #ff7f0e; stroke-width: 1.5; stroke-linecap: square"/>
   </g>
   <g id="line2d_14">
    <path d="M 73.832727 244.905623 
L 74.482686 244.960375 
L 75.457625 245.319243 
L 77.732482 246.530011 
L 81.957215 248.758512 
L 86.181949 250.727053 
L 90.731663 252.603756 
L 95.606355 254.381889 
L 100.806028 256.051965 
L 106.33068 257.602146 
L 112.180311 259.018456 
L 118.354922 260.284846 
L 124.854513 261.383155 
L 131.354103 262.25512 
L 138.178673 262.938454 
L 145.003243 263.392038 
L 151.827813 263.621165 
L 158.652383 263.628603 
L 165.476953 263.414853 
L 172.301523 262.978195 
L 179.126093 262.314564 
L 185.625684 261.46537 
L 192.125274 260.395602 
L 198.624865 259.093178 
L 204.799476 257.625157 
L 210.649107 256.008816 
L 216.173759 254.259444 
L 221.373432 252.39047 
L 226.248124 250.413606 
L 230.797838 248.339004 
L 235.022572 246.175498 
L 238.922326 243.931012 
L 242.497101 241.613244 
L 245.746896 239.230866 
L 248.671712 236.79552 
L 251.271548 234.325049 
L 253.546405 231.848371 
L 255.496282 229.412039 
L 257.446159 226.583104 
L 259.071057 223.816488 
L 260.695954 220.532223 
L 261.995872 217.389969 
L 263.29579 213.610517 
L 264.270729 210.20941 
L 265.245667 206.15679 
L 266.220606 201.243071 
L 267.195545 195.183485 
L 268.170483 187.600173 
L 269.145422 178.012762 
L 270.12036 165.845166 
L 271.095299 150.437612 
L 272.070238 131.036821 
L 273.045176 107.020133 
L 274.345094 72.493125 
L 274.995053 61.747327 
L 275.320033 59.061149 
L 275.645012 57.616849 
L 275.969992 56.890198 
L 276.619951 56.32516 
L 277.594889 56.03224 
L 282.144603 55.152266 
L 288.644193 54.105993 
L 295.143784 53.28339 
L 301.968354 52.649875 
L 308.792924 52.244743 
L 315.617494 52.063274 
L 322.442064 52.1032 
L 329.266634 52.364495 
L 336.091204 52.849363 
L 342.915774 53.562409 
L 349.415364 54.460373 
L 355.914955 55.581291 
L 362.089566 56.864473 
L 368.264177 58.375935 
L 374.113808 60.037495 
L 379.63846 61.834613 
L 384.838133 63.754772 
L 389.712826 65.787401 
L 394.262539 67.923785 
L 398.487273 70.156915 
L 398.487273 70.156915 
" clip-path="url(#p5c20b87596)" style="fill: none; stroke: #2ca02c; stroke-width: 1.5; stroke-linecap: square"/>
   </g>
   <g id="patch_3">
    <path d="M 57.6 307.584 
L 57.6 41.472 
" style="fill: none; stroke: #000000; stroke-width: 0.8; stroke-linejoin: miter; stroke-linecap: square"/>
   </g>
   <g id="patch_4">
    <path d="M 414.72 307.584 
L 414.72 41.472 
" style="fill: none; stroke: #000000; stroke-width: 0.8; stroke-linejoin: miter; stroke-linecap: square"/>
   </g>
   <g id="patch_5">
    <path d="M 57.6 307.584 
L 414.72 307.584 
" style="fill: none; stroke: #000000; stroke-width: 0.8; stroke-linejoin: miter; stroke-linecap: square"/>
   </g>
   <g id="patch_6">
    <path d="M 57.6 41.472 
L 414.72 41.472 
" style="fill: none; stroke: #000000; stroke-width: 0.8; stroke-linejoin: miter; stroke-linecap: square"/>
   </g>
   <g id="text_14">
    <!-- Equation 3.1 simulation with varying $X(0)$ -->
    <g transform="translate(111.36 35.472) scale(0.12 -0.12)">
     <defs>
      <path id="DejaVuSans-45" d="M 628 4666 
L 3578 4666 
L 3578 4134 
L 1259 4134 
L 1259 2753 
L 3481 2753 
L 3481 2222 
L 1259 2222 
L 1259 531 
L 3634 531 
L 3634 0 
L 628 0 
L 628 4666 
z
" transform="scale(0.015625)"/>
      <path id="DejaVuSans-71" d="M 947 1747 
Q 947 1113 1208 752 
Q 1469 391 1925 391 
Q 2381 391 2643 752 
Q 2906 1113 2906 1747 
Q 2906 2381 2643 2742 
Q 2381 3103 1925 3103 
Q 1469 3103 1208 2742 
Q 947 2381 947 1747 
z
M 2906 525 
Q 2725 213 2448 61 
Q 2172 -91 1784 -91 
Q 1150 -91 751 415 
Q 353 922 353 1747 
Q 353 2572 751 3078 
Q 1150 3584 1784 3584 
Q 2172 3584 2448 3432 
Q 2725 3281 2906 2969 
L 2906 3500 
L 3481 3500 
L 3481 -1331 
L 2906 -1331 
L 2906 525 
z
" transform="scale(0.015625)"/>
      <path id="DejaVuSans-75" d="M 544 1381 
L 544 3500 
L 1119 3500 
L 1119 1403 
Q 1119 906 1312 657 
Q 1506 409 1894 409 
Q 2359 409 2629 706 
Q 2900 1003 2900 1516 
L 2900 3500 
L 3475 3500 
L 3475 0 
L 2900 0 
L 2900 538 
Q 2691 219 2414 64 
Q 2138 -91 1772 -91 
Q 1169 -91 856 284 
Q 544 659 544 1381 
z
M 1991 3584 
L 1991 3584 
z
" transform="scale(0.015625)"/>
      <path id="DejaVuSans-61" d="M 2194 1759 
Q 1497 1759 1228 1600 
Q 959 1441 959 1056 
Q 959 750 1161 570 
Q 1363 391 1709 391 
Q 2188 391 2477 730 
Q 2766 1069 2766 1631 
L 2766 1759 
L 2194 1759 
z
M 3341 1997 
L 3341 0 
L 2766 0 
L 2766 531 
Q 2569 213 2275 61 
Q 1981 -91 1556 -91 
Q 1019 -91 701 211 
Q 384 513 384 1019 
Q 384 1609 779 1909 
Q 1175 2209 1959 2209 
L 2766 2209 
L 2766 2266 
Q 2766 2663 2505 2880 
Q 2244 3097 1772 3097 
Q 1472 3097 1187 3025 
Q 903 2953 641 2809 
L 641 3341 
Q 956 3463 1253 3523 
Q 1550 3584 1831 3584 
Q 2591 3584 2966 3190 
Q 3341 2797 3341 1997 
z
" transform="scale(0.015625)"/>
      <path id="DejaVuSans-74" d="M 1172 4494 
L 1172 3500 
L 2356 3500 
L 2356 3053 
L 1172 3053 
L 1172 1153 
Q 1172 725 1289 603 
Q 1406 481 1766 481 
L 2356 481 
L 2356 0 
L 1766 0 
Q 1100 0 847 248 
Q 594 497 594 1153 
L 594 3053 
L 172 3053 
L 172 3500 
L 594 3500 
L 594 4494 
L 1172 4494 
z
" transform="scale(0.015625)"/>
      <path id="DejaVuSans-69" d="M 603 3500 
L 1178 3500 
L 1178 0 
L 603 0 
L 603 3500 
z
M 603 4863 
L 1178 4863 
L 1178 4134 
L 603 4134 
L 603 4863 
z
" transform="scale(0.015625)"/>
      <path id="DejaVuSans-6f" d="M 1959 3097 
Q 1497 3097 1228 2736 
Q 959 2375 959 1747 
Q 959 1119 1226 758 
Q 1494 397 1959 397 
Q 2419 397 2687 759 
Q 2956 1122 2956 1747 
Q 2956 2369 2687 2733 
Q 2419 3097 1959 3097 
z
M 1959 3584 
Q 2709 3584 3137 3096 
Q 3566 2609 3566 1747 
Q 3566 888 3137 398 
Q 2709 -91 1959 -91 
Q 1206 -91 779 398 
Q 353 888 353 1747 
Q 353 2609 779 3096 
Q 1206 3584 1959 3584 
z
" transform="scale(0.015625)"/>
      <path id="DejaVuSans-6e" d="M 3513 2113 
L 3513 0 
L 2938 0 
L 2938 2094 
Q 2938 2591 2744 2837 
Q 2550 3084 2163 3084 
Q 1697 3084 1428 2787 
Q 1159 2491 1159 1978 
L 1159 0 
L 581 0 
L 581 3500 
L 1159 3500 
L 1159 2956 
Q 1366 3272 1645 3428 
Q 1925 3584 2291 3584 
Q 2894 3584 3203 3211 
Q 3513 2838 3513 2113 
z
" transform="scale(0.015625)"/>
      <path id="DejaVuSans-20" transform="scale(0.015625)"/>
      <path id="DejaVuSans-73" d="M 2834 3397 
L 2834 2853 
Q 2591 2978 2328 3040 
Q 2066 3103 1784 3103 
Q 1356 3103 1142 2972 
Q 928 2841 928 2578 
Q 928 2378 1081 2264 
Q 1234 2150 1697 2047 
L 1894 2003 
Q 2506 1872 2764 1633 
Q 3022 1394 3022 966 
Q 3022 478 2636 193 
Q 2250 -91 1575 -91 
Q 1294 -91 989 -36 
Q 684 19 347 128 
L 347 722 
Q 666 556 975 473 
Q 1284 391 1588 391 
Q 1994 391 2212 530 
Q 2431 669 2431 922 
Q 2431 1156 2273 1281 
Q 2116 1406 1581 1522 
L 1381 1569 
Q 847 1681 609 1914 
Q 372 2147 372 2553 
Q 372 3047 722 3315 
Q 1072 3584 1716 3584 
Q 2034 3584 2315 3537 
Q 2597 3491 2834 3397 
z
" transform="scale(0.015625)"/>
      <path id="DejaVuSans-6d" d="M 3328 2828 
Q 3544 3216 3844 3400 
Q 4144 3584 4550 3584 
Q 5097 3584 5394 3201 
Q 5691 2819 5691 2113 
L 5691 0 
L 5113 0 
L 5113 2094 
Q 5113 2597 4934 2840 
Q 4756 3084 4391 3084 
Q 3944 3084 3684 2787 
Q 3425 2491 3425 1978 
L 3425 0 
L 2847 0 
L 2847 2094 
Q 2847 2600 2669 2842 
Q 2491 3084 2119 3084 
Q 1678 3084 1418 2786 
Q 1159 2488 1159 1978 
L 1159 0 
L 581 0 
L 581 3500 
L 1159 3500 
L 1159 2956 
Q 1356 3278 1631 3431 
Q 1906 3584 2284 3584 
Q 2666 3584 2933 3390 
Q 3200 3197 3328 2828 
z
" transform="scale(0.015625)"/>
      <path id="DejaVuSans-6c" d="M 603 4863 
L 1178 4863 
L 1178 0 
L 603 0 
L 603 4863 
z
" transform="scale(0.015625)"/>
      <path id="DejaVuSans-77" d="M 269 3500 
L 844 3500 
L 1563 769 
L 2278 3500 
L 2956 3500 
L 3675 769 
L 4391 3500 
L 4966 3500 
L 4050 0 
L 3372 0 
L 2619 2869 
L 1863 0 
L 1184 0 
L 269 3500 
z
" transform="scale(0.015625)"/>
      <path id="DejaVuSans-68" d="M 3513 2113 
L 3513 0 
L 2938 0 
L 2938 2094 
Q 2938 2591 2744 2837 
Q 2550 3084 2163 3084 
Q 1697 3084 1428 2787 
Q 1159 2491 1159 1978 
L 1159 0 
L 581 0 
L 581 4863 
L 1159 4863 
L 1159 2956 
Q 1366 3272 1645 3428 
Q 1925 3584 2291 3584 
Q 2894 3584 3203 3211 
Q 3513 2838 3513 2113 
z
" transform="scale(0.015625)"/>
      <path id="DejaVuSans-76" d="M 191 3500 
L 800 3500 
L 1894 563 
L 2988 3500 
L 3597 3500 
L 2284 0 
L 1503 0 
L 191 3500 
z
" transform="scale(0.015625)"/>
      <path id="DejaVuSans-72" d="M 2631 2963 
Q 2534 3019 2420 3045 
Q 2306 3072 2169 3072 
Q 1681 3072 1420 2755 
Q 1159 2438 1159 1844 
L 1159 0 
L 581 0 
L 581 3500 
L 1159 3500 
L 1159 2956 
Q 1341 3275 1631 3429 
Q 1922 3584 2338 3584 
Q 2397 3584 2469 3576 
Q 2541 3569 2628 3553 
L 2631 2963 
z
" transform="scale(0.015625)"/>
      <path id="DejaVuSans-79" d="M 2059 -325 
Q 1816 -950 1584 -1140 
Q 1353 -1331 966 -1331 
L 506 -1331 
L 506 -850 
L 844 -850 
Q 1081 -850 1212 -737 
Q 1344 -625 1503 -206 
L 1606 56 
L 191 3500 
L 800 3500 
L 1894 763 
L 2988 3500 
L 3597 3500 
L 2059 -325 
z
" transform="scale(0.015625)"/>
      <path id="DejaVuSans-67" d="M 2906 1791 
Q 2906 2416 2648 2759 
Q 2391 3103 1925 3103 
Q 1463 3103 1205 2759 
Q 947 2416 947 1791 
Q 947 1169 1205 825 
Q 1463 481 1925 481 
Q 2391 481 2648 825 
Q 2906 1169 2906 1791 
z
M 3481 434 
Q 3481 -459 3084 -895 
Q 2688 -1331 1869 -1331 
Q 1566 -1331 1297 -1286 
Q 1028 -1241 775 -1147 
L 775 -588 
Q 1028 -725 1275 -790 
Q 1522 -856 1778 -856 
Q 2344 -856 2625 -561 
Q 2906 -266 2906 331 
L 2906 616 
Q 2728 306 2450 153 
Q 2172 0 1784 0 
Q 1141 0 747 490 
Q 353 981 353 1791 
Q 353 2603 747 3093 
Q 1141 3584 1784 3584 
Q 2172 3584 2450 3431 
Q 2728 3278 2906 2969 
L 2906 3500 
L 3481 3500 
L 3481 434 
z
" transform="scale(0.015625)"/>
     </defs>
     <use xlink:href="#DejaVuSans-45" transform="translate(0 0.015625)"/>
     <use xlink:href="#DejaVuSans-71" transform="translate(63.183594 0.015625)"/>
     <use xlink:href="#DejaVuSans-75" transform="translate(126.660156 0.015625)"/>
     <use xlink:href="#DejaVuSans-61" transform="translate(190.039062 0.015625)"/>
     <use xlink:href="#DejaVuSans-74" transform="translate(251.318359 0.015625)"/>
     <use xlink:href="#DejaVuSans-69" transform="translate(290.527344 0.015625)"/>
     <use xlink:href="#DejaVuSans-6f" transform="translate(318.310547 0.015625)"/>
     <use xlink:href="#DejaVuSans-6e" transform="translate(379.492188 0.015625)"/>
     <use xlink:href="#DejaVuSans-20" transform="translate(442.871094 0.015625)"/>
     <use xlink:href="#DejaVuSans-33" transform="translate(474.658203 0.015625)"/>
     <use xlink:href="#DejaVuSans-2e" transform="translate(538.28125 0.015625)"/>
     <use xlink:href="#DejaVuSans-31" transform="translate(570.068359 0.015625)"/>
     <use xlink:href="#DejaVuSans-20" transform="translate(633.691406 0.015625)"/>
     <use xlink:href="#DejaVuSans-73" transform="translate(665.478516 0.015625)"/>
     <use xlink:href="#DejaVuSans-69" transform="translate(717.578125 0.015625)"/>
     <use xlink:href="#DejaVuSans-6d" transform="translate(745.361328 0.015625)"/>
     <use xlink:href="#DejaVuSans-75" transform="translate(842.773438 0.015625)"/>
     <use xlink:href="#DejaVuSans-6c" transform="translate(906.152344 0.015625)"/>
     <use xlink:href="#DejaVuSans-61" transform="translate(933.935547 0.015625)"/>
     <use xlink:href="#DejaVuSans-74" transform="translate(995.214844 0.015625)"/>
     <use xlink:href="#DejaVuSans-69" transform="translate(1034.423828 0.015625)"/>
     <use xlink:href="#DejaVuSans-6f" transform="translate(1062.207031 0.015625)"/>
     <use xlink:href="#DejaVuSans-6e" transform="translate(1123.388672 0.015625)"/>
     <use xlink:href="#DejaVuSans-20" transform="translate(1186.767578 0.015625)"/>
     <use xlink:href="#DejaVuSans-77" transform="translate(1218.554688 0.015625)"/>
     <use xlink:href="#DejaVuSans-69" transform="translate(1300.341797 0.015625)"/>
     <use xlink:href="#DejaVuSans-74" transform="translate(1328.125 0.015625)"/>
     <use xlink:href="#DejaVuSans-68" transform="translate(1367.333984 0.015625)"/>
     <use xlink:href="#DejaVuSans-20" transform="translate(1430.712891 0.015625)"/>
     <use xlink:href="#DejaVuSans-76" transform="translate(1462.5 0.015625)"/>
     <use xlink:href="#DejaVuSans-61" transform="translate(1521.679688 0.015625)"/>
     <use xlink:href="#DejaVuSans-72" transform="translate(1582.958984 0.015625)"/>
     <use xlink:href="#DejaVuSans-79" transform="translate(1624.072266 0.015625)"/>
     <use xlink:href="#DejaVuSans-69" transform="translate(1683.251953 0.015625)"/>
     <use xlink:href="#DejaVuSans-6e" transform="translate(1711.035156 0.015625)"/>
     <use xlink:href="#DejaVuSans-67" transform="translate(1774.414062 0.015625)"/>
     <use xlink:href="#DejaVuSans-20" transform="translate(1837.890625 0.015625)"/>
     <use xlink:href="#DejaVuSans-Oblique-58" transform="translate(1869.677734 0.015625)"/>
     <use xlink:href="#DejaVuSans-28" transform="translate(1938.183594 0.015625)"/>
     <use xlink:href="#DejaVuSans-30" transform="translate(1977.197266 0.015625)"/>
     <use xlink:href="#DejaVuSans-29" transform="translate(2040.820312 0.015625)"/>
    </g>
   </g>
   <g id="legend_1">
    <g id="patch_7">
     <path d="M 313.72 302.584 
L 407.72 302.584 
Q 409.72 302.584 409.72 300.584 
L 409.72 257.549625 
Q 409.72 255.549625 407.72 255.549625 
L 313.72 255.549625 
Q 311.72 255.549625 311.72 257.549625 
L 311.72 300.584 
Q 311.72 302.584 313.72 302.584 
z
" style="fill: #ffffff; opacity: 0.8; stroke: #cccccc; stroke-linejoin: miter"/>
    </g>
    <g id="line2d_15">
     <path d="M 315.72 263.648062 
L 325.72 263.648062 
L 335.72 263.648062 
" style="fill: none; stroke: #1f77b4; stroke-width: 1.5; stroke-linecap: square"/>
    </g>
    <g id="text_15">
     <!-- $X(0) = 283.6$ -->
     <g transform="translate(343.72 267.148062) scale(0.1 -0.1)">
      <defs>
       <path id="DejaVuSans-3d" d="M 678 2906 
L 4684 2906 
L 4684 2381 
L 678 2381 
L 678 2906 
z
M 678 1631 
L 4684 1631 
L 4684 1100 
L 678 1100 
L 678 1631 
z
" transform="scale(0.015625)"/>
      </defs>
      <use xlink:href="#DejaVuSans-Oblique-58" transform="translate(0 0.125)"/>
      <use xlink:href="#DejaVuSans-28" transform="translate(68.505859 0.125)"/>
      <use xlink:href="#DejaVuSans-30" transform="translate(107.519531 0.125)"/>
      <use xlink:href="#DejaVuSans-29" transform="translate(171.142578 0.125)"/>
      <use xlink:href="#DejaVuSans-3d" transform="translate(229.638672 0.125)"/>
      <use xlink:href="#DejaVuSans-32" transform="translate(332.910156 0.125)"/>
      <use xlink:href="#DejaVuSans-38" transform="translate(396.533203 0.125)"/>
      <use xlink:href="#DejaVuSans-33" transform="translate(460.15625 0.125)"/>
      <use xlink:href="#DejaVuSans-2e" transform="translate(523.779297 0.125)"/>
      <use xlink:href="#DejaVuSans-36" transform="translate(555.566406 0.125)"/>
     </g>
    </g>
    <g id="line2d_16">
     <path d="M 315.72 278.326188 
L 325.72 278.326188 
L 335.72 278.326188 
" style="fill: none; stroke: #ff7f0e; stroke-width: 1.5; stroke-linecap: square"/>
    </g>
    <g id="text_16">
     <!-- $X(0) = 278.6$ -->
     <g transform="translate(343.72 281.826188) scale(0.1 -0.1)">
      <use xlink:href="#DejaVuSans-Oblique-58" transform="translate(0 0.125)"/>
      <use xlink:href="#DejaVuSans-28" transform="translate(68.505859 0.125)"/>
      <use xlink:href="#DejaVuSans-30" transform="translate(107.519531 0.125)"/>
      <use xlink:href="#DejaVuSans-29" transform="translate(171.142578 0.125)"/>
      <use xlink:href="#DejaVuSans-3d" transform="translate(229.638672 0.125)"/>
      <use xlink:href="#DejaVuSans-32" transform="translate(332.910156 0.125)"/>
      <use xlink:href="#DejaVuSans-37" transform="translate(396.533203 0.125)"/>
      <use xlink:href="#DejaVuSans-38" transform="translate(460.15625 0.125)"/>
      <use xlink:href="#DejaVuSans-2e" transform="translate(523.779297 0.125)"/>
      <use xlink:href="#DejaVuSans-36" transform="translate(555.566406 0.125)"/>
     </g>
    </g>
    <g id="line2d_17">
     <path d="M 315.72 293.004312 
L 325.72 293.004312 
L 335.72 293.004312 
" style="fill: none; stroke: #2ca02c; stroke-width: 1.5; stroke-linecap: square"/>
    </g>
    <g id="text_17">
     <!-- $X(0) = 288.6$ -->
     <g transform="translate(343.72 296.504312) scale(0.1 -0.1)">
      <use xlink:href="#DejaVuSans-Oblique-58" transform="translate(0 0.125)"/>
      <use xlink:href="#DejaVuSans-28" transform="translate(68.505859 0.125)"/>
      <use xlink:href="#DejaVuSans-30" transform="translate(107.519531 0.125)"/>
      <use xlink:href="#DejaVuSans-29" transform="translate(171.142578 0.125)"/>
      <use xlink:href="#DejaVuSans-3d" transform="translate(229.638672 0.125)"/>
      <use xlink:href="#DejaVuSans-32" transform="translate(332.910156 0.125)"/>
      <use xlink:href="#DejaVuSans-38" transform="translate(396.533203 0.125)"/>
      <use xlink:href="#DejaVuSans-38" transform="translate(460.15625 0.125)"/>
      <use xlink:href="#DejaVuSans-2e" transform="translate(523.779297 0.125)"/>
      <use xlink:href="#DejaVuSans-36" transform="translate(555.566406 0.125)"/>
     </g>
    </g>
   </g>
  </g>
 </g>
 <defs>
  <clipPath id="p5c20b87596">
   <rect x="57.6" y="41.472" width="357.12" height="266.112"/>
  </clipPath>
 </defs>
</svg>
