<?xml version="1.0" encoding="utf-8" standalone="no"?>
<!DOCTYPE svg PUBLIC "-//W3C//DTD SVG 1.1//EN"
  "http://www.w3.org/Graphics/SVG/1.1/DTD/svg11.dtd">
<svg xmlns:xlink="http://www.w3.org/1999/xlink" width="432pt" height="720pt" viewBox="0 0 432 720" xmlns="http://www.w3.org/2000/svg" version="1.1">
 <metadata>
  <rdf:RDF xmlns:dc="http://purl.org/dc/elements/1.1/" xmlns:cc="http://creativecommons.org/ns#" xmlns:rdf="http://www.w3.org/1999/02/22-rdf-syntax-ns#">
   <cc:Work>
    <dc:type rdf:resource="http://purl.org/dc/dcmitype/StillImage"/>
    <dc:date>2025-03-06T11:06:31.736141</dc:date>
    <dc:format>image/svg+xml</dc:format>
    <dc:creator>
     <cc:Agent>
      <dc:title>Matplotlib v3.8.4, https://matplotlib.org/</dc:title>
     </cc:Agent>
    </dc:creator>
   </cc:Work>
  </rdf:RDF>
 </metadata>
 <defs>
  <style type="text/css">*{stroke-linejoin: round; stroke-linecap: butt}</style>
 </defs>
 <g id="figure_1">
  <g id="patch_1">
   <path d="M 0 720 
L 432 720 
L 432 0 
L 0 0 
L 0 720 
z
" style="fill: none"/>
  </g>
  <g id="axes_1">
   <g id="patch_2">
    <path d="M 54 640.8 
L 388.8 640.8 
L 388.8 86.4 
L 54 86.4 
L 54 640.8 
z
" style="fill: none"/>
   </g>
   <g id="matplotlib.axis_1">
    <g id="xtick_1">
     <g id="line2d_1">
      <defs>
       <path id="mca2400061f" d="M 0 0 
L 0 3.5 
" style="stroke: #000000; stroke-width: 0.8"/>
      </defs>
      <g>
       <use xlink:href="#mca2400061f" x="187.92" y="363.6" style="stroke: #000000; stroke-width: 0.8"/>
      </g>
     </g>
     <g id="text_1">
      <!-- −1.0 -->
      <g transform="translate(175.778594 354.698437) scale(0.1 -0.1)">
       <defs>
        <path id="DejaVuSans-2212" d="M 678 2272 
L 4684 2272 
L 4684 1741 
L 678 1741 
L 678 2272 
z
" transform="scale(0.015625)"/>
        <path id="DejaVuSans-31" d="M 794 531 
L 1825 531 
L 1825 4091 
L 703 3866 
L 703 4441 
L 1819 4666 
L 2450 4666 
L 2450 531 
L 3481 531 
L 3481 0 
L 794 0 
L 794 531 
z
" transform="scale(0.015625)"/>
        <path id="DejaVuSans-2e" d="M 684 794 
L 1344 794 
L 1344 0 
L 684 0 
L 684 794 
z
" transform="scale(0.015625)"/>
        <path id="DejaVuSans-30" d="M 2034 4250 
Q 1547 4250 1301 3770 
Q 1056 3291 1056 2328 
Q 1056 1369 1301 889 
Q 1547 409 2034 409 
Q 2525 409 2770 889 
Q 3016 1369 3016 2328 
Q 3016 3291 2770 3770 
Q 2525 4250 2034 4250 
z
M 2034 4750 
Q 2819 4750 3233 4129 
Q 3647 3509 3647 2328 
Q 3647 1150 3233 529 
Q 2819 -91 2034 -91 
Q 1250 -91 836 529 
Q 422 1150 422 2328 
Q 422 3509 836 4129 
Q 1250 4750 2034 4750 
z
" transform="scale(0.015625)"/>
       </defs>
       <use xlink:href="#DejaVuSans-2212"/>
       <use xlink:href="#DejaVuSans-31" x="83.789062"/>
       <use xlink:href="#DejaVuSans-2e" x="147.412109"/>
       <use xlink:href="#DejaVuSans-30" x="179.199219"/>
      </g>
     </g>
    </g>
    <g id="xtick_2">
     <g id="line2d_2">
      <g>
       <use xlink:href="#mca2400061f" x="254.88" y="363.6" style="stroke: #000000; stroke-width: 0.8"/>
      </g>
     </g>
     <g id="text_2">
      <!-- 1.0 -->
      <g transform="translate(246.928438 354.698437) scale(0.1 -0.1)">
       <use xlink:href="#DejaVuSans-31"/>
       <use xlink:href="#DejaVuSans-2e" x="63.623047"/>
       <use xlink:href="#DejaVuSans-30" x="95.410156"/>
      </g>
     </g>
    </g>
    <g id="xtick_3">
     <g id="line2d_3">
      <g>
       <use xlink:href="#mca2400061f" x="328.536" y="363.6" style="stroke: #000000; stroke-width: 0.8"/>
      </g>
     </g>
     <g id="text_3">
      <!-- 3.2 -->
      <g transform="translate(320.584438 354.698437) scale(0.1 -0.1)">
       <defs>
        <path id="DejaVuSans-33" d="M 2597 2516 
Q 3050 2419 3304 2112 
Q 3559 1806 3559 1356 
Q 3559 666 3084 287 
Q 2609 -91 1734 -91 
Q 1441 -91 1130 -33 
Q 819 25 488 141 
L 488 750 
Q 750 597 1062 519 
Q 1375 441 1716 441 
Q 2309 441 2620 675 
Q 2931 909 2931 1356 
Q 2931 1769 2642 2001 
Q 2353 2234 1838 2234 
L 1294 2234 
L 1294 2753 
L 1863 2753 
Q 2328 2753 2575 2939 
Q 2822 3125 2822 3475 
Q 2822 3834 2567 4026 
Q 2313 4219 1838 4219 
Q 1578 4219 1281 4162 
Q 984 4106 628 3988 
L 628 4550 
Q 988 4650 1302 4700 
Q 1616 4750 1894 4750 
Q 2613 4750 3031 4423 
Q 3450 4097 3450 3541 
Q 3450 3153 3228 2886 
Q 3006 2619 2597 2516 
z
" transform="scale(0.015625)"/>
        <path id="DejaVuSans-32" d="M 1228 531 
L 3431 531 
L 3431 0 
L 469 0 
L 469 531 
Q 828 903 1448 1529 
Q 2069 2156 2228 2338 
Q 2531 2678 2651 2914 
Q 2772 3150 2772 3378 
Q 2772 3750 2511 3984 
Q 2250 4219 1831 4219 
Q 1534 4219 1204 4116 
Q 875 4013 500 3803 
L 500 4441 
Q 881 4594 1212 4672 
Q 1544 4750 1819 4750 
Q 2544 4750 2975 4387 
Q 3406 4025 3406 3419 
Q 3406 3131 3298 2873 
Q 3191 2616 2906 2266 
Q 2828 2175 2409 1742 
Q 1991 1309 1228 531 
z
" transform="scale(0.015625)"/>
       </defs>
       <use xlink:href="#DejaVuSans-33"/>
       <use xlink:href="#DejaVuSans-2e" x="63.623047"/>
       <use xlink:href="#DejaVuSans-32" x="95.410156"/>
      </g>
     </g>
    </g>
    <g id="text_4">
     <!-- $X(t)$ -->
     <g transform="translate(370.2 384.698437) scale(0.1 -0.1)">
      <defs>
       <path id="DejaVuSans-Oblique-58" d="M 878 4666 
L 1516 4666 
L 2316 2981 
L 3763 4666 
L 4500 4666 
L 2578 2438 
L 3738 0 
L 3103 0 
L 2163 1966 
L 459 0 
L -275 0 
L 1906 2509 
L 878 4666 
z
" transform="scale(0.015625)"/>
       <path id="DejaVuSans-28" d="M 1984 4856 
Q 1566 4138 1362 3434 
Q 1159 2731 1159 2009 
Q 1159 1288 1364 580 
Q 1569 -128 1984 -844 
L 1484 -844 
Q 1016 -109 783 600 
Q 550 1309 550 2009 
Q 550 2706 781 3412 
Q 1013 4119 1484 4856 
L 1984 4856 
z
" transform="scale(0.015625)"/>
       <path id="DejaVuSans-Oblique-74" d="M 2706 3500 
L 2619 3053 
L 1472 3053 
L 1100 1153 
Q 1081 1047 1072 975 
Q 1063 903 1063 863 
Q 1063 663 1183 572 
Q 1303 481 1569 481 
L 2150 481 
L 2053 0 
L 1503 0 
Q 991 0 739 200 
Q 488 400 488 806 
Q 488 878 497 964 
Q 506 1050 525 1153 
L 897 3053 
L 409 3053 
L 500 3500 
L 978 3500 
L 1172 4494 
L 1747 4494 
L 1556 3500 
L 2706 3500 
z
" transform="scale(0.015625)"/>
       <path id="DejaVuSans-29" d="M 513 4856 
L 1013 4856 
Q 1481 4119 1714 3412 
Q 1947 2706 1947 2009 
Q 1947 1309 1714 600 
Q 1481 -109 1013 -844 
L 513 -844 
Q 928 -128 1133 580 
Q 1338 1288 1338 2009 
Q 1338 2731 1133 3434 
Q 928 4138 513 4856 
z
" transform="scale(0.015625)"/>
      </defs>
      <use xlink:href="#DejaVuSans-Oblique-58" transform="translate(0 0.125)"/>
      <use xlink:href="#DejaVuSans-28" transform="translate(68.505859 0.125)"/>
      <use xlink:href="#DejaVuSans-Oblique-74" transform="translate(107.519531 0.125)"/>
      <use xlink:href="#DejaVuSans-29" transform="translate(146.728516 0.125)"/>
     </g>
    </g>
   </g>
   <g id="matplotlib.axis_2">
    <g id="ytick_1">
     <g id="line2d_4">
      <defs>
       <path id="m6729e1a680" d="M 0 0 
L -3.5 0 
" style="stroke: #000000; stroke-width: 0.8"/>
      </defs>
      <g>
       <use xlink:href="#m6729e1a680" x="221.4" y="622.32" style="stroke: #000000; stroke-width: 0.8"/>
      </g>
     </g>
     <g id="text_5">
      <!-- −14 -->
      <g transform="translate(193.295312 626.119219) scale(0.1 -0.1)">
       <defs>
        <path id="DejaVuSans-34" d="M 2419 4116 
L 825 1625 
L 2419 1625 
L 2419 4116 
z
M 2253 4666 
L 3047 4666 
L 3047 1625 
L 3713 1625 
L 3713 1100 
L 3047 1100 
L 3047 0 
L 2419 0 
L 2419 1100 
L 313 1100 
L 313 1709 
L 2253 4666 
z
" transform="scale(0.015625)"/>
       </defs>
       <use xlink:href="#DejaVuSans-2212"/>
       <use xlink:href="#DejaVuSans-31" x="83.789062"/>
       <use xlink:href="#DejaVuSans-34" x="147.412109"/>
      </g>
     </g>
    </g>
    <g id="ytick_2">
     <g id="line2d_5">
      <g>
       <use xlink:href="#m6729e1a680" x="221.4" y="456" style="stroke: #000000; stroke-width: 0.8"/>
      </g>
     </g>
     <g id="text_6">
      <!-- −5 -->
      <g transform="translate(199.657813 459.799219) scale(0.1 -0.1)">
       <defs>
        <path id="DejaVuSans-35" d="M 691 4666 
L 3169 4666 
L 3169 4134 
L 1269 4134 
L 1269 2991 
Q 1406 3038 1543 3061 
Q 1681 3084 1819 3084 
Q 2600 3084 3056 2656 
Q 3513 2228 3513 1497 
Q 3513 744 3044 326 
Q 2575 -91 1722 -91 
Q 1428 -91 1123 -41 
Q 819 9 494 109 
L 494 744 
Q 775 591 1075 516 
Q 1375 441 1709 441 
Q 2250 441 2565 725 
Q 2881 1009 2881 1497 
Q 2881 1984 2565 2268 
Q 2250 2553 1709 2553 
Q 1456 2553 1204 2497 
Q 953 2441 691 2322 
L 691 4666 
z
" transform="scale(0.015625)"/>
       </defs>
       <use xlink:href="#DejaVuSans-2212"/>
       <use xlink:href="#DejaVuSans-35" x="83.789062"/>
      </g>
     </g>
    </g>
    <g id="ytick_3">
     <g id="line2d_6">
      <g>
       <use xlink:href="#m6729e1a680" x="221.4" y="271.2" style="stroke: #000000; stroke-width: 0.8"/>
      </g>
     </g>
     <g id="text_7">
      <!-- 5 -->
      <g transform="translate(208.0375 274.999219) scale(0.1 -0.1)">
       <use xlink:href="#DejaVuSans-35"/>
      </g>
     </g>
    </g>
    <g id="text_8">
     <!-- $U(X(t))$ -->
     <g transform="translate(177.595312 84.320312) scale(0.1 -0.1)">
      <defs>
       <path id="DejaVuSans-Oblique-55" d="M 991 4666 
L 1625 4666 
L 1075 1831 
Q 1041 1641 1027 1517 
Q 1013 1394 1013 1300 
Q 1013 869 1253 645 
Q 1494 422 1959 422 
Q 2563 422 2898 753 
Q 3234 1084 3378 1831 
L 3928 4666 
L 4563 4666 
L 4000 1753 
Q 3816 809 3300 359 
Q 2784 -91 1888 -91 
Q 1188 -91 780 261 
Q 372 613 372 1216 
Q 372 1325 387 1461 
Q 403 1597 434 1753 
L 991 4666 
z
" transform="scale(0.015625)"/>
      </defs>
      <use xlink:href="#DejaVuSans-Oblique-55" transform="translate(0 0.125)"/>
      <use xlink:href="#DejaVuSans-28" transform="translate(73.193359 0.125)"/>
      <use xlink:href="#DejaVuSans-Oblique-58" transform="translate(112.207031 0.125)"/>
      <use xlink:href="#DejaVuSans-28" transform="translate(180.712891 0.125)"/>
      <use xlink:href="#DejaVuSans-Oblique-74" transform="translate(219.726562 0.125)"/>
      <use xlink:href="#DejaVuSans-29" transform="translate(258.935547 0.125)"/>
      <use xlink:href="#DejaVuSans-29" transform="translate(297.949219 0.125)"/>
     </g>
    </g>
   </g>
   <g id="line2d_7">
    <path d="M 149.94012 -1 
L 150.967777 107.854986 
L 151.938794 188.373466 
L 152.876328 248.343142 
L 153.746895 290.528245 
L 154.550495 319.490791 
L 155.287129 338.737455 
L 155.956796 350.950842 
L 156.559496 358.172384 
L 157.061746 361.777862 
L 157.463546 363.247928 
L 157.731413 363.589521 
L 157.932313 363.532953 
L 158.166697 363.147088 
L 158.50153 362.035837 
L 158.936814 359.689122 
L 159.506031 355.260796 
L 160.242664 347.608562 
L 161.213681 334.961096 
L 162.586499 313.845246 
L 167.307651 238.749994 
L 168.613501 222.512887 
L 169.718452 211.35864 
L 170.689469 203.70837 
L 171.493069 198.971975 
L 172.19622 196.03678 
L 172.765437 194.491542 
L 173.234203 193.775517 
L 173.60252 193.563106 
L 173.90387 193.616584 
L 174.238704 193.913613 
L 174.640504 194.596297 
L 175.142754 195.941836 
L 175.745455 198.26122 
L 176.448605 201.906313 
L 177.285689 207.50285 
L 178.256706 215.596482 
L 179.39514 227.080792 
L 180.734473 243.005501 
L 182.341674 264.942438 
L 184.417642 296.57312 
L 188.40216 361.628799 
L 191.382178 408.348708 
L 193.424662 437.023667 
L 195.132313 458.023002 
L 196.605581 473.571003 
L 197.911431 485.162372 
L 199.083348 493.708526 
L 200.121332 499.760747 
L 201.058866 503.979644 
L 201.862466 506.646375 
L 202.565617 508.260785 
L 203.134833 509.078406 
L 203.637084 509.438858 
L 204.072367 509.47979 
L 204.474167 509.2959 
L 204.942934 508.815248 
L 205.478668 507.919648 
L 206.114851 506.384881 
L 206.851485 503.983798 
L 207.688569 500.46835 
L 208.659586 495.386281 
L 209.764536 488.365881 
L 211.036904 478.775321 
L 212.510171 465.867147 
L 214.217822 448.839516 
L 216.293789 425.800671 
L 219.206841 390.747245 
L 225.066427 319.815513 
L 227.343294 295.272267 
L 229.218362 277.382579 
L 230.825563 264.074736 
L 232.265347 253.940976 
L 233.537714 246.504554 
L 234.676148 241.122434 
L 235.680648 237.404442 
L 236.551215 234.980232 
L 237.321332 233.460712 
L 237.957516 232.650402 
L 238.526733 232.267077 
L 239.028983 232.196471 
L 239.49775 232.356202 
L 240 232.767906 
L 240.569217 233.533243 
L 241.238884 234.835862 
L 242.009001 236.86345 
L 242.879568 239.823217 
L 243.884068 244.092504 
L 244.989019 249.802232 
L 246.261386 257.61735 
L 247.70117 267.935703 
L 249.341854 281.390445 
L 251.283888 299.272208 
L 253.728173 324.01103 
L 258.449325 374.729373 
L 261.529793 406.447317 
L 263.672727 426.311908 
L 265.413861 440.49841 
L 266.920612 451.038961 
L 268.226463 458.684517 
L 269.364896 464.110642 
L 270.369397 467.87294 
L 271.239964 470.316656 
L 271.976598 471.770105 
L 272.612781 472.560044 
L 273.148515 472.88424 
L 273.617282 472.908465 
L 274.052565 472.711774 
L 274.554815 472.220165 
L 275.124032 471.317449 
L 275.760216 469.870953 
L 276.49685 467.615878 
L 277.333933 464.295392 
L 278.271467 459.620392 
L 279.309451 453.274415 
L 280.481368 444.654087 
L 281.753735 433.592409 
L 283.193519 419.025937 
L 284.767237 400.770333 
L 286.541854 377.531743 
L 288.617822 347.28545 
L 291.162556 306.758396 
L 295.481908 233.693741 
L 299.09811 174.142368 
L 301.341494 140.706868 
L 303.149595 116.89899 
L 304.689829 99.422711 
L 305.99568 86.967548 
L 307.134113 78.083493 
L 308.138614 71.900836 
L 308.975698 68.008836 
L 309.678848 65.666064 
L 310.281548 64.354541 
L 310.750315 63.790395 
L 311.152115 63.630489 
L 311.486949 63.72875 
L 311.855266 64.082908 
L 312.290549 64.837675 
L 312.826283 66.272836 
L 313.428983 68.563652 
L 314.132133 72.152733 
L 314.935734 77.476778 
L 315.839784 85.038439 
L 316.844284 95.401453 
L 317.949235 109.180793 
L 319.188119 127.562991 
L 320.527453 150.841053 
L 322.034203 181.08207 
L 323.708371 219.375699 
L 325.616922 268.399191 
L 327.860306 332.020167 
L 330.940774 426.302962 
L 336.264626 589.681798 
L 338.374077 647.130549 
L 340.048245 686.978819 
L 341.454545 715.429821 
L 341.764562 721 
M 351.826527 721 
L 352.872367 698.87659 
L 354.111251 667.805753 
L 355.584518 624.916157 
L 357.526553 561.242807 
L 361.477588 430.117501 
L 362.682988 398.282236 
L 363.587039 379.896283 
L 364.256706 370.246983 
L 364.758956 365.658471 
L 365.127273 363.923613 
L 365.361656 363.600032 
L 365.49559 363.702675 
L 365.69649 364.264993 
L 365.964356 365.809883 
L 366.332673 369.505383 
L 366.767957 376.391556 
L 367.270207 388.024138 
L 367.872907 407.717762 
L 368.542574 437.7488 
L 369.279208 481.882562 
L 370.049325 542.005758 
L 370.886409 625.653268 
L 371.652605 721 
L 371.652605 721 
" clip-path="url(#pe413b49fcd)" style="fill: none; stroke: #000000; stroke-width: 0.8; stroke-linecap: square"/>
   </g>
   <g id="line2d_8">
    <defs>
     <path id="m70ba2b922b" d="M 0 -3 
L -3 3 
L 3 3 
z
" style="stroke: #000000; stroke-linejoin: miter"/>
    </defs>
    <g>
     <use xlink:href="#m70ba2b922b" x="221.4" y="86.4" style="stroke: #000000; stroke-linejoin: miter"/>
    </g>
   </g>
   <g id="line2d_9">
    <defs>
     <path id="mc03dd34a95" d="M -0 3 
L 3 -3 
L -3 -3 
z
" style="stroke: #000000; stroke-linejoin: miter"/>
    </defs>
    <g>
     <use xlink:href="#mc03dd34a95" x="221.4" y="640.8" style="stroke: #000000; stroke-linejoin: miter"/>
    </g>
   </g>
   <g id="line2d_10">
    <defs>
     <path id="med5bae8d14" d="M 3 0 
L -3 -3 
L -3 3 
z
" style="stroke: #000000; stroke-linejoin: miter"/>
    </defs>
    <g>
     <use xlink:href="#med5bae8d14" x="388.8" y="363.6" style="stroke: #000000; stroke-linejoin: miter"/>
    </g>
   </g>
   <g id="line2d_11">
    <defs>
     <path id="mf5e64d8f61" d="M -3 -0 
L 3 3 
L 3 -3 
z
" style="stroke: #000000; stroke-linejoin: miter"/>
    </defs>
    <g>
     <use xlink:href="#mf5e64d8f61" x="54" y="363.6" style="stroke: #000000; stroke-linejoin: miter"/>
    </g>
   </g>
   <g id="patch_3">
    <path d="M 221.4 640.8 
L 221.4 86.4 
" style="fill: none; stroke: #000000; stroke-width: 0.8; stroke-linejoin: miter; stroke-linecap: square"/>
   </g>
   <g id="patch_4">
    <path d="M 54 363.6 
L 388.8 363.6 
" style="fill: none; stroke: #000000; stroke-width: 0.8; stroke-linejoin: miter; stroke-linecap: square"/>
   </g>
  </g>
 </g>
 <defs>
  <clipPath id="pe413b49fcd">
   <rect x="54" y="86.4" width="334.8" height="554.4"/>
  </clipPath>
 </defs>
</svg>
