<?xml version="1.0" encoding="utf-8" standalone="no"?>
<!DOCTYPE svg PUBLIC "-//W3C//DTD SVG 1.1//EN"
  "http://www.w3.org/Graphics/SVG/1.1/DTD/svg11.dtd">
<svg xmlns:xlink="http://www.w3.org/1999/xlink" width="460.8pt" height="345.6pt" viewBox="0 0 460.8 345.6" xmlns="http://www.w3.org/2000/svg" version="1.1">
 <metadata>
  <rdf:RDF xmlns:dc="http://purl.org/dc/elements/1.1/" xmlns:cc="http://creativecommons.org/ns#" xmlns:rdf="http://www.w3.org/1999/02/22-rdf-syntax-ns#">
   <cc:Work>
    <dc:type rdf:resource="http://purl.org/dc/dcmitype/StillImage"/>
    <dc:date>2025-03-09T10:52:14.257097</dc:date>
    <dc:format>image/svg+xml</dc:format>
    <dc:creator>
     <cc:Agent>
      <dc:title>Matplotlib v3.8.4, https://matplotlib.org/</dc:title>
     </cc:Agent>
    </dc:creator>
   </cc:Work>
  </rdf:RDF>
 </metadata>
 <defs>
  <style type="text/css">*{stroke-linejoin: round; stroke-linecap: butt}</style>
 </defs>
 <g id="figure_1">
  <g id="patch_1">
   <path d="M 0 345.6 
L 460.8 345.6 
L 460.8 0 
L 0 0 
L 0 345.6 
z
" style="fill: none"/>
  </g>
  <g id="axes_1">
   <g id="patch_2">
    <path d="M 57.6 307.584 
L 414.72 307.584 
L 414.72 41.472 
L 57.6 41.472 
L 57.6 307.584 
z
" style="fill: none"/>
   </g>
   <g id="patch_3">
    <path d="M 74.551387 307.584 
L 90.748181 307.584 
L 90.748181 90.810428 
L 74.551387 90.810428 
z
" clip-path="url(#pca4d80c46a)" style="fill: #1f77b4"/>
   </g>
   <g id="patch_4">
    <path d="M 90.748181 307.584 
L 106.944976 307.584 
L 106.944976 142.502588 
L 90.748181 142.502588 
z
" clip-path="url(#pca4d80c46a)" style="fill: #1f77b4"/>
   </g>
   <g id="patch_5">
    <path d="M 106.944976 307.584 
L 123.14177 307.584 
L 123.14177 191.693514 
L 106.944976 191.693514 
z
" clip-path="url(#pca4d80c46a)" style="fill: #1f77b4"/>
   </g>
   <g id="patch_6">
    <path d="M 123.14177 307.584 
L 139.338564 307.584 
L 139.338564 214.204615 
L 123.14177 214.204615 
z
" clip-path="url(#pca4d80c46a)" style="fill: #1f77b4"/>
   </g>
   <g id="patch_7">
    <path d="M 139.338564 307.584 
L 155.535358 307.584 
L 155.535358 244.219418 
L 139.338564 244.219418 
z
" clip-path="url(#pca4d80c46a)" style="fill: #1f77b4"/>
   </g>
   <g id="patch_8">
    <path d="M 155.535358 307.584 
L 171.732153 307.584 
L 171.732153 260.894308 
L 155.535358 260.894308 
z
" clip-path="url(#pca4d80c46a)" style="fill: #1f77b4"/>
   </g>
   <g id="patch_9">
    <path d="M 171.732153 307.584 
L 187.928947 307.584 
L 187.928947 274.23422 
L 171.732153 274.23422 
z
" clip-path="url(#pca4d80c46a)" style="fill: #1f77b4"/>
   </g>
   <g id="patch_10">
    <path d="M 187.928947 307.584 
L 204.125741 307.584 
L 204.125741 280.070431 
L 187.928947 280.070431 
z
" clip-path="url(#pca4d80c46a)" style="fill: #1f77b4"/>
   </g>
   <g id="patch_11">
    <path d="M 204.125741 307.584 
L 220.322536 307.584 
L 220.322536 290.075365 
L 204.125741 290.075365 
z
" clip-path="url(#pca4d80c46a)" style="fill: #1f77b4"/>
   </g>
   <g id="patch_12">
    <path d="M 220.322536 307.584 
L 236.51933 307.584 
L 236.51933 295.911577 
L 220.322536 295.911577 
z
" clip-path="url(#pca4d80c46a)" style="fill: #1f77b4"/>
   </g>
   <g id="patch_13">
    <path d="M 236.51933 307.584 
L 252.716124 307.584 
L 252.716124 290.90911 
L 236.51933 290.90911 
z
" clip-path="url(#pca4d80c46a)" style="fill: #1f77b4"/>
   </g>
   <g id="patch_14">
    <path d="M 252.716124 307.584 
L 268.912918 307.584 
L 268.912918 299.246555 
L 252.716124 299.246555 
z
" clip-path="url(#pca4d80c46a)" style="fill: #1f77b4"/>
   </g>
   <g id="patch_15">
    <path d="M 268.912918 307.584 
L 285.109713 307.584 
L 285.109713 304.249022 
L 268.912918 304.249022 
z
" clip-path="url(#pca4d80c46a)" style="fill: #1f77b4"/>
   </g>
   <g id="patch_16">
    <path d="M 285.109713 307.584 
L 301.306507 307.584 
L 301.306507 300.914044 
L 285.109713 300.914044 
z
" clip-path="url(#pca4d80c46a)" style="fill: #1f77b4"/>
   </g>
   <g id="patch_17">
    <path d="M 301.306507 307.584 
L 317.503301 307.584 
L 317.503301 304.249022 
L 301.306507 304.249022 
z
" clip-path="url(#pca4d80c46a)" style="fill: #1f77b4"/>
   </g>
   <g id="patch_18">
    <path d="M 317.503301 307.584 
L 333.700096 307.584 
L 333.700096 305.916511 
L 317.503301 305.916511 
z
" clip-path="url(#pca4d80c46a)" style="fill: #1f77b4"/>
   </g>
   <g id="patch_19">
    <path d="M 333.700096 307.584 
L 349.89689 307.584 
L 349.89689 307.584 
L 333.700096 307.584 
z
" clip-path="url(#pca4d80c46a)" style="fill: #1f77b4"/>
   </g>
   <g id="patch_20">
    <path d="M 349.89689 307.584 
L 366.093684 307.584 
L 366.093684 305.916511 
L 349.89689 305.916511 
z
" clip-path="url(#pca4d80c46a)" style="fill: #1f77b4"/>
   </g>
   <g id="patch_21">
    <path d="M 366.093684 307.584 
L 382.290478 307.584 
L 382.290478 307.584 
L 366.093684 307.584 
z
" clip-path="url(#pca4d80c46a)" style="fill: #1f77b4"/>
   </g>
   <g id="patch_22">
    <path d="M 382.290478 307.584 
L 398.487273 307.584 
L 398.487273 306.750255 
L 382.290478 306.750255 
z
" clip-path="url(#pca4d80c46a)" style="fill: #1f77b4"/>
   </g>
   <g id="matplotlib.axis_1">
    <g id="xtick_1">
     <g id="line2d_1">
      <defs>
       <path id="m7d77701c6e" d="M 0 0 
L 0 3.5 
" style="stroke: #000000; stroke-width: 0.8"/>
      </defs>
      <g>
       <use xlink:href="#m7d77701c6e" x="73.832727" y="307.584" style="stroke: #000000; stroke-width: 0.8"/>
      </g>
     </g>
     <g id="text_1">
      <!-- 0 -->
      <g transform="translate(70.651477 322.182437) scale(0.1 -0.1)">
       <defs>
        <path id="DejaVuSans-30" d="M 2034 4250 
Q 1547 4250 1301 3770 
Q 1056 3291 1056 2328 
Q 1056 1369 1301 889 
Q 1547 409 2034 409 
Q 2525 409 2770 889 
Q 3016 1369 3016 2328 
Q 3016 3291 2770 3770 
Q 2525 4250 2034 4250 
z
M 2034 4750 
Q 2819 4750 3233 4129 
Q 3647 3509 3647 2328 
Q 3647 1150 3233 529 
Q 2819 -91 2034 -91 
Q 1250 -91 836 529 
Q 422 1150 422 2328 
Q 422 3509 836 4129 
Q 1250 4750 2034 4750 
z
" transform="scale(0.015625)"/>
       </defs>
       <use xlink:href="#DejaVuSans-30"/>
      </g>
     </g>
    </g>
    <g id="xtick_2">
     <g id="line2d_2">
      <g>
       <use xlink:href="#m7d77701c6e" x="118.746716" y="307.584" style="stroke: #000000; stroke-width: 0.8"/>
      </g>
     </g>
     <g id="text_2">
      <!-- 5 -->
      <g transform="translate(115.565466 322.182437) scale(0.1 -0.1)">
       <defs>
        <path id="DejaVuSans-35" d="M 691 4666 
L 3169 4666 
L 3169 4134 
L 1269 4134 
L 1269 2991 
Q 1406 3038 1543 3061 
Q 1681 3084 1819 3084 
Q 2600 3084 3056 2656 
Q 3513 2228 3513 1497 
Q 3513 744 3044 326 
Q 2575 -91 1722 -91 
Q 1428 -91 1123 -41 
Q 819 9 494 109 
L 494 744 
Q 775 591 1075 516 
Q 1375 441 1709 441 
Q 2250 441 2565 725 
Q 2881 1009 2881 1497 
Q 2881 1984 2565 2268 
Q 2250 2553 1709 2553 
Q 1456 2553 1204 2497 
Q 953 2441 691 2322 
L 691 4666 
z
" transform="scale(0.015625)"/>
       </defs>
       <use xlink:href="#DejaVuSans-35"/>
      </g>
     </g>
    </g>
    <g id="xtick_3">
     <g id="line2d_3">
      <g>
       <use xlink:href="#m7d77701c6e" x="163.660705" y="307.584" style="stroke: #000000; stroke-width: 0.8"/>
      </g>
     </g>
     <g id="text_3">
      <!-- 10 -->
      <g transform="translate(157.298205 322.182437) scale(0.1 -0.1)">
       <defs>
        <path id="DejaVuSans-31" d="M 794 531 
L 1825 531 
L 1825 4091 
L 703 3866 
L 703 4441 
L 1819 4666 
L 2450 4666 
L 2450 531 
L 3481 531 
L 3481 0 
L 794 0 
L 794 531 
z
" transform="scale(0.015625)"/>
       </defs>
       <use xlink:href="#DejaVuSans-31"/>
       <use xlink:href="#DejaVuSans-30" x="63.623047"/>
      </g>
     </g>
    </g>
    <g id="xtick_4">
     <g id="line2d_4">
      <g>
       <use xlink:href="#m7d77701c6e" x="208.574694" y="307.584" style="stroke: #000000; stroke-width: 0.8"/>
      </g>
     </g>
     <g id="text_4">
      <!-- 15 -->
      <g transform="translate(202.212194 322.182437) scale(0.1 -0.1)">
       <use xlink:href="#DejaVuSans-31"/>
       <use xlink:href="#DejaVuSans-35" x="63.623047"/>
      </g>
     </g>
    </g>
    <g id="xtick_5">
     <g id="line2d_5">
      <g>
       <use xlink:href="#m7d77701c6e" x="253.488683" y="307.584" style="stroke: #000000; stroke-width: 0.8"/>
      </g>
     </g>
     <g id="text_5">
      <!-- 20 -->
      <g transform="translate(247.126183 322.182437) scale(0.1 -0.1)">
       <defs>
        <path id="DejaVuSans-32" d="M 1228 531 
L 3431 531 
L 3431 0 
L 469 0 
L 469 531 
Q 828 903 1448 1529 
Q 2069 2156 2228 2338 
Q 2531 2678 2651 2914 
Q 2772 3150 2772 3378 
Q 2772 3750 2511 3984 
Q 2250 4219 1831 4219 
Q 1534 4219 1204 4116 
Q 875 4013 500 3803 
L 500 4441 
Q 881 4594 1212 4672 
Q 1544 4750 1819 4750 
Q 2544 4750 2975 4387 
Q 3406 4025 3406 3419 
Q 3406 3131 3298 2873 
Q 3191 2616 2906 2266 
Q 2828 2175 2409 1742 
Q 1991 1309 1228 531 
z
" transform="scale(0.015625)"/>
       </defs>
       <use xlink:href="#DejaVuSans-32"/>
       <use xlink:href="#DejaVuSans-30" x="63.623047"/>
      </g>
     </g>
    </g>
    <g id="xtick_6">
     <g id="line2d_6">
      <g>
       <use xlink:href="#m7d77701c6e" x="298.402672" y="307.584" style="stroke: #000000; stroke-width: 0.8"/>
      </g>
     </g>
     <g id="text_6">
      <!-- 25 -->
      <g transform="translate(292.040172 322.182437) scale(0.1 -0.1)">
       <use xlink:href="#DejaVuSans-32"/>
       <use xlink:href="#DejaVuSans-35" x="63.623047"/>
      </g>
     </g>
    </g>
    <g id="xtick_7">
     <g id="line2d_7">
      <g>
       <use xlink:href="#m7d77701c6e" x="343.316661" y="307.584" style="stroke: #000000; stroke-width: 0.8"/>
      </g>
     </g>
     <g id="text_7">
      <!-- 30 -->
      <g transform="translate(336.954161 322.182437) scale(0.1 -0.1)">
       <defs>
        <path id="DejaVuSans-33" d="M 2597 2516 
Q 3050 2419 3304 2112 
Q 3559 1806 3559 1356 
Q 3559 666 3084 287 
Q 2609 -91 1734 -91 
Q 1441 -91 1130 -33 
Q 819 25 488 141 
L 488 750 
Q 750 597 1062 519 
Q 1375 441 1716 441 
Q 2309 441 2620 675 
Q 2931 909 2931 1356 
Q 2931 1769 2642 2001 
Q 2353 2234 1838 2234 
L 1294 2234 
L 1294 2753 
L 1863 2753 
Q 2328 2753 2575 2939 
Q 2822 3125 2822 3475 
Q 2822 3834 2567 4026 
Q 2313 4219 1838 4219 
Q 1578 4219 1281 4162 
Q 984 4106 628 3988 
L 628 4550 
Q 988 4650 1302 4700 
Q 1616 4750 1894 4750 
Q 2613 4750 3031 4423 
Q 3450 4097 3450 3541 
Q 3450 3153 3228 2886 
Q 3006 2619 2597 2516 
z
" transform="scale(0.015625)"/>
       </defs>
       <use xlink:href="#DejaVuSans-33"/>
       <use xlink:href="#DejaVuSans-30" x="63.623047"/>
      </g>
     </g>
    </g>
    <g id="xtick_8">
     <g id="line2d_8">
      <g>
       <use xlink:href="#m7d77701c6e" x="388.230651" y="307.584" style="stroke: #000000; stroke-width: 0.8"/>
      </g>
     </g>
     <g id="text_8">
      <!-- 35 -->
      <g transform="translate(381.868151 322.182437) scale(0.1 -0.1)">
       <use xlink:href="#DejaVuSans-33"/>
       <use xlink:href="#DejaVuSans-35" x="63.623047"/>
      </g>
     </g>
    </g>
   </g>
   <g id="matplotlib.axis_2">
    <g id="ytick_1">
     <g id="line2d_9">
      <defs>
       <path id="m44b085fdb4" d="M 0 0 
L -3.5 0 
" style="stroke: #000000; stroke-width: 0.8"/>
      </defs>
      <g>
       <use xlink:href="#m44b085fdb4" x="57.6" y="307.584" style="stroke: #000000; stroke-width: 0.8"/>
      </g>
     </g>
     <g id="text_9">
      <!-- 0.00 -->
      <g transform="translate(28.334375 311.383219) scale(0.1 -0.1)">
       <defs>
        <path id="DejaVuSans-2e" d="M 684 794 
L 1344 794 
L 1344 0 
L 684 0 
L 684 794 
z
" transform="scale(0.015625)"/>
       </defs>
       <use xlink:href="#DejaVuSans-30"/>
       <use xlink:href="#DejaVuSans-2e" x="63.623047"/>
       <use xlink:href="#DejaVuSans-30" x="95.410156"/>
       <use xlink:href="#DejaVuSans-30" x="159.033203"/>
      </g>
     </g>
    </g>
    <g id="ytick_2">
     <g id="line2d_10">
      <g>
       <use xlink:href="#m44b085fdb4" x="57.6" y="277.51767" style="stroke: #000000; stroke-width: 0.8"/>
      </g>
     </g>
     <g id="text_10">
      <!-- 0.02 -->
      <g transform="translate(28.334375 281.316889) scale(0.1 -0.1)">
       <use xlink:href="#DejaVuSans-30"/>
       <use xlink:href="#DejaVuSans-2e" x="63.623047"/>
       <use xlink:href="#DejaVuSans-30" x="95.410156"/>
       <use xlink:href="#DejaVuSans-32" x="159.033203"/>
      </g>
     </g>
    </g>
    <g id="ytick_3">
     <g id="line2d_11">
      <g>
       <use xlink:href="#m44b085fdb4" x="57.6" y="247.45134" style="stroke: #000000; stroke-width: 0.8"/>
      </g>
     </g>
     <g id="text_11">
      <!-- 0.04 -->
      <g transform="translate(28.334375 251.250558) scale(0.1 -0.1)">
       <defs>
        <path id="DejaVuSans-34" d="M 2419 4116 
L 825 1625 
L 2419 1625 
L 2419 4116 
z
M 2253 4666 
L 3047 4666 
L 3047 1625 
L 3713 1625 
L 3713 1100 
L 3047 1100 
L 3047 0 
L 2419 0 
L 2419 1100 
L 313 1100 
L 313 1709 
L 2253 4666 
z
" transform="scale(0.015625)"/>
       </defs>
       <use xlink:href="#DejaVuSans-30"/>
       <use xlink:href="#DejaVuSans-2e" x="63.623047"/>
       <use xlink:href="#DejaVuSans-30" x="95.410156"/>
       <use xlink:href="#DejaVuSans-34" x="159.033203"/>
      </g>
     </g>
    </g>
    <g id="ytick_4">
     <g id="line2d_12">
      <g>
       <use xlink:href="#m44b085fdb4" x="57.6" y="217.385009" style="stroke: #000000; stroke-width: 0.8"/>
      </g>
     </g>
     <g id="text_12">
      <!-- 0.06 -->
      <g transform="translate(28.334375 221.184228) scale(0.1 -0.1)">
       <defs>
        <path id="DejaVuSans-36" d="M 2113 2584 
Q 1688 2584 1439 2293 
Q 1191 2003 1191 1497 
Q 1191 994 1439 701 
Q 1688 409 2113 409 
Q 2538 409 2786 701 
Q 3034 994 3034 1497 
Q 3034 2003 2786 2293 
Q 2538 2584 2113 2584 
z
M 3366 4563 
L 3366 3988 
Q 3128 4100 2886 4159 
Q 2644 4219 2406 4219 
Q 1781 4219 1451 3797 
Q 1122 3375 1075 2522 
Q 1259 2794 1537 2939 
Q 1816 3084 2150 3084 
Q 2853 3084 3261 2657 
Q 3669 2231 3669 1497 
Q 3669 778 3244 343 
Q 2819 -91 2113 -91 
Q 1303 -91 875 529 
Q 447 1150 447 2328 
Q 447 3434 972 4092 
Q 1497 4750 2381 4750 
Q 2619 4750 2861 4703 
Q 3103 4656 3366 4563 
z
" transform="scale(0.015625)"/>
       </defs>
       <use xlink:href="#DejaVuSans-30"/>
       <use xlink:href="#DejaVuSans-2e" x="63.623047"/>
       <use xlink:href="#DejaVuSans-30" x="95.410156"/>
       <use xlink:href="#DejaVuSans-36" x="159.033203"/>
      </g>
     </g>
    </g>
    <g id="ytick_5">
     <g id="line2d_13">
      <g>
       <use xlink:href="#m44b085fdb4" x="57.6" y="187.318679" style="stroke: #000000; stroke-width: 0.8"/>
      </g>
     </g>
     <g id="text_13">
      <!-- 0.08 -->
      <g transform="translate(28.334375 191.117898) scale(0.1 -0.1)">
       <defs>
        <path id="DejaVuSans-38" d="M 2034 2216 
Q 1584 2216 1326 1975 
Q 1069 1734 1069 1313 
Q 1069 891 1326 650 
Q 1584 409 2034 409 
Q 2484 409 2743 651 
Q 3003 894 3003 1313 
Q 3003 1734 2745 1975 
Q 2488 2216 2034 2216 
z
M 1403 2484 
Q 997 2584 770 2862 
Q 544 3141 544 3541 
Q 544 4100 942 4425 
Q 1341 4750 2034 4750 
Q 2731 4750 3128 4425 
Q 3525 4100 3525 3541 
Q 3525 3141 3298 2862 
Q 3072 2584 2669 2484 
Q 3125 2378 3379 2068 
Q 3634 1759 3634 1313 
Q 3634 634 3220 271 
Q 2806 -91 2034 -91 
Q 1263 -91 848 271 
Q 434 634 434 1313 
Q 434 1759 690 2068 
Q 947 2378 1403 2484 
z
M 1172 3481 
Q 1172 3119 1398 2916 
Q 1625 2713 2034 2713 
Q 2441 2713 2670 2916 
Q 2900 3119 2900 3481 
Q 2900 3844 2670 4047 
Q 2441 4250 2034 4250 
Q 1625 4250 1398 4047 
Q 1172 3844 1172 3481 
z
" transform="scale(0.015625)"/>
       </defs>
       <use xlink:href="#DejaVuSans-30"/>
       <use xlink:href="#DejaVuSans-2e" x="63.623047"/>
       <use xlink:href="#DejaVuSans-30" x="95.410156"/>
       <use xlink:href="#DejaVuSans-38" x="159.033203"/>
      </g>
     </g>
    </g>
    <g id="ytick_6">
     <g id="line2d_14">
      <g>
       <use xlink:href="#m44b085fdb4" x="57.6" y="157.252349" style="stroke: #000000; stroke-width: 0.8"/>
      </g>
     </g>
     <g id="text_14">
      <!-- 0.10 -->
      <g transform="translate(28.334375 161.051568) scale(0.1 -0.1)">
       <use xlink:href="#DejaVuSans-30"/>
       <use xlink:href="#DejaVuSans-2e" x="63.623047"/>
       <use xlink:href="#DejaVuSans-31" x="95.410156"/>
       <use xlink:href="#DejaVuSans-30" x="159.033203"/>
      </g>
     </g>
    </g>
    <g id="ytick_7">
     <g id="line2d_15">
      <g>
       <use xlink:href="#m44b085fdb4" x="57.6" y="127.186019" style="stroke: #000000; stroke-width: 0.8"/>
      </g>
     </g>
     <g id="text_15">
      <!-- 0.12 -->
      <g transform="translate(28.334375 130.985238) scale(0.1 -0.1)">
       <use xlink:href="#DejaVuSans-30"/>
       <use xlink:href="#DejaVuSans-2e" x="63.623047"/>
       <use xlink:href="#DejaVuSans-31" x="95.410156"/>
       <use xlink:href="#DejaVuSans-32" x="159.033203"/>
      </g>
     </g>
    </g>
    <g id="ytick_8">
     <g id="line2d_16">
      <g>
       <use xlink:href="#m44b085fdb4" x="57.6" y="97.119689" style="stroke: #000000; stroke-width: 0.8"/>
      </g>
     </g>
     <g id="text_16">
      <!-- 0.14 -->
      <g transform="translate(28.334375 100.918907) scale(0.1 -0.1)">
       <use xlink:href="#DejaVuSans-30"/>
       <use xlink:href="#DejaVuSans-2e" x="63.623047"/>
       <use xlink:href="#DejaVuSans-31" x="95.410156"/>
       <use xlink:href="#DejaVuSans-34" x="159.033203"/>
      </g>
     </g>
    </g>
    <g id="ytick_9">
     <g id="line2d_17">
      <g>
       <use xlink:href="#m44b085fdb4" x="57.6" y="67.053358" style="stroke: #000000; stroke-width: 0.8"/>
      </g>
     </g>
     <g id="text_17">
      <!-- 0.16 -->
      <g transform="translate(28.334375 70.852577) scale(0.1 -0.1)">
       <use xlink:href="#DejaVuSans-30"/>
       <use xlink:href="#DejaVuSans-2e" x="63.623047"/>
       <use xlink:href="#DejaVuSans-31" x="95.410156"/>
       <use xlink:href="#DejaVuSans-36" x="159.033203"/>
      </g>
     </g>
    </g>
   </g>
   <g id="line2d_18">
    <path d="M 73.832727 54.144 
L 76.101111 64.707139 
L 78.369494 74.830016 
L 80.637877 84.530982 
L 82.90626 93.82762 
L 85.174644 102.736783 
L 87.443027 111.274621 
L 89.71141 119.45661 
L 91.979794 127.297581 
L 94.248177 134.811748 
L 96.51656 142.012732 
L 98.784943 148.913586 
L 101.053327 155.526818 
L 103.32171 161.864417 
L 105.590093 167.937871 
L 107.858477 173.75819 
L 110.12686 179.335923 
L 112.395243 184.681181 
L 114.663626 189.803654 
L 116.93201 194.712627 
L 119.200393 199.416999 
L 121.468776 203.925297 
L 123.73716 208.245694 
L 126.005543 212.38602 
L 128.273926 216.353782 
L 130.542309 220.156171 
L 132.810693 223.80008 
L 135.079076 227.292114 
L 137.347459 230.638604 
L 139.615843 233.845615 
L 141.884226 236.918961 
L 144.152609 239.864213 
L 146.420992 242.686709 
L 148.689376 245.391567 
L 150.957759 247.983689 
L 153.226142 250.467773 
L 155.494526 252.848323 
L 157.762909 255.129654 
L 160.031292 257.315902 
L 162.299675 259.411028 
L 164.568059 261.418832 
L 166.836442 263.342953 
L 169.104825 265.186878 
L 171.373209 266.95395 
L 173.641592 268.647371 
L 175.909975 270.270213 
L 178.178358 271.825417 
L 180.446742 273.3158 
L 182.715125 274.744066 
L 184.983508 276.112804 
L 187.251891 277.424493 
L 189.520275 278.681513 
L 191.788658 279.886141 
L 194.057041 281.040562 
L 196.325425 282.146867 
L 198.593808 283.207063 
L 200.862191 284.22307 
L 203.130574 285.196732 
L 205.398958 286.129812 
L 207.667341 287.024002 
L 209.935724 287.880923 
L 212.204108 288.702129 
L 214.472491 289.489107 
L 216.740874 290.243285 
L 219.009257 290.96603 
L 221.277641 291.658651 
L 223.546024 292.322405 
L 225.814407 292.958493 
L 228.082791 293.568071 
L 230.351174 294.152241 
L 232.619557 294.712064 
L 234.88794 295.248554 
L 237.156324 295.762684 
L 239.424707 296.255385 
L 241.69309 296.727551 
L 243.961474 297.180038 
L 246.229857 297.613665 
L 248.49824 298.029219 
L 250.766623 298.427453 
L 253.035007 298.80909 
L 255.30339 299.174819 
L 257.571773 299.525306 
L 259.840157 299.861185 
L 262.10854 300.183064 
L 264.376923 300.491528 
L 266.645306 300.787136 
L 268.91369 301.070423 
L 271.182073 301.341903 
L 273.450456 301.602067 
L 275.71884 301.851389 
L 277.987223 302.090318 
L 280.255606 302.31929 
L 282.523989 302.538718 
L 284.792373 302.749 
L 287.060756 302.950519 
L 289.329139 303.143638 
L 291.597523 303.328708 
L 293.865906 303.506064 
L 296.134289 303.676029 
L 298.402672 303.838909 
" clip-path="url(#pca4d80c46a)" style="fill: none; stroke: #ff7f0e; stroke-width: 1.5; stroke-linecap: square"/>
   </g>
   <g id="line2d_19">
    <path d="M 73.832727 57.414577 
L 76.101111 67.709653 
L 78.369494 77.581063 
L 80.637877 87.04624 
L 82.90626 96.121902 
L 85.174644 104.824078 
L 87.443027 113.16814 
L 89.71141 121.168822 
L 91.979794 128.840258 
L 94.248177 136.195995 
L 96.51656 143.249026 
L 98.784943 150.011807 
L 101.053327 156.496284 
L 103.32171 162.713909 
L 105.590093 168.675663 
L 107.858477 174.392077 
L 110.12686 179.873247 
L 112.395243 185.128853 
L 114.663626 190.168179 
L 116.93201 195.000124 
L 119.200393 199.633222 
L 121.468776 204.075658 
L 123.73716 208.335276 
L 126.005543 212.419601 
L 128.273926 216.335847 
L 130.542309 220.090929 
L 132.810693 223.69148 
L 135.079076 227.14386 
L 137.347459 230.454166 
L 139.615843 233.628246 
L 141.884226 236.671704 
L 144.152609 239.589916 
L 146.420992 242.388037 
L 148.689376 245.071009 
L 150.957759 247.643569 
L 153.226142 250.110263 
L 155.494526 252.475446 
L 157.762909 254.743297 
L 160.031292 256.917819 
L 162.299675 259.002855 
L 164.568059 261.002087 
L 166.836442 262.919045 
L 169.104825 264.757116 
L 171.373209 266.519546 
L 173.641592 268.209447 
L 175.909975 269.829805 
L 178.178358 271.383482 
L 180.446742 272.873221 
L 182.715125 274.301653 
L 184.983508 275.671302 
L 187.251891 276.984587 
L 189.520275 278.243827 
L 191.788658 279.451246 
L 194.057041 280.608977 
L 196.325425 281.719064 
L 198.593808 282.783469 
L 200.862191 283.804071 
L 203.130574 284.782672 
L 205.398958 285.721002 
L 207.667341 286.620717 
L 209.935724 287.483407 
L 212.204108 288.310595 
L 214.472491 289.103742 
L 216.740874 289.86425 
L 219.009257 290.59346 
L 221.277641 291.292662 
L 223.546024 291.96309 
L 225.814407 292.605928 
L 228.082791 293.222312 
L 230.351174 293.81333 
L 232.619557 294.380027 
L 234.88794 294.923402 
L 237.156324 295.444416 
L 239.424707 295.943989 
L 241.69309 296.423004 
L 243.961474 296.882306 
L 246.229857 297.322707 
L 248.49824 297.744984 
L 250.766623 298.149883 
L 253.035007 298.53812 
L 255.30339 298.910379 
L 257.571773 299.26732 
L 259.840157 299.609571 
L 262.10854 299.937738 
L 264.376923 300.252401 
L 266.645306 300.554114 
L 268.91369 300.84341 
L 271.182073 301.120802 
L 273.450456 301.386778 
L 275.71884 301.641809 
L 277.987223 301.886344 
L 280.255606 302.120817 
L 282.523989 302.34564 
L 284.792373 302.561211 
L 287.060756 302.767911 
L 289.329139 302.966105 
L 291.597523 303.156142 
L 293.865906 303.338359 
L 296.134289 303.513078 
L 298.402672 303.680606 
" clip-path="url(#pca4d80c46a)" style="fill: none; stroke: #2ca02c; stroke-width: 1.5; stroke-linecap: square"/>
   </g>
   <g id="patch_23">
    <path d="M 57.6 307.584 
L 57.6 41.472 
" style="fill: none; stroke: #000000; stroke-width: 0.8; stroke-linejoin: miter; stroke-linecap: square"/>
   </g>
   <g id="patch_24">
    <path d="M 414.72 307.584 
L 414.72 41.472 
" style="fill: none; stroke: #000000; stroke-width: 0.8; stroke-linejoin: miter; stroke-linecap: square"/>
   </g>
   <g id="patch_25">
    <path d="M 57.6 307.584 
L 414.72 307.584 
" style="fill: none; stroke: #000000; stroke-width: 0.8; stroke-linejoin: miter; stroke-linecap: square"/>
   </g>
   <g id="patch_26">
    <path d="M 57.6 41.472 
L 414.72 41.472 
" style="fill: none; stroke: #000000; stroke-width: 0.8; stroke-linejoin: miter; stroke-linecap: square"/>
   </g>
   <g id="text_18">
    <!-- Density Histogram, Theoretical and Empirical Rate PDF -->
    <g transform="translate(70.740938 35.472) scale(0.12 -0.12)">
     <defs>
      <path id="DejaVuSans-44" d="M 1259 4147 
L 1259 519 
L 2022 519 
Q 2988 519 3436 956 
Q 3884 1394 3884 2338 
Q 3884 3275 3436 3711 
Q 2988 4147 2022 4147 
L 1259 4147 
z
M 628 4666 
L 1925 4666 
Q 3281 4666 3915 4102 
Q 4550 3538 4550 2338 
Q 4550 1131 3912 565 
Q 3275 0 1925 0 
L 628 0 
L 628 4666 
z
" transform="scale(0.015625)"/>
      <path id="DejaVuSans-65" d="M 3597 1894 
L 3597 1613 
L 953 1613 
Q 991 1019 1311 708 
Q 1631 397 2203 397 
Q 2534 397 2845 478 
Q 3156 559 3463 722 
L 3463 178 
Q 3153 47 2828 -22 
Q 2503 -91 2169 -91 
Q 1331 -91 842 396 
Q 353 884 353 1716 
Q 353 2575 817 3079 
Q 1281 3584 2069 3584 
Q 2775 3584 3186 3129 
Q 3597 2675 3597 1894 
z
M 3022 2063 
Q 3016 2534 2758 2815 
Q 2500 3097 2075 3097 
Q 1594 3097 1305 2825 
Q 1016 2553 972 2059 
L 3022 2063 
z
" transform="scale(0.015625)"/>
      <path id="DejaVuSans-6e" d="M 3513 2113 
L 3513 0 
L 2938 0 
L 2938 2094 
Q 2938 2591 2744 2837 
Q 2550 3084 2163 3084 
Q 1697 3084 1428 2787 
Q 1159 2491 1159 1978 
L 1159 0 
L 581 0 
L 581 3500 
L 1159 3500 
L 1159 2956 
Q 1366 3272 1645 3428 
Q 1925 3584 2291 3584 
Q 2894 3584 3203 3211 
Q 3513 2838 3513 2113 
z
" transform="scale(0.015625)"/>
      <path id="DejaVuSans-73" d="M 2834 3397 
L 2834 2853 
Q 2591 2978 2328 3040 
Q 2066 3103 1784 3103 
Q 1356 3103 1142 2972 
Q 928 2841 928 2578 
Q 928 2378 1081 2264 
Q 1234 2150 1697 2047 
L 1894 2003 
Q 2506 1872 2764 1633 
Q 3022 1394 3022 966 
Q 3022 478 2636 193 
Q 2250 -91 1575 -91 
Q 1294 -91 989 -36 
Q 684 19 347 128 
L 347 722 
Q 666 556 975 473 
Q 1284 391 1588 391 
Q 1994 391 2212 530 
Q 2431 669 2431 922 
Q 2431 1156 2273 1281 
Q 2116 1406 1581 1522 
L 1381 1569 
Q 847 1681 609 1914 
Q 372 2147 372 2553 
Q 372 3047 722 3315 
Q 1072 3584 1716 3584 
Q 2034 3584 2315 3537 
Q 2597 3491 2834 3397 
z
" transform="scale(0.015625)"/>
      <path id="DejaVuSans-69" d="M 603 3500 
L 1178 3500 
L 1178 0 
L 603 0 
L 603 3500 
z
M 603 4863 
L 1178 4863 
L 1178 4134 
L 603 4134 
L 603 4863 
z
" transform="scale(0.015625)"/>
      <path id="DejaVuSans-74" d="M 1172 4494 
L 1172 3500 
L 2356 3500 
L 2356 3053 
L 1172 3053 
L 1172 1153 
Q 1172 725 1289 603 
Q 1406 481 1766 481 
L 2356 481 
L 2356 0 
L 1766 0 
Q 1100 0 847 248 
Q 594 497 594 1153 
L 594 3053 
L 172 3053 
L 172 3500 
L 594 3500 
L 594 4494 
L 1172 4494 
z
" transform="scale(0.015625)"/>
      <path id="DejaVuSans-79" d="M 2059 -325 
Q 1816 -950 1584 -1140 
Q 1353 -1331 966 -1331 
L 506 -1331 
L 506 -850 
L 844 -850 
Q 1081 -850 1212 -737 
Q 1344 -625 1503 -206 
L 1606 56 
L 191 3500 
L 800 3500 
L 1894 763 
L 2988 3500 
L 3597 3500 
L 2059 -325 
z
" transform="scale(0.015625)"/>
      <path id="DejaVuSans-20" transform="scale(0.015625)"/>
      <path id="DejaVuSans-48" d="M 628 4666 
L 1259 4666 
L 1259 2753 
L 3553 2753 
L 3553 4666 
L 4184 4666 
L 4184 0 
L 3553 0 
L 3553 2222 
L 1259 2222 
L 1259 0 
L 628 0 
L 628 4666 
z
" transform="scale(0.015625)"/>
      <path id="DejaVuSans-6f" d="M 1959 3097 
Q 1497 3097 1228 2736 
Q 959 2375 959 1747 
Q 959 1119 1226 758 
Q 1494 397 1959 397 
Q 2419 397 2687 759 
Q 2956 1122 2956 1747 
Q 2956 2369 2687 2733 
Q 2419 3097 1959 3097 
z
M 1959 3584 
Q 2709 3584 3137 3096 
Q 3566 2609 3566 1747 
Q 3566 888 3137 398 
Q 2709 -91 1959 -91 
Q 1206 -91 779 398 
Q 353 888 353 1747 
Q 353 2609 779 3096 
Q 1206 3584 1959 3584 
z
" transform="scale(0.015625)"/>
      <path id="DejaVuSans-67" d="M 2906 1791 
Q 2906 2416 2648 2759 
Q 2391 3103 1925 3103 
Q 1463 3103 1205 2759 
Q 947 2416 947 1791 
Q 947 1169 1205 825 
Q 1463 481 1925 481 
Q 2391 481 2648 825 
Q 2906 1169 2906 1791 
z
M 3481 434 
Q 3481 -459 3084 -895 
Q 2688 -1331 1869 -1331 
Q 1566 -1331 1297 -1286 
Q 1028 -1241 775 -1147 
L 775 -588 
Q 1028 -725 1275 -790 
Q 1522 -856 1778 -856 
Q 2344 -856 2625 -561 
Q 2906 -266 2906 331 
L 2906 616 
Q 2728 306 2450 153 
Q 2172 0 1784 0 
Q 1141 0 747 490 
Q 353 981 353 1791 
Q 353 2603 747 3093 
Q 1141 3584 1784 3584 
Q 2172 3584 2450 3431 
Q 2728 3278 2906 2969 
L 2906 3500 
L 3481 3500 
L 3481 434 
z
" transform="scale(0.015625)"/>
      <path id="DejaVuSans-72" d="M 2631 2963 
Q 2534 3019 2420 3045 
Q 2306 3072 2169 3072 
Q 1681 3072 1420 2755 
Q 1159 2438 1159 1844 
L 1159 0 
L 581 0 
L 581 3500 
L 1159 3500 
L 1159 2956 
Q 1341 3275 1631 3429 
Q 1922 3584 2338 3584 
Q 2397 3584 2469 3576 
Q 2541 3569 2628 3553 
L 2631 2963 
z
" transform="scale(0.015625)"/>
      <path id="DejaVuSans-61" d="M 2194 1759 
Q 1497 1759 1228 1600 
Q 959 1441 959 1056 
Q 959 750 1161 570 
Q 1363 391 1709 391 
Q 2188 391 2477 730 
Q 2766 1069 2766 1631 
L 2766 1759 
L 2194 1759 
z
M 3341 1997 
L 3341 0 
L 2766 0 
L 2766 531 
Q 2569 213 2275 61 
Q 1981 -91 1556 -91 
Q 1019 -91 701 211 
Q 384 513 384 1019 
Q 384 1609 779 1909 
Q 1175 2209 1959 2209 
L 2766 2209 
L 2766 2266 
Q 2766 2663 2505 2880 
Q 2244 3097 1772 3097 
Q 1472 3097 1187 3025 
Q 903 2953 641 2809 
L 641 3341 
Q 956 3463 1253 3523 
Q 1550 3584 1831 3584 
Q 2591 3584 2966 3190 
Q 3341 2797 3341 1997 
z
" transform="scale(0.015625)"/>
      <path id="DejaVuSans-6d" d="M 3328 2828 
Q 3544 3216 3844 3400 
Q 4144 3584 4550 3584 
Q 5097 3584 5394 3201 
Q 5691 2819 5691 2113 
L 5691 0 
L 5113 0 
L 5113 2094 
Q 5113 2597 4934 2840 
Q 4756 3084 4391 3084 
Q 3944 3084 3684 2787 
Q 3425 2491 3425 1978 
L 3425 0 
L 2847 0 
L 2847 2094 
Q 2847 2600 2669 2842 
Q 2491 3084 2119 3084 
Q 1678 3084 1418 2786 
Q 1159 2488 1159 1978 
L 1159 0 
L 581 0 
L 581 3500 
L 1159 3500 
L 1159 2956 
Q 1356 3278 1631 3431 
Q 1906 3584 2284 3584 
Q 2666 3584 2933 3390 
Q 3200 3197 3328 2828 
z
" transform="scale(0.015625)"/>
      <path id="DejaVuSans-2c" d="M 750 794 
L 1409 794 
L 1409 256 
L 897 -744 
L 494 -744 
L 750 256 
L 750 794 
z
" transform="scale(0.015625)"/>
      <path id="DejaVuSans-54" d="M -19 4666 
L 3928 4666 
L 3928 4134 
L 2272 4134 
L 2272 0 
L 1638 0 
L 1638 4134 
L -19 4134 
L -19 4666 
z
" transform="scale(0.015625)"/>
      <path id="DejaVuSans-68" d="M 3513 2113 
L 3513 0 
L 2938 0 
L 2938 2094 
Q 2938 2591 2744 2837 
Q 2550 3084 2163 3084 
Q 1697 3084 1428 2787 
Q 1159 2491 1159 1978 
L 1159 0 
L 581 0 
L 581 4863 
L 1159 4863 
L 1159 2956 
Q 1366 3272 1645 3428 
Q 1925 3584 2291 3584 
Q 2894 3584 3203 3211 
Q 3513 2838 3513 2113 
z
" transform="scale(0.015625)"/>
      <path id="DejaVuSans-63" d="M 3122 3366 
L 3122 2828 
Q 2878 2963 2633 3030 
Q 2388 3097 2138 3097 
Q 1578 3097 1268 2742 
Q 959 2388 959 1747 
Q 959 1106 1268 751 
Q 1578 397 2138 397 
Q 2388 397 2633 464 
Q 2878 531 3122 666 
L 3122 134 
Q 2881 22 2623 -34 
Q 2366 -91 2075 -91 
Q 1284 -91 818 406 
Q 353 903 353 1747 
Q 353 2603 823 3093 
Q 1294 3584 2113 3584 
Q 2378 3584 2631 3529 
Q 2884 3475 3122 3366 
z
" transform="scale(0.015625)"/>
      <path id="DejaVuSans-6c" d="M 603 4863 
L 1178 4863 
L 1178 0 
L 603 0 
L 603 4863 
z
" transform="scale(0.015625)"/>
      <path id="DejaVuSans-64" d="M 2906 2969 
L 2906 4863 
L 3481 4863 
L 3481 0 
L 2906 0 
L 2906 525 
Q 2725 213 2448 61 
Q 2172 -91 1784 -91 
Q 1150 -91 751 415 
Q 353 922 353 1747 
Q 353 2572 751 3078 
Q 1150 3584 1784 3584 
Q 2172 3584 2448 3432 
Q 2725 3281 2906 2969 
z
M 947 1747 
Q 947 1113 1208 752 
Q 1469 391 1925 391 
Q 2381 391 2643 752 
Q 2906 1113 2906 1747 
Q 2906 2381 2643 2742 
Q 2381 3103 1925 3103 
Q 1469 3103 1208 2742 
Q 947 2381 947 1747 
z
" transform="scale(0.015625)"/>
      <path id="DejaVuSans-45" d="M 628 4666 
L 3578 4666 
L 3578 4134 
L 1259 4134 
L 1259 2753 
L 3481 2753 
L 3481 2222 
L 1259 2222 
L 1259 531 
L 3634 531 
L 3634 0 
L 628 0 
L 628 4666 
z
" transform="scale(0.015625)"/>
      <path id="DejaVuSans-70" d="M 1159 525 
L 1159 -1331 
L 581 -1331 
L 581 3500 
L 1159 3500 
L 1159 2969 
Q 1341 3281 1617 3432 
Q 1894 3584 2278 3584 
Q 2916 3584 3314 3078 
Q 3713 2572 3713 1747 
Q 3713 922 3314 415 
Q 2916 -91 2278 -91 
Q 1894 -91 1617 61 
Q 1341 213 1159 525 
z
M 3116 1747 
Q 3116 2381 2855 2742 
Q 2594 3103 2138 3103 
Q 1681 3103 1420 2742 
Q 1159 2381 1159 1747 
Q 1159 1113 1420 752 
Q 1681 391 2138 391 
Q 2594 391 2855 752 
Q 3116 1113 3116 1747 
z
" transform="scale(0.015625)"/>
      <path id="DejaVuSans-52" d="M 2841 2188 
Q 3044 2119 3236 1894 
Q 3428 1669 3622 1275 
L 4263 0 
L 3584 0 
L 2988 1197 
Q 2756 1666 2539 1819 
Q 2322 1972 1947 1972 
L 1259 1972 
L 1259 0 
L 628 0 
L 628 4666 
L 2053 4666 
Q 2853 4666 3247 4331 
Q 3641 3997 3641 3322 
Q 3641 2881 3436 2590 
Q 3231 2300 2841 2188 
z
M 1259 4147 
L 1259 2491 
L 2053 2491 
Q 2509 2491 2742 2702 
Q 2975 2913 2975 3322 
Q 2975 3731 2742 3939 
Q 2509 4147 2053 4147 
L 1259 4147 
z
" transform="scale(0.015625)"/>
      <path id="DejaVuSans-50" d="M 1259 4147 
L 1259 2394 
L 2053 2394 
Q 2494 2394 2734 2622 
Q 2975 2850 2975 3272 
Q 2975 3691 2734 3919 
Q 2494 4147 2053 4147 
L 1259 4147 
z
M 628 4666 
L 2053 4666 
Q 2838 4666 3239 4311 
Q 3641 3956 3641 3272 
Q 3641 2581 3239 2228 
Q 2838 1875 2053 1875 
L 1259 1875 
L 1259 0 
L 628 0 
L 628 4666 
z
" transform="scale(0.015625)"/>
      <path id="DejaVuSans-46" d="M 628 4666 
L 3309 4666 
L 3309 4134 
L 1259 4134 
L 1259 2759 
L 3109 2759 
L 3109 2228 
L 1259 2228 
L 1259 0 
L 628 0 
L 628 4666 
z
" transform="scale(0.015625)"/>
     </defs>
     <use xlink:href="#DejaVuSans-44"/>
     <use xlink:href="#DejaVuSans-65" x="77.001953"/>
     <use xlink:href="#DejaVuSans-6e" x="138.525391"/>
     <use xlink:href="#DejaVuSans-73" x="201.904297"/>
     <use xlink:href="#DejaVuSans-69" x="254.003906"/>
     <use xlink:href="#DejaVuSans-74" x="281.787109"/>
     <use xlink:href="#DejaVuSans-79" x="320.996094"/>
     <use xlink:href="#DejaVuSans-20" x="380.175781"/>
     <use xlink:href="#DejaVuSans-48" x="411.962891"/>
     <use xlink:href="#DejaVuSans-69" x="487.158203"/>
     <use xlink:href="#DejaVuSans-73" x="514.941406"/>
     <use xlink:href="#DejaVuSans-74" x="567.041016"/>
     <use xlink:href="#DejaVuSans-6f" x="606.25"/>
     <use xlink:href="#DejaVuSans-67" x="667.431641"/>
     <use xlink:href="#DejaVuSans-72" x="730.908203"/>
     <use xlink:href="#DejaVuSans-61" x="772.021484"/>
     <use xlink:href="#DejaVuSans-6d" x="833.300781"/>
     <use xlink:href="#DejaVuSans-2c" x="930.712891"/>
     <use xlink:href="#DejaVuSans-20" x="962.5"/>
     <use xlink:href="#DejaVuSans-54" x="994.287109"/>
     <use xlink:href="#DejaVuSans-68" x="1055.371094"/>
     <use xlink:href="#DejaVuSans-65" x="1118.75"/>
     <use xlink:href="#DejaVuSans-6f" x="1180.273438"/>
     <use xlink:href="#DejaVuSans-72" x="1241.455078"/>
     <use xlink:href="#DejaVuSans-65" x="1280.318359"/>
     <use xlink:href="#DejaVuSans-74" x="1341.841797"/>
     <use xlink:href="#DejaVuSans-69" x="1381.050781"/>
     <use xlink:href="#DejaVuSans-63" x="1408.833984"/>
     <use xlink:href="#DejaVuSans-61" x="1463.814453"/>
     <use xlink:href="#DejaVuSans-6c" x="1525.09375"/>
     <use xlink:href="#DejaVuSans-20" x="1552.876953"/>
     <use xlink:href="#DejaVuSans-61" x="1584.664062"/>
     <use xlink:href="#DejaVuSans-6e" x="1645.943359"/>
     <use xlink:href="#DejaVuSans-64" x="1709.322266"/>
     <use xlink:href="#DejaVuSans-20" x="1772.798828"/>
     <use xlink:href="#DejaVuSans-45" x="1804.585938"/>
     <use xlink:href="#DejaVuSans-6d" x="1867.769531"/>
     <use xlink:href="#DejaVuSans-70" x="1965.181641"/>
     <use xlink:href="#DejaVuSans-69" x="2028.658203"/>
     <use xlink:href="#DejaVuSans-72" x="2056.441406"/>
     <use xlink:href="#DejaVuSans-69" x="2097.554688"/>
     <use xlink:href="#DejaVuSans-63" x="2125.337891"/>
     <use xlink:href="#DejaVuSans-61" x="2180.318359"/>
     <use xlink:href="#DejaVuSans-6c" x="2241.597656"/>
     <use xlink:href="#DejaVuSans-20" x="2269.380859"/>
     <use xlink:href="#DejaVuSans-52" x="2301.167969"/>
     <use xlink:href="#DejaVuSans-61" x="2368.400391"/>
     <use xlink:href="#DejaVuSans-74" x="2429.679688"/>
     <use xlink:href="#DejaVuSans-65" x="2468.888672"/>
     <use xlink:href="#DejaVuSans-20" x="2530.412109"/>
     <use xlink:href="#DejaVuSans-50" x="2562.199219"/>
     <use xlink:href="#DejaVuSans-44" x="2622.501953"/>
     <use xlink:href="#DejaVuSans-46" x="2699.503906"/>
    </g>
   </g>
   <g id="legend_1">
    <g id="patch_27">
     <path d="M 278.323125 93.506375 
L 407.72 93.506375 
Q 409.72 93.506375 409.72 91.506375 
L 409.72 48.472 
Q 409.72 46.472 407.72 46.472 
L 278.323125 46.472 
Q 276.323125 46.472 276.323125 48.472 
L 276.323125 91.506375 
Q 276.323125 93.506375 278.323125 93.506375 
z
" style="fill: #ffffff; opacity: 0.8; stroke: #cccccc; stroke-linejoin: miter"/>
    </g>
    <g id="patch_28">
     <path d="M 280.323125 58.070438 
L 300.323125 58.070438 
L 300.323125 51.070438 
L 280.323125 51.070438 
z
" style="fill: #1f77b4"/>
    </g>
    <g id="text_19">
     <!-- Samples -->
     <g transform="translate(308.323125 58.070438) scale(0.1 -0.1)">
      <defs>
       <path id="DejaVuSans-53" d="M 3425 4513 
L 3425 3897 
Q 3066 4069 2747 4153 
Q 2428 4238 2131 4238 
Q 1616 4238 1336 4038 
Q 1056 3838 1056 3469 
Q 1056 3159 1242 3001 
Q 1428 2844 1947 2747 
L 2328 2669 
Q 3034 2534 3370 2195 
Q 3706 1856 3706 1288 
Q 3706 609 3251 259 
Q 2797 -91 1919 -91 
Q 1588 -91 1214 -16 
Q 841 59 441 206 
L 441 856 
Q 825 641 1194 531 
Q 1563 422 1919 422 
Q 2459 422 2753 634 
Q 3047 847 3047 1241 
Q 3047 1584 2836 1778 
Q 2625 1972 2144 2069 
L 1759 2144 
Q 1053 2284 737 2584 
Q 422 2884 422 3419 
Q 422 4038 858 4394 
Q 1294 4750 2059 4750 
Q 2388 4750 2728 4690 
Q 3069 4631 3425 4513 
z
" transform="scale(0.015625)"/>
      </defs>
      <use xlink:href="#DejaVuSans-53"/>
      <use xlink:href="#DejaVuSans-61" x="63.476562"/>
      <use xlink:href="#DejaVuSans-6d" x="124.755859"/>
      <use xlink:href="#DejaVuSans-70" x="222.167969"/>
      <use xlink:href="#DejaVuSans-6c" x="285.644531"/>
      <use xlink:href="#DejaVuSans-65" x="313.427734"/>
      <use xlink:href="#DejaVuSans-73" x="374.951172"/>
     </g>
    </g>
    <g id="line2d_20">
     <path d="M 280.323125 69.248563 
L 290.323125 69.248563 
L 300.323125 69.248563 
" style="fill: none; stroke: #ff7f0e; stroke-width: 1.5; stroke-linecap: square"/>
    </g>
    <g id="text_20">
     <!-- Empirical: 0.1686 -->
     <g transform="translate(308.323125 72.748563) scale(0.1 -0.1)">
      <defs>
       <path id="DejaVuSans-3a" d="M 750 794 
L 1409 794 
L 1409 0 
L 750 0 
L 750 794 
z
M 750 3309 
L 1409 3309 
L 1409 2516 
L 750 2516 
L 750 3309 
z
" transform="scale(0.015625)"/>
      </defs>
      <use xlink:href="#DejaVuSans-45"/>
      <use xlink:href="#DejaVuSans-6d" x="63.183594"/>
      <use xlink:href="#DejaVuSans-70" x="160.595703"/>
      <use xlink:href="#DejaVuSans-69" x="224.072266"/>
      <use xlink:href="#DejaVuSans-72" x="251.855469"/>
      <use xlink:href="#DejaVuSans-69" x="292.96875"/>
      <use xlink:href="#DejaVuSans-63" x="320.751953"/>
      <use xlink:href="#DejaVuSans-61" x="375.732422"/>
      <use xlink:href="#DejaVuSans-6c" x="437.011719"/>
      <use xlink:href="#DejaVuSans-3a" x="464.794922"/>
      <use xlink:href="#DejaVuSans-20" x="498.486328"/>
      <use xlink:href="#DejaVuSans-30" x="530.273438"/>
      <use xlink:href="#DejaVuSans-2e" x="593.896484"/>
      <use xlink:href="#DejaVuSans-31" x="625.683594"/>
      <use xlink:href="#DejaVuSans-36" x="689.306641"/>
      <use xlink:href="#DejaVuSans-38" x="752.929688"/>
      <use xlink:href="#DejaVuSans-36" x="816.552734"/>
     </g>
    </g>
    <g id="line2d_21">
     <path d="M 280.323125 83.926688 
L 290.323125 83.926688 
L 300.323125 83.926688 
" style="fill: none; stroke: #2ca02c; stroke-width: 1.5; stroke-linecap: square"/>
    </g>
    <g id="text_21">
     <!-- Theoretical: 0.1664 -->
     <g transform="translate(308.323125 87.426688) scale(0.1 -0.1)">
      <use xlink:href="#DejaVuSans-54"/>
      <use xlink:href="#DejaVuSans-68" x="61.083984"/>
      <use xlink:href="#DejaVuSans-65" x="124.462891"/>
      <use xlink:href="#DejaVuSans-6f" x="185.986328"/>
      <use xlink:href="#DejaVuSans-72" x="247.167969"/>
      <use xlink:href="#DejaVuSans-65" x="286.03125"/>
      <use xlink:href="#DejaVuSans-74" x="347.554688"/>
      <use xlink:href="#DejaVuSans-69" x="386.763672"/>
      <use xlink:href="#DejaVuSans-63" x="414.546875"/>
      <use xlink:href="#DejaVuSans-61" x="469.527344"/>
      <use xlink:href="#DejaVuSans-6c" x="530.806641"/>
      <use xlink:href="#DejaVuSans-3a" x="558.589844"/>
      <use xlink:href="#DejaVuSans-20" x="592.28125"/>
      <use xlink:href="#DejaVuSans-30" x="624.068359"/>
      <use xlink:href="#DejaVuSans-2e" x="687.691406"/>
      <use xlink:href="#DejaVuSans-31" x="719.478516"/>
      <use xlink:href="#DejaVuSans-36" x="783.101562"/>
      <use xlink:href="#DejaVuSans-36" x="846.724609"/>
      <use xlink:href="#DejaVuSans-34" x="910.347656"/>
     </g>
    </g>
   </g>
  </g>
 </g>
 <defs>
  <clipPath id="pca4d80c46a">
   <rect x="57.6" y="41.472" width="357.12" height="266.112"/>
  </clipPath>
 </defs>
</svg>
