<?xml version="1.0" encoding="utf-8" standalone="no"?>
<!DOCTYPE svg PUBLIC "-//W3C//DTD SVG 1.1//EN"
  "http://www.w3.org/Graphics/SVG/1.1/DTD/svg11.dtd">
<svg xmlns:xlink="http://www.w3.org/1999/xlink" width="460.8pt" height="345.6pt" viewBox="0 0 460.8 345.6" xmlns="http://www.w3.org/2000/svg" version="1.1">
 <metadata>
  <rdf:RDF xmlns:dc="http://purl.org/dc/elements/1.1/" xmlns:cc="http://creativecommons.org/ns#" xmlns:rdf="http://www.w3.org/1999/02/22-rdf-syntax-ns#">
   <cc:Work>
    <dc:type rdf:resource="http://purl.org/dc/dcmitype/StillImage"/>
    <dc:date>2025-03-10T17:07:08.502593</dc:date>
    <dc:format>image/svg+xml</dc:format>
    <dc:creator>
     <cc:Agent>
      <dc:title>Matplotlib v3.8.4, https://matplotlib.org/</dc:title>
     </cc:Agent>
    </dc:creator>
   </cc:Work>
  </rdf:RDF>
 </metadata>
 <defs>
  <style type="text/css">*{stroke-linejoin: round; stroke-linecap: butt}</style>
 </defs>
 <g id="figure_1">
  <g id="patch_1">
   <path d="M 0 345.6 
L 460.8 345.6 
L 460.8 0 
L 0 0 
L 0 345.6 
z
" style="fill: none"/>
  </g>
  <g id="axes_1">
   <g id="patch_2">
    <path d="M 57.6 307.584 
L 414.72 307.584 
L 414.72 41.472 
L 57.6 41.472 
L 57.6 307.584 
z
" style="fill: none"/>
   </g>
   <g id="patch_3">
    <path d="M 74.610902 307.584 
L 90.804721 307.584 
L 90.804721 99.032038 
L 74.610902 99.032038 
z
" clip-path="url(#p5b43e02774)" style="fill: #1f77b4"/>
   </g>
   <g id="patch_4">
    <path d="M 90.804721 307.584 
L 106.998539 307.584 
L 106.998539 160.746394 
L 90.804721 160.746394 
z
" clip-path="url(#p5b43e02774)" style="fill: #1f77b4"/>
   </g>
   <g id="patch_5">
    <path d="M 106.998539 307.584 
L 123.192358 307.584 
L 123.192358 189.120811 
L 106.998539 189.120811 
z
" clip-path="url(#p5b43e02774)" style="fill: #1f77b4"/>
   </g>
   <g id="patch_6">
    <path d="M 123.192358 307.584 
L 139.386176 307.584 
L 139.386176 234.519877 
L 123.192358 234.519877 
z
" clip-path="url(#p5b43e02774)" style="fill: #1f77b4"/>
   </g>
   <g id="patch_7">
    <path d="M 139.386176 307.584 
L 155.579995 307.584 
L 155.579995 252.963248 
L 139.386176 252.963248 
z
" clip-path="url(#p5b43e02774)" style="fill: #1f77b4"/>
   </g>
   <g id="patch_8">
    <path d="M 155.579995 307.584 
L 171.773813 307.584 
L 171.773813 272.115979 
L 155.579995 272.115979 
z
" clip-path="url(#p5b43e02774)" style="fill: #1f77b4"/>
   </g>
   <g id="patch_9">
    <path d="M 171.773813 307.584 
L 187.967632 307.584 
L 187.967632 287.721908 
L 171.773813 287.721908 
z
" clip-path="url(#p5b43e02774)" style="fill: #1f77b4"/>
   </g>
   <g id="patch_10">
    <path d="M 187.967632 307.584 
L 204.16145 307.584 
L 204.16145 289.84999 
L 187.967632 289.84999 
z
" clip-path="url(#p5b43e02774)" style="fill: #1f77b4"/>
   </g>
   <g id="patch_11">
    <path d="M 204.16145 307.584 
L 220.355269 307.584 
L 220.355269 296.234233 
L 204.16145 296.234233 
z
" clip-path="url(#p5b43e02774)" style="fill: #1f77b4"/>
   </g>
   <g id="patch_12">
    <path d="M 220.355269 307.584 
L 236.549087 307.584 
L 236.549087 301.909117 
L 220.355269 301.909117 
z
" clip-path="url(#p5b43e02774)" style="fill: #1f77b4"/>
   </g>
   <g id="patch_13">
    <path d="M 236.549087 307.584 
L 252.742906 307.584 
L 252.742906 302.618477 
L 236.549087 302.618477 
z
" clip-path="url(#p5b43e02774)" style="fill: #1f77b4"/>
   </g>
   <g id="patch_14">
    <path d="M 252.742906 307.584 
L 268.936724 307.584 
L 268.936724 304.746558 
L 252.742906 304.746558 
z
" clip-path="url(#p5b43e02774)" style="fill: #1f77b4"/>
   </g>
   <g id="patch_15">
    <path d="M 268.936724 307.584 
L 285.130543 307.584 
L 285.130543 304.037198 
L 268.936724 304.037198 
z
" clip-path="url(#p5b43e02774)" style="fill: #1f77b4"/>
   </g>
   <g id="patch_16">
    <path d="M 285.130543 307.584 
L 301.324362 307.584 
L 301.324362 307.584 
L 285.130543 307.584 
z
" clip-path="url(#p5b43e02774)" style="fill: #1f77b4"/>
   </g>
   <g id="patch_17">
    <path d="M 301.324362 307.584 
L 317.51818 307.584 
L 317.51818 306.165279 
L 301.324362 306.165279 
z
" clip-path="url(#p5b43e02774)" style="fill: #1f77b4"/>
   </g>
   <g id="patch_18">
    <path d="M 317.51818 307.584 
L 333.711999 307.584 
L 333.711999 305.455919 
L 317.51818 305.455919 
z
" clip-path="url(#p5b43e02774)" style="fill: #1f77b4"/>
   </g>
   <g id="patch_19">
    <path d="M 333.711999 307.584 
L 349.905817 307.584 
L 349.905817 306.87464 
L 333.711999 306.87464 
z
" clip-path="url(#p5b43e02774)" style="fill: #1f77b4"/>
   </g>
   <g id="patch_20">
    <path d="M 349.905817 307.584 
L 366.099636 307.584 
L 366.099636 306.87464 
L 349.905817 306.87464 
z
" clip-path="url(#p5b43e02774)" style="fill: #1f77b4"/>
   </g>
   <g id="patch_21">
    <path d="M 366.099636 307.584 
L 382.293454 307.584 
L 382.293454 307.584 
L 366.099636 307.584 
z
" clip-path="url(#p5b43e02774)" style="fill: #1f77b4"/>
   </g>
   <g id="patch_22">
    <path d="M 382.293454 307.584 
L 398.487273 307.584 
L 398.487273 306.165279 
L 382.293454 306.165279 
z
" clip-path="url(#p5b43e02774)" style="fill: #1f77b4"/>
   </g>
   <g id="matplotlib.axis_1">
    <g id="xtick_1">
     <g id="line2d_1">
      <defs>
       <path id="m6c9bf542f8" d="M 0 0 
L 0 3.5 
" style="stroke: #000000; stroke-width: 0.8"/>
      </defs>
      <g>
       <use xlink:href="#m6c9bf542f8" x="73.832727" y="307.584" style="stroke: #000000; stroke-width: 0.8"/>
      </g>
     </g>
     <g id="text_1">
      <!-- 0 -->
      <g transform="translate(70.651477 322.182437) scale(0.1 -0.1)">
       <defs>
        <path id="DejaVuSans-30" d="M 2034 4250 
Q 1547 4250 1301 3770 
Q 1056 3291 1056 2328 
Q 1056 1369 1301 889 
Q 1547 409 2034 409 
Q 2525 409 2770 889 
Q 3016 1369 3016 2328 
Q 3016 3291 2770 3770 
Q 2525 4250 2034 4250 
z
M 2034 4750 
Q 2819 4750 3233 4129 
Q 3647 3509 3647 2328 
Q 3647 1150 3233 529 
Q 2819 -91 2034 -91 
Q 1250 -91 836 529 
Q 422 1150 422 2328 
Q 422 3509 836 4129 
Q 1250 4750 2034 4750 
z
" transform="scale(0.015625)"/>
       </defs>
       <use xlink:href="#DejaVuSans-30"/>
      </g>
     </g>
    </g>
    <g id="xtick_2">
     <g id="line2d_2">
      <g>
       <use xlink:href="#m6c9bf542f8" x="151.64243" y="307.584" style="stroke: #000000; stroke-width: 0.8"/>
      </g>
     </g>
     <g id="text_2">
      <!-- 10 -->
      <g transform="translate(145.27993 322.182437) scale(0.1 -0.1)">
       <defs>
        <path id="DejaVuSans-31" d="M 794 531 
L 1825 531 
L 1825 4091 
L 703 3866 
L 703 4441 
L 1819 4666 
L 2450 4666 
L 2450 531 
L 3481 531 
L 3481 0 
L 794 0 
L 794 531 
z
" transform="scale(0.015625)"/>
       </defs>
       <use xlink:href="#DejaVuSans-31"/>
       <use xlink:href="#DejaVuSans-30" x="63.623047"/>
      </g>
     </g>
    </g>
    <g id="xtick_3">
     <g id="line2d_3">
      <g>
       <use xlink:href="#m6c9bf542f8" x="229.452133" y="307.584" style="stroke: #000000; stroke-width: 0.8"/>
      </g>
     </g>
     <g id="text_3">
      <!-- 20 -->
      <g transform="translate(223.089633 322.182437) scale(0.1 -0.1)">
       <defs>
        <path id="DejaVuSans-32" d="M 1228 531 
L 3431 531 
L 3431 0 
L 469 0 
L 469 531 
Q 828 903 1448 1529 
Q 2069 2156 2228 2338 
Q 2531 2678 2651 2914 
Q 2772 3150 2772 3378 
Q 2772 3750 2511 3984 
Q 2250 4219 1831 4219 
Q 1534 4219 1204 4116 
Q 875 4013 500 3803 
L 500 4441 
Q 881 4594 1212 4672 
Q 1544 4750 1819 4750 
Q 2544 4750 2975 4387 
Q 3406 4025 3406 3419 
Q 3406 3131 3298 2873 
Q 3191 2616 2906 2266 
Q 2828 2175 2409 1742 
Q 1991 1309 1228 531 
z
" transform="scale(0.015625)"/>
       </defs>
       <use xlink:href="#DejaVuSans-32"/>
       <use xlink:href="#DejaVuSans-30" x="63.623047"/>
      </g>
     </g>
    </g>
    <g id="xtick_4">
     <g id="line2d_4">
      <g>
       <use xlink:href="#m6c9bf542f8" x="307.261836" y="307.584" style="stroke: #000000; stroke-width: 0.8"/>
      </g>
     </g>
     <g id="text_4">
      <!-- 30 -->
      <g transform="translate(300.899336 322.182437) scale(0.1 -0.1)">
       <defs>
        <path id="DejaVuSans-33" d="M 2597 2516 
Q 3050 2419 3304 2112 
Q 3559 1806 3559 1356 
Q 3559 666 3084 287 
Q 2609 -91 1734 -91 
Q 1441 -91 1130 -33 
Q 819 25 488 141 
L 488 750 
Q 750 597 1062 519 
Q 1375 441 1716 441 
Q 2309 441 2620 675 
Q 2931 909 2931 1356 
Q 2931 1769 2642 2001 
Q 2353 2234 1838 2234 
L 1294 2234 
L 1294 2753 
L 1863 2753 
Q 2328 2753 2575 2939 
Q 2822 3125 2822 3475 
Q 2822 3834 2567 4026 
Q 2313 4219 1838 4219 
Q 1578 4219 1281 4162 
Q 984 4106 628 3988 
L 628 4550 
Q 988 4650 1302 4700 
Q 1616 4750 1894 4750 
Q 2613 4750 3031 4423 
Q 3450 4097 3450 3541 
Q 3450 3153 3228 2886 
Q 3006 2619 2597 2516 
z
" transform="scale(0.015625)"/>
       </defs>
       <use xlink:href="#DejaVuSans-33"/>
       <use xlink:href="#DejaVuSans-30" x="63.623047"/>
      </g>
     </g>
    </g>
    <g id="xtick_5">
     <g id="line2d_5">
      <g>
       <use xlink:href="#m6c9bf542f8" x="385.071538" y="307.584" style="stroke: #000000; stroke-width: 0.8"/>
      </g>
     </g>
     <g id="text_5">
      <!-- 40 -->
      <g transform="translate(378.709038 322.182437) scale(0.1 -0.1)">
       <defs>
        <path id="DejaVuSans-34" d="M 2419 4116 
L 825 1625 
L 2419 1625 
L 2419 4116 
z
M 2253 4666 
L 3047 4666 
L 3047 1625 
L 3713 1625 
L 3713 1100 
L 3047 1100 
L 3047 0 
L 2419 0 
L 2419 1100 
L 313 1100 
L 313 1709 
L 2253 4666 
z
" transform="scale(0.015625)"/>
       </defs>
       <use xlink:href="#DejaVuSans-34"/>
       <use xlink:href="#DejaVuSans-30" x="63.623047"/>
      </g>
     </g>
    </g>
   </g>
   <g id="matplotlib.axis_2">
    <g id="ytick_1">
     <g id="line2d_6">
      <defs>
       <path id="m917a265633" d="M 0 0 
L -3.5 0 
" style="stroke: #000000; stroke-width: 0.8"/>
      </defs>
      <g>
       <use xlink:href="#m917a265633" x="57.6" y="307.584" style="stroke: #000000; stroke-width: 0.8"/>
      </g>
     </g>
     <g id="text_6">
      <!-- 0.000 -->
      <g transform="translate(21.971875 311.383219) scale(0.1 -0.1)">
       <defs>
        <path id="DejaVuSans-2e" d="M 684 794 
L 1344 794 
L 1344 0 
L 684 0 
L 684 794 
z
" transform="scale(0.015625)"/>
       </defs>
       <use xlink:href="#DejaVuSans-30"/>
       <use xlink:href="#DejaVuSans-2e" x="63.623047"/>
       <use xlink:href="#DejaVuSans-30" x="95.410156"/>
       <use xlink:href="#DejaVuSans-30" x="159.033203"/>
       <use xlink:href="#DejaVuSans-30" x="222.65625"/>
      </g>
     </g>
    </g>
    <g id="ytick_2">
     <g id="line2d_7">
      <g>
       <use xlink:href="#m917a265633" x="57.6" y="270.675834" style="stroke: #000000; stroke-width: 0.8"/>
      </g>
     </g>
     <g id="text_7">
      <!-- 0.025 -->
      <g transform="translate(21.971875 274.475052) scale(0.1 -0.1)">
       <defs>
        <path id="DejaVuSans-35" d="M 691 4666 
L 3169 4666 
L 3169 4134 
L 1269 4134 
L 1269 2991 
Q 1406 3038 1543 3061 
Q 1681 3084 1819 3084 
Q 2600 3084 3056 2656 
Q 3513 2228 3513 1497 
Q 3513 744 3044 326 
Q 2575 -91 1722 -91 
Q 1428 -91 1123 -41 
Q 819 9 494 109 
L 494 744 
Q 775 591 1075 516 
Q 1375 441 1709 441 
Q 2250 441 2565 725 
Q 2881 1009 2881 1497 
Q 2881 1984 2565 2268 
Q 2250 2553 1709 2553 
Q 1456 2553 1204 2497 
Q 953 2441 691 2322 
L 691 4666 
z
" transform="scale(0.015625)"/>
       </defs>
       <use xlink:href="#DejaVuSans-30"/>
       <use xlink:href="#DejaVuSans-2e" x="63.623047"/>
       <use xlink:href="#DejaVuSans-30" x="95.410156"/>
       <use xlink:href="#DejaVuSans-32" x="159.033203"/>
       <use xlink:href="#DejaVuSans-35" x="222.65625"/>
      </g>
     </g>
    </g>
    <g id="ytick_3">
     <g id="line2d_8">
      <g>
       <use xlink:href="#m917a265633" x="57.6" y="233.767667" style="stroke: #000000; stroke-width: 0.8"/>
      </g>
     </g>
     <g id="text_8">
      <!-- 0.050 -->
      <g transform="translate(21.971875 237.566886) scale(0.1 -0.1)">
       <use xlink:href="#DejaVuSans-30"/>
       <use xlink:href="#DejaVuSans-2e" x="63.623047"/>
       <use xlink:href="#DejaVuSans-30" x="95.410156"/>
       <use xlink:href="#DejaVuSans-35" x="159.033203"/>
       <use xlink:href="#DejaVuSans-30" x="222.65625"/>
      </g>
     </g>
    </g>
    <g id="ytick_4">
     <g id="line2d_9">
      <g>
       <use xlink:href="#m917a265633" x="57.6" y="196.859501" style="stroke: #000000; stroke-width: 0.8"/>
      </g>
     </g>
     <g id="text_9">
      <!-- 0.075 -->
      <g transform="translate(21.971875 200.65872) scale(0.1 -0.1)">
       <defs>
        <path id="DejaVuSans-37" d="M 525 4666 
L 3525 4666 
L 3525 4397 
L 1831 0 
L 1172 0 
L 2766 4134 
L 525 4134 
L 525 4666 
z
" transform="scale(0.015625)"/>
       </defs>
       <use xlink:href="#DejaVuSans-30"/>
       <use xlink:href="#DejaVuSans-2e" x="63.623047"/>
       <use xlink:href="#DejaVuSans-30" x="95.410156"/>
       <use xlink:href="#DejaVuSans-37" x="159.033203"/>
       <use xlink:href="#DejaVuSans-35" x="222.65625"/>
      </g>
     </g>
    </g>
    <g id="ytick_5">
     <g id="line2d_10">
      <g>
       <use xlink:href="#m917a265633" x="57.6" y="159.951335" style="stroke: #000000; stroke-width: 0.8"/>
      </g>
     </g>
     <g id="text_10">
      <!-- 0.100 -->
      <g transform="translate(21.971875 163.750553) scale(0.1 -0.1)">
       <use xlink:href="#DejaVuSans-30"/>
       <use xlink:href="#DejaVuSans-2e" x="63.623047"/>
       <use xlink:href="#DejaVuSans-31" x="95.410156"/>
       <use xlink:href="#DejaVuSans-30" x="159.033203"/>
       <use xlink:href="#DejaVuSans-30" x="222.65625"/>
      </g>
     </g>
    </g>
    <g id="ytick_6">
     <g id="line2d_11">
      <g>
       <use xlink:href="#m917a265633" x="57.6" y="123.043168" style="stroke: #000000; stroke-width: 0.8"/>
      </g>
     </g>
     <g id="text_11">
      <!-- 0.125 -->
      <g transform="translate(21.971875 126.842387) scale(0.1 -0.1)">
       <use xlink:href="#DejaVuSans-30"/>
       <use xlink:href="#DejaVuSans-2e" x="63.623047"/>
       <use xlink:href="#DejaVuSans-31" x="95.410156"/>
       <use xlink:href="#DejaVuSans-32" x="159.033203"/>
       <use xlink:href="#DejaVuSans-35" x="222.65625"/>
      </g>
     </g>
    </g>
    <g id="ytick_7">
     <g id="line2d_12">
      <g>
       <use xlink:href="#m917a265633" x="57.6" y="86.135002" style="stroke: #000000; stroke-width: 0.8"/>
      </g>
     </g>
     <g id="text_12">
      <!-- 0.150 -->
      <g transform="translate(21.971875 89.934221) scale(0.1 -0.1)">
       <use xlink:href="#DejaVuSans-30"/>
       <use xlink:href="#DejaVuSans-2e" x="63.623047"/>
       <use xlink:href="#DejaVuSans-31" x="95.410156"/>
       <use xlink:href="#DejaVuSans-35" x="159.033203"/>
       <use xlink:href="#DejaVuSans-30" x="222.65625"/>
      </g>
     </g>
    </g>
    <g id="ytick_8">
     <g id="line2d_13">
      <g>
       <use xlink:href="#m917a265633" x="57.6" y="49.226836" style="stroke: #000000; stroke-width: 0.8"/>
      </g>
     </g>
     <g id="text_13">
      <!-- 0.175 -->
      <g transform="translate(21.971875 53.026054) scale(0.1 -0.1)">
       <use xlink:href="#DejaVuSans-30"/>
       <use xlink:href="#DejaVuSans-2e" x="63.623047"/>
       <use xlink:href="#DejaVuSans-31" x="95.410156"/>
       <use xlink:href="#DejaVuSans-37" x="159.033203"/>
       <use xlink:href="#DejaVuSans-35" x="222.65625"/>
      </g>
     </g>
    </g>
   </g>
   <g id="line2d_14">
    <path d="M 73.832727 54.144 
L 75.797619 64.896097 
L 77.76251 75.19204 
L 79.727402 85.051181 
L 81.692293 94.492053 
L 83.657185 103.532398 
L 85.622076 112.189211 
L 87.586968 120.478762 
L 89.551859 128.416631 
L 91.516751 136.017739 
L 93.481642 143.296373 
L 95.446534 150.266214 
L 97.411425 156.940362 
L 99.376317 163.331362 
L 101.341208 169.451226 
L 103.3061 175.311457 
L 105.270991 180.92307 
L 107.235883 186.296612 
L 109.200774 191.442184 
L 111.165665 196.369457 
L 113.130557 201.087692 
L 115.095448 205.605758 
L 117.06034 209.932147 
L 119.025231 214.07499 
L 120.990123 218.042074 
L 122.955014 221.840857 
L 124.919906 225.478478 
L 126.884797 228.961774 
L 128.849689 232.297292 
L 130.81458 235.491302 
L 132.779472 238.549808 
L 134.744363 241.478558 
L 136.709255 244.283056 
L 138.674146 246.968575 
L 140.639038 249.540162 
L 142.603929 252.00265 
L 144.568821 254.360667 
L 146.533712 256.618647 
L 148.498604 258.780833 
L 150.463495 260.851289 
L 152.428387 262.833907 
L 154.393278 264.732413 
L 156.35817 266.550375 
L 158.323061 268.291211 
L 160.287953 269.958193 
L 162.252844 271.554454 
L 164.217736 273.082994 
L 166.182627 274.546686 
L 168.147519 275.948282 
L 170.11241 277.290415 
L 172.077301 278.575609 
L 174.042193 279.806279 
L 176.007084 280.984739 
L 177.971976 282.113202 
L 179.936867 283.193791 
L 181.901759 284.228537 
L 183.86665 285.219384 
L 185.831542 286.168194 
L 187.796433 287.076751 
L 189.761325 287.946764 
L 191.726216 288.779866 
L 193.691108 289.577624 
L 195.655999 290.341538 
L 197.620891 291.073043 
L 199.585782 291.773514 
L 201.550674 292.444268 
L 203.515565 293.086566 
L 205.480457 293.701614 
L 207.445348 294.290569 
L 209.41024 294.854538 
L 211.375131 295.39458 
L 213.340023 295.911712 
L 215.304914 296.406904 
L 217.269806 296.881088 
L 219.234697 297.335155 
L 221.199589 297.769959 
L 223.16448 298.186316 
L 225.129372 298.585009 
L 227.094263 298.966788 
L 229.059155 299.33237 
L 231.024046 299.682442 
L 232.988938 300.017663 
L 234.953829 300.338662 
L 236.91872 300.646043 
L 238.883612 300.940383 
L 240.848503 301.222236 
L 242.813395 301.492131 
L 244.778286 301.750576 
L 246.743178 301.998057 
L 248.708069 302.235039 
L 250.672961 302.461966 
L 252.637852 302.679267 
L 254.602744 302.887348 
L 256.567635 303.086602 
L 258.532527 303.277402 
L 260.497418 303.460108 
L 262.46231 303.635063 
L 264.427201 303.802595 
L 266.392093 303.96302 
L 268.356984 304.116638 
" clip-path="url(#p5b43e02774)" style="fill: none; stroke: #ff7f0e; stroke-width: 1.5; stroke-linecap: square"/>
   </g>
   <g id="line2d_15">
    <path d="M 73.832727 61.906004 
L 75.797619 72.016247 
L 77.76251 81.71043 
L 79.727402 91.005674 
L 81.692293 99.918395 
L 83.657185 108.464337 
L 85.622076 116.658593 
L 87.586968 124.515635 
L 89.551859 132.049341 
L 91.516751 139.273017 
L 93.481642 146.199421 
L 95.446534 152.840786 
L 97.411425 159.208844 
L 99.376317 165.31484 
L 101.341208 171.16956 
L 103.3061 176.783344 
L 105.270991 182.166107 
L 107.235883 187.327357 
L 109.200774 192.276209 
L 111.165665 197.021403 
L 113.130557 201.571321 
L 115.095448 205.933999 
L 117.06034 210.117143 
L 119.025231 214.128139 
L 120.990123 217.974074 
L 122.955014 221.661739 
L 124.919906 225.197648 
L 126.884797 228.588046 
L 128.849689 231.83892 
L 130.81458 234.956013 
L 132.779472 237.944831 
L 134.744363 240.810651 
L 136.709255 243.558536 
L 138.674146 246.193338 
L 140.639038 248.719712 
L 142.603929 251.14212 
L 144.568821 253.46484 
L 146.533712 255.691974 
L 148.498604 257.827457 
L 150.463495 259.875059 
L 152.428387 261.838397 
L 154.393278 263.720939 
L 156.35817 265.52601 
L 158.323061 267.256798 
L 160.287953 268.91636 
L 162.252844 270.507627 
L 164.217736 272.033409 
L 166.182627 273.496402 
L 168.147519 274.899189 
L 170.11241 276.244248 
L 172.077301 277.533955 
L 174.042193 278.770587 
L 176.007084 279.956328 
L 177.971976 281.093274 
L 179.936867 282.183431 
L 181.901759 283.228726 
L 183.86665 284.231005 
L 185.831542 285.192037 
L 187.796433 286.11352 
L 189.761325 286.997082 
L 191.726216 287.844284 
L 193.691108 288.656621 
L 195.655999 289.435528 
L 197.620891 290.182382 
L 199.585782 290.8985 
L 201.550674 291.585149 
L 203.515565 292.243541 
L 205.480457 292.874838 
L 207.445348 293.480155 
L 209.41024 294.060562 
L 211.375131 294.617085 
L 213.340023 295.150705 
L 215.304914 295.662365 
L 217.269806 296.152969 
L 219.234697 296.623383 
L 221.199589 297.074439 
L 223.16448 297.506933 
L 225.129372 297.921629 
L 227.094263 298.319259 
L 229.059155 298.700525 
L 231.024046 299.066102 
L 232.988938 299.416634 
L 234.953829 299.752741 
L 236.91872 300.075016 
L 238.883612 300.384029 
L 240.848503 300.680325 
L 242.813395 300.964428 
L 244.778286 301.236839 
L 246.743178 301.49804 
L 248.708069 301.748492 
L 250.672961 301.988638 
L 252.637852 302.2189 
L 254.602744 302.439687 
L 256.567635 302.651388 
L 258.532527 302.854377 
L 260.497418 303.049012 
L 262.46231 303.235638 
L 264.427201 303.414584 
L 266.392093 303.586165 
L 268.356984 303.750686 
" clip-path="url(#p5b43e02774)" style="fill: none; stroke: #2ca02c; stroke-width: 1.5; stroke-linecap: square"/>
   </g>
   <g id="patch_23">
    <path d="M 57.6 307.584 
L 57.6 41.472 
" style="fill: none; stroke: #000000; stroke-width: 0.8; stroke-linejoin: miter; stroke-linecap: square"/>
   </g>
   <g id="patch_24">
    <path d="M 414.72 307.584 
L 414.72 41.472 
" style="fill: none; stroke: #000000; stroke-width: 0.8; stroke-linejoin: miter; stroke-linecap: square"/>
   </g>
   <g id="patch_25">
    <path d="M 57.6 307.584 
L 414.72 307.584 
" style="fill: none; stroke: #000000; stroke-width: 0.8; stroke-linejoin: miter; stroke-linecap: square"/>
   </g>
   <g id="patch_26">
    <path d="M 57.6 41.472 
L 414.72 41.472 
" style="fill: none; stroke: #000000; stroke-width: 0.8; stroke-linejoin: miter; stroke-linecap: square"/>
   </g>
   <g id="text_14">
    <!-- Density Histogram, Theoretical and Empirical Rate PDF -->
    <g transform="translate(70.740938 35.472) scale(0.12 -0.12)">
     <defs>
      <path id="DejaVuSans-44" d="M 1259 4147 
L 1259 519 
L 2022 519 
Q 2988 519 3436 956 
Q 3884 1394 3884 2338 
Q 3884 3275 3436 3711 
Q 2988 4147 2022 4147 
L 1259 4147 
z
M 628 4666 
L 1925 4666 
Q 3281 4666 3915 4102 
Q 4550 3538 4550 2338 
Q 4550 1131 3912 565 
Q 3275 0 1925 0 
L 628 0 
L 628 4666 
z
" transform="scale(0.015625)"/>
      <path id="DejaVuSans-65" d="M 3597 1894 
L 3597 1613 
L 953 1613 
Q 991 1019 1311 708 
Q 1631 397 2203 397 
Q 2534 397 2845 478 
Q 3156 559 3463 722 
L 3463 178 
Q 3153 47 2828 -22 
Q 2503 -91 2169 -91 
Q 1331 -91 842 396 
Q 353 884 353 1716 
Q 353 2575 817 3079 
Q 1281 3584 2069 3584 
Q 2775 3584 3186 3129 
Q 3597 2675 3597 1894 
z
M 3022 2063 
Q 3016 2534 2758 2815 
Q 2500 3097 2075 3097 
Q 1594 3097 1305 2825 
Q 1016 2553 972 2059 
L 3022 2063 
z
" transform="scale(0.015625)"/>
      <path id="DejaVuSans-6e" d="M 3513 2113 
L 3513 0 
L 2938 0 
L 2938 2094 
Q 2938 2591 2744 2837 
Q 2550 3084 2163 3084 
Q 1697 3084 1428 2787 
Q 1159 2491 1159 1978 
L 1159 0 
L 581 0 
L 581 3500 
L 1159 3500 
L 1159 2956 
Q 1366 3272 1645 3428 
Q 1925 3584 2291 3584 
Q 2894 3584 3203 3211 
Q 3513 2838 3513 2113 
z
" transform="scale(0.015625)"/>
      <path id="DejaVuSans-73" d="M 2834 3397 
L 2834 2853 
Q 2591 2978 2328 3040 
Q 2066 3103 1784 3103 
Q 1356 3103 1142 2972 
Q 928 2841 928 2578 
Q 928 2378 1081 2264 
Q 1234 2150 1697 2047 
L 1894 2003 
Q 2506 1872 2764 1633 
Q 3022 1394 3022 966 
Q 3022 478 2636 193 
Q 2250 -91 1575 -91 
Q 1294 -91 989 -36 
Q 684 19 347 128 
L 347 722 
Q 666 556 975 473 
Q 1284 391 1588 391 
Q 1994 391 2212 530 
Q 2431 669 2431 922 
Q 2431 1156 2273 1281 
Q 2116 1406 1581 1522 
L 1381 1569 
Q 847 1681 609 1914 
Q 372 2147 372 2553 
Q 372 3047 722 3315 
Q 1072 3584 1716 3584 
Q 2034 3584 2315 3537 
Q 2597 3491 2834 3397 
z
" transform="scale(0.015625)"/>
      <path id="DejaVuSans-69" d="M 603 3500 
L 1178 3500 
L 1178 0 
L 603 0 
L 603 3500 
z
M 603 4863 
L 1178 4863 
L 1178 4134 
L 603 4134 
L 603 4863 
z
" transform="scale(0.015625)"/>
      <path id="DejaVuSans-74" d="M 1172 4494 
L 1172 3500 
L 2356 3500 
L 2356 3053 
L 1172 3053 
L 1172 1153 
Q 1172 725 1289 603 
Q 1406 481 1766 481 
L 2356 481 
L 2356 0 
L 1766 0 
Q 1100 0 847 248 
Q 594 497 594 1153 
L 594 3053 
L 172 3053 
L 172 3500 
L 594 3500 
L 594 4494 
L 1172 4494 
z
" transform="scale(0.015625)"/>
      <path id="DejaVuSans-79" d="M 2059 -325 
Q 1816 -950 1584 -1140 
Q 1353 -1331 966 -1331 
L 506 -1331 
L 506 -850 
L 844 -850 
Q 1081 -850 1212 -737 
Q 1344 -625 1503 -206 
L 1606 56 
L 191 3500 
L 800 3500 
L 1894 763 
L 2988 3500 
L 3597 3500 
L 2059 -325 
z
" transform="scale(0.015625)"/>
      <path id="DejaVuSans-20" transform="scale(0.015625)"/>
      <path id="DejaVuSans-48" d="M 628 4666 
L 1259 4666 
L 1259 2753 
L 3553 2753 
L 3553 4666 
L 4184 4666 
L 4184 0 
L 3553 0 
L 3553 2222 
L 1259 2222 
L 1259 0 
L 628 0 
L 628 4666 
z
" transform="scale(0.015625)"/>
      <path id="DejaVuSans-6f" d="M 1959 3097 
Q 1497 3097 1228 2736 
Q 959 2375 959 1747 
Q 959 1119 1226 758 
Q 1494 397 1959 397 
Q 2419 397 2687 759 
Q 2956 1122 2956 1747 
Q 2956 2369 2687 2733 
Q 2419 3097 1959 3097 
z
M 1959 3584 
Q 2709 3584 3137 3096 
Q 3566 2609 3566 1747 
Q 3566 888 3137 398 
Q 2709 -91 1959 -91 
Q 1206 -91 779 398 
Q 353 888 353 1747 
Q 353 2609 779 3096 
Q 1206 3584 1959 3584 
z
" transform="scale(0.015625)"/>
      <path id="DejaVuSans-67" d="M 2906 1791 
Q 2906 2416 2648 2759 
Q 2391 3103 1925 3103 
Q 1463 3103 1205 2759 
Q 947 2416 947 1791 
Q 947 1169 1205 825 
Q 1463 481 1925 481 
Q 2391 481 2648 825 
Q 2906 1169 2906 1791 
z
M 3481 434 
Q 3481 -459 3084 -895 
Q 2688 -1331 1869 -1331 
Q 1566 -1331 1297 -1286 
Q 1028 -1241 775 -1147 
L 775 -588 
Q 1028 -725 1275 -790 
Q 1522 -856 1778 -856 
Q 2344 -856 2625 -561 
Q 2906 -266 2906 331 
L 2906 616 
Q 2728 306 2450 153 
Q 2172 0 1784 0 
Q 1141 0 747 490 
Q 353 981 353 1791 
Q 353 2603 747 3093 
Q 1141 3584 1784 3584 
Q 2172 3584 2450 3431 
Q 2728 3278 2906 2969 
L 2906 3500 
L 3481 3500 
L 3481 434 
z
" transform="scale(0.015625)"/>
      <path id="DejaVuSans-72" d="M 2631 2963 
Q 2534 3019 2420 3045 
Q 2306 3072 2169 3072 
Q 1681 3072 1420 2755 
Q 1159 2438 1159 1844 
L 1159 0 
L 581 0 
L 581 3500 
L 1159 3500 
L 1159 2956 
Q 1341 3275 1631 3429 
Q 1922 3584 2338 3584 
Q 2397 3584 2469 3576 
Q 2541 3569 2628 3553 
L 2631 2963 
z
" transform="scale(0.015625)"/>
      <path id="DejaVuSans-61" d="M 2194 1759 
Q 1497 1759 1228 1600 
Q 959 1441 959 1056 
Q 959 750 1161 570 
Q 1363 391 1709 391 
Q 2188 391 2477 730 
Q 2766 1069 2766 1631 
L 2766 1759 
L 2194 1759 
z
M 3341 1997 
L 3341 0 
L 2766 0 
L 2766 531 
Q 2569 213 2275 61 
Q 1981 -91 1556 -91 
Q 1019 -91 701 211 
Q 384 513 384 1019 
Q 384 1609 779 1909 
Q 1175 2209 1959 2209 
L 2766 2209 
L 2766 2266 
Q 2766 2663 2505 2880 
Q 2244 3097 1772 3097 
Q 1472 3097 1187 3025 
Q 903 2953 641 2809 
L 641 3341 
Q 956 3463 1253 3523 
Q 1550 3584 1831 3584 
Q 2591 3584 2966 3190 
Q 3341 2797 3341 1997 
z
" transform="scale(0.015625)"/>
      <path id="DejaVuSans-6d" d="M 3328 2828 
Q 3544 3216 3844 3400 
Q 4144 3584 4550 3584 
Q 5097 3584 5394 3201 
Q 5691 2819 5691 2113 
L 5691 0 
L 5113 0 
L 5113 2094 
Q 5113 2597 4934 2840 
Q 4756 3084 4391 3084 
Q 3944 3084 3684 2787 
Q 3425 2491 3425 1978 
L 3425 0 
L 2847 0 
L 2847 2094 
Q 2847 2600 2669 2842 
Q 2491 3084 2119 3084 
Q 1678 3084 1418 2786 
Q 1159 2488 1159 1978 
L 1159 0 
L 581 0 
L 581 3500 
L 1159 3500 
L 1159 2956 
Q 1356 3278 1631 3431 
Q 1906 3584 2284 3584 
Q 2666 3584 2933 3390 
Q 3200 3197 3328 2828 
z
" transform="scale(0.015625)"/>
      <path id="DejaVuSans-2c" d="M 750 794 
L 1409 794 
L 1409 256 
L 897 -744 
L 494 -744 
L 750 256 
L 750 794 
z
" transform="scale(0.015625)"/>
      <path id="DejaVuSans-54" d="M -19 4666 
L 3928 4666 
L 3928 4134 
L 2272 4134 
L 2272 0 
L 1638 0 
L 1638 4134 
L -19 4134 
L -19 4666 
z
" transform="scale(0.015625)"/>
      <path id="DejaVuSans-68" d="M 3513 2113 
L 3513 0 
L 2938 0 
L 2938 2094 
Q 2938 2591 2744 2837 
Q 2550 3084 2163 3084 
Q 1697 3084 1428 2787 
Q 1159 2491 1159 1978 
L 1159 0 
L 581 0 
L 581 4863 
L 1159 4863 
L 1159 2956 
Q 1366 3272 1645 3428 
Q 1925 3584 2291 3584 
Q 2894 3584 3203 3211 
Q 3513 2838 3513 2113 
z
" transform="scale(0.015625)"/>
      <path id="DejaVuSans-63" d="M 3122 3366 
L 3122 2828 
Q 2878 2963 2633 3030 
Q 2388 3097 2138 3097 
Q 1578 3097 1268 2742 
Q 959 2388 959 1747 
Q 959 1106 1268 751 
Q 1578 397 2138 397 
Q 2388 397 2633 464 
Q 2878 531 3122 666 
L 3122 134 
Q 2881 22 2623 -34 
Q 2366 -91 2075 -91 
Q 1284 -91 818 406 
Q 353 903 353 1747 
Q 353 2603 823 3093 
Q 1294 3584 2113 3584 
Q 2378 3584 2631 3529 
Q 2884 3475 3122 3366 
z
" transform="scale(0.015625)"/>
      <path id="DejaVuSans-6c" d="M 603 4863 
L 1178 4863 
L 1178 0 
L 603 0 
L 603 4863 
z
" transform="scale(0.015625)"/>
      <path id="DejaVuSans-64" d="M 2906 2969 
L 2906 4863 
L 3481 4863 
L 3481 0 
L 2906 0 
L 2906 525 
Q 2725 213 2448 61 
Q 2172 -91 1784 -91 
Q 1150 -91 751 415 
Q 353 922 353 1747 
Q 353 2572 751 3078 
Q 1150 3584 1784 3584 
Q 2172 3584 2448 3432 
Q 2725 3281 2906 2969 
z
M 947 1747 
Q 947 1113 1208 752 
Q 1469 391 1925 391 
Q 2381 391 2643 752 
Q 2906 1113 2906 1747 
Q 2906 2381 2643 2742 
Q 2381 3103 1925 3103 
Q 1469 3103 1208 2742 
Q 947 2381 947 1747 
z
" transform="scale(0.015625)"/>
      <path id="DejaVuSans-45" d="M 628 4666 
L 3578 4666 
L 3578 4134 
L 1259 4134 
L 1259 2753 
L 3481 2753 
L 3481 2222 
L 1259 2222 
L 1259 531 
L 3634 531 
L 3634 0 
L 628 0 
L 628 4666 
z
" transform="scale(0.015625)"/>
      <path id="DejaVuSans-70" d="M 1159 525 
L 1159 -1331 
L 581 -1331 
L 581 3500 
L 1159 3500 
L 1159 2969 
Q 1341 3281 1617 3432 
Q 1894 3584 2278 3584 
Q 2916 3584 3314 3078 
Q 3713 2572 3713 1747 
Q 3713 922 3314 415 
Q 2916 -91 2278 -91 
Q 1894 -91 1617 61 
Q 1341 213 1159 525 
z
M 3116 1747 
Q 3116 2381 2855 2742 
Q 2594 3103 2138 3103 
Q 1681 3103 1420 2742 
Q 1159 2381 1159 1747 
Q 1159 1113 1420 752 
Q 1681 391 2138 391 
Q 2594 391 2855 752 
Q 3116 1113 3116 1747 
z
" transform="scale(0.015625)"/>
      <path id="DejaVuSans-52" d="M 2841 2188 
Q 3044 2119 3236 1894 
Q 3428 1669 3622 1275 
L 4263 0 
L 3584 0 
L 2988 1197 
Q 2756 1666 2539 1819 
Q 2322 1972 1947 1972 
L 1259 1972 
L 1259 0 
L 628 0 
L 628 4666 
L 2053 4666 
Q 2853 4666 3247 4331 
Q 3641 3997 3641 3322 
Q 3641 2881 3436 2590 
Q 3231 2300 2841 2188 
z
M 1259 4147 
L 1259 2491 
L 2053 2491 
Q 2509 2491 2742 2702 
Q 2975 2913 2975 3322 
Q 2975 3731 2742 3939 
Q 2509 4147 2053 4147 
L 1259 4147 
z
" transform="scale(0.015625)"/>
      <path id="DejaVuSans-50" d="M 1259 4147 
L 1259 2394 
L 2053 2394 
Q 2494 2394 2734 2622 
Q 2975 2850 2975 3272 
Q 2975 3691 2734 3919 
Q 2494 4147 2053 4147 
L 1259 4147 
z
M 628 4666 
L 2053 4666 
Q 2838 4666 3239 4311 
Q 3641 3956 3641 3272 
Q 3641 2581 3239 2228 
Q 2838 1875 2053 1875 
L 1259 1875 
L 1259 0 
L 628 0 
L 628 4666 
z
" transform="scale(0.015625)"/>
      <path id="DejaVuSans-46" d="M 628 4666 
L 3309 4666 
L 3309 4134 
L 1259 4134 
L 1259 2759 
L 3109 2759 
L 3109 2228 
L 1259 2228 
L 1259 0 
L 628 0 
L 628 4666 
z
" transform="scale(0.015625)"/>
     </defs>
     <use xlink:href="#DejaVuSans-44"/>
     <use xlink:href="#DejaVuSans-65" x="77.001953"/>
     <use xlink:href="#DejaVuSans-6e" x="138.525391"/>
     <use xlink:href="#DejaVuSans-73" x="201.904297"/>
     <use xlink:href="#DejaVuSans-69" x="254.003906"/>
     <use xlink:href="#DejaVuSans-74" x="281.787109"/>
     <use xlink:href="#DejaVuSans-79" x="320.996094"/>
     <use xlink:href="#DejaVuSans-20" x="380.175781"/>
     <use xlink:href="#DejaVuSans-48" x="411.962891"/>
     <use xlink:href="#DejaVuSans-69" x="487.158203"/>
     <use xlink:href="#DejaVuSans-73" x="514.941406"/>
     <use xlink:href="#DejaVuSans-74" x="567.041016"/>
     <use xlink:href="#DejaVuSans-6f" x="606.25"/>
     <use xlink:href="#DejaVuSans-67" x="667.431641"/>
     <use xlink:href="#DejaVuSans-72" x="730.908203"/>
     <use xlink:href="#DejaVuSans-61" x="772.021484"/>
     <use xlink:href="#DejaVuSans-6d" x="833.300781"/>
     <use xlink:href="#DejaVuSans-2c" x="930.712891"/>
     <use xlink:href="#DejaVuSans-20" x="962.5"/>
     <use xlink:href="#DejaVuSans-54" x="994.287109"/>
     <use xlink:href="#DejaVuSans-68" x="1055.371094"/>
     <use xlink:href="#DejaVuSans-65" x="1118.75"/>
     <use xlink:href="#DejaVuSans-6f" x="1180.273438"/>
     <use xlink:href="#DejaVuSans-72" x="1241.455078"/>
     <use xlink:href="#DejaVuSans-65" x="1280.318359"/>
     <use xlink:href="#DejaVuSans-74" x="1341.841797"/>
     <use xlink:href="#DejaVuSans-69" x="1381.050781"/>
     <use xlink:href="#DejaVuSans-63" x="1408.833984"/>
     <use xlink:href="#DejaVuSans-61" x="1463.814453"/>
     <use xlink:href="#DejaVuSans-6c" x="1525.09375"/>
     <use xlink:href="#DejaVuSans-20" x="1552.876953"/>
     <use xlink:href="#DejaVuSans-61" x="1584.664062"/>
     <use xlink:href="#DejaVuSans-6e" x="1645.943359"/>
     <use xlink:href="#DejaVuSans-64" x="1709.322266"/>
     <use xlink:href="#DejaVuSans-20" x="1772.798828"/>
     <use xlink:href="#DejaVuSans-45" x="1804.585938"/>
     <use xlink:href="#DejaVuSans-6d" x="1867.769531"/>
     <use xlink:href="#DejaVuSans-70" x="1965.181641"/>
     <use xlink:href="#DejaVuSans-69" x="2028.658203"/>
     <use xlink:href="#DejaVuSans-72" x="2056.441406"/>
     <use xlink:href="#DejaVuSans-69" x="2097.554688"/>
     <use xlink:href="#DejaVuSans-63" x="2125.337891"/>
     <use xlink:href="#DejaVuSans-61" x="2180.318359"/>
     <use xlink:href="#DejaVuSans-6c" x="2241.597656"/>
     <use xlink:href="#DejaVuSans-20" x="2269.380859"/>
     <use xlink:href="#DejaVuSans-52" x="2301.167969"/>
     <use xlink:href="#DejaVuSans-61" x="2368.400391"/>
     <use xlink:href="#DejaVuSans-74" x="2429.679688"/>
     <use xlink:href="#DejaVuSans-65" x="2468.888672"/>
     <use xlink:href="#DejaVuSans-20" x="2530.412109"/>
     <use xlink:href="#DejaVuSans-50" x="2562.199219"/>
     <use xlink:href="#DejaVuSans-44" x="2622.501953"/>
     <use xlink:href="#DejaVuSans-46" x="2699.503906"/>
    </g>
   </g>
   <g id="legend_1">
    <g id="patch_27">
     <path d="M 278.323125 93.506375 
L 407.72 93.506375 
Q 409.72 93.506375 409.72 91.506375 
L 409.72 48.472 
Q 409.72 46.472 407.72 46.472 
L 278.323125 46.472 
Q 276.323125 46.472 276.323125 48.472 
L 276.323125 91.506375 
Q 276.323125 93.506375 278.323125 93.506375 
z
" style="fill: #ffffff; opacity: 0.8; stroke: #cccccc; stroke-linejoin: miter"/>
    </g>
    <g id="patch_28">
     <path d="M 280.323125 58.070438 
L 300.323125 58.070438 
L 300.323125 51.070438 
L 280.323125 51.070438 
z
" style="fill: #1f77b4"/>
    </g>
    <g id="text_15">
     <!-- Samples -->
     <g transform="translate(308.323125 58.070438) scale(0.1 -0.1)">
      <defs>
       <path id="DejaVuSans-53" d="M 3425 4513 
L 3425 3897 
Q 3066 4069 2747 4153 
Q 2428 4238 2131 4238 
Q 1616 4238 1336 4038 
Q 1056 3838 1056 3469 
Q 1056 3159 1242 3001 
Q 1428 2844 1947 2747 
L 2328 2669 
Q 3034 2534 3370 2195 
Q 3706 1856 3706 1288 
Q 3706 609 3251 259 
Q 2797 -91 1919 -91 
Q 1588 -91 1214 -16 
Q 841 59 441 206 
L 441 856 
Q 825 641 1194 531 
Q 1563 422 1919 422 
Q 2459 422 2753 634 
Q 3047 847 3047 1241 
Q 3047 1584 2836 1778 
Q 2625 1972 2144 2069 
L 1759 2144 
Q 1053 2284 737 2584 
Q 422 2884 422 3419 
Q 422 4038 858 4394 
Q 1294 4750 2059 4750 
Q 2388 4750 2728 4690 
Q 3069 4631 3425 4513 
z
" transform="scale(0.015625)"/>
      </defs>
      <use xlink:href="#DejaVuSans-53"/>
      <use xlink:href="#DejaVuSans-61" x="63.476562"/>
      <use xlink:href="#DejaVuSans-6d" x="124.755859"/>
      <use xlink:href="#DejaVuSans-70" x="222.167969"/>
      <use xlink:href="#DejaVuSans-6c" x="285.644531"/>
      <use xlink:href="#DejaVuSans-65" x="313.427734"/>
      <use xlink:href="#DejaVuSans-73" x="374.951172"/>
     </g>
    </g>
    <g id="line2d_16">
     <path d="M 280.323125 69.248563 
L 290.323125 69.248563 
L 300.323125 69.248563 
" style="fill: none; stroke: #ff7f0e; stroke-width: 1.5; stroke-linecap: square"/>
    </g>
    <g id="text_16">
     <!-- Empirical: 0.1717 -->
     <g transform="translate(308.323125 72.748563) scale(0.1 -0.1)">
      <defs>
       <path id="DejaVuSans-3a" d="M 750 794 
L 1409 794 
L 1409 0 
L 750 0 
L 750 794 
z
M 750 3309 
L 1409 3309 
L 1409 2516 
L 750 2516 
L 750 3309 
z
" transform="scale(0.015625)"/>
      </defs>
      <use xlink:href="#DejaVuSans-45"/>
      <use xlink:href="#DejaVuSans-6d" x="63.183594"/>
      <use xlink:href="#DejaVuSans-70" x="160.595703"/>
      <use xlink:href="#DejaVuSans-69" x="224.072266"/>
      <use xlink:href="#DejaVuSans-72" x="251.855469"/>
      <use xlink:href="#DejaVuSans-69" x="292.96875"/>
      <use xlink:href="#DejaVuSans-63" x="320.751953"/>
      <use xlink:href="#DejaVuSans-61" x="375.732422"/>
      <use xlink:href="#DejaVuSans-6c" x="437.011719"/>
      <use xlink:href="#DejaVuSans-3a" x="464.794922"/>
      <use xlink:href="#DejaVuSans-20" x="498.486328"/>
      <use xlink:href="#DejaVuSans-30" x="530.273438"/>
      <use xlink:href="#DejaVuSans-2e" x="593.896484"/>
      <use xlink:href="#DejaVuSans-31" x="625.683594"/>
      <use xlink:href="#DejaVuSans-37" x="689.306641"/>
      <use xlink:href="#DejaVuSans-31" x="752.929688"/>
      <use xlink:href="#DejaVuSans-37" x="816.552734"/>
     </g>
    </g>
    <g id="line2d_17">
     <path d="M 280.323125 83.926688 
L 290.323125 83.926688 
L 300.323125 83.926688 
" style="fill: none; stroke: #2ca02c; stroke-width: 1.5; stroke-linecap: square"/>
    </g>
    <g id="text_17">
     <!-- Theoretical: 0.1664 -->
     <g transform="translate(308.323125 87.426688) scale(0.1 -0.1)">
      <defs>
       <path id="DejaVuSans-36" d="M 2113 2584 
Q 1688 2584 1439 2293 
Q 1191 2003 1191 1497 
Q 1191 994 1439 701 
Q 1688 409 2113 409 
Q 2538 409 2786 701 
Q 3034 994 3034 1497 
Q 3034 2003 2786 2293 
Q 2538 2584 2113 2584 
z
M 3366 4563 
L 3366 3988 
Q 3128 4100 2886 4159 
Q 2644 4219 2406 4219 
Q 1781 4219 1451 3797 
Q 1122 3375 1075 2522 
Q 1259 2794 1537 2939 
Q 1816 3084 2150 3084 
Q 2853 3084 3261 2657 
Q 3669 2231 3669 1497 
Q 3669 778 3244 343 
Q 2819 -91 2113 -91 
Q 1303 -91 875 529 
Q 447 1150 447 2328 
Q 447 3434 972 4092 
Q 1497 4750 2381 4750 
Q 2619 4750 2861 4703 
Q 3103 4656 3366 4563 
z
" transform="scale(0.015625)"/>
      </defs>
      <use xlink:href="#DejaVuSans-54"/>
      <use xlink:href="#DejaVuSans-68" x="61.083984"/>
      <use xlink:href="#DejaVuSans-65" x="124.462891"/>
      <use xlink:href="#DejaVuSans-6f" x="185.986328"/>
      <use xlink:href="#DejaVuSans-72" x="247.167969"/>
      <use xlink:href="#DejaVuSans-65" x="286.03125"/>
      <use xlink:href="#DejaVuSans-74" x="347.554688"/>
      <use xlink:href="#DejaVuSans-69" x="386.763672"/>
      <use xlink:href="#DejaVuSans-63" x="414.546875"/>
      <use xlink:href="#DejaVuSans-61" x="469.527344"/>
      <use xlink:href="#DejaVuSans-6c" x="530.806641"/>
      <use xlink:href="#DejaVuSans-3a" x="558.589844"/>
      <use xlink:href="#DejaVuSans-20" x="592.28125"/>
      <use xlink:href="#DejaVuSans-30" x="624.068359"/>
      <use xlink:href="#DejaVuSans-2e" x="687.691406"/>
      <use xlink:href="#DejaVuSans-31" x="719.478516"/>
      <use xlink:href="#DejaVuSans-36" x="783.101562"/>
      <use xlink:href="#DejaVuSans-36" x="846.724609"/>
      <use xlink:href="#DejaVuSans-34" x="910.347656"/>
     </g>
    </g>
   </g>
  </g>
 </g>
 <defs>
  <clipPath id="p5b43e02774">
   <rect x="57.6" y="41.472" width="357.12" height="266.112"/>
  </clipPath>
 </defs>
</svg>
