<?xml version="1.0" encoding="utf-8" standalone="no"?>
<!DOCTYPE svg PUBLIC "-//W3C//DTD SVG 1.1//EN"
  "http://www.w3.org/Graphics/SVG/1.1/DTD/svg11.dtd">
<svg xmlns:xlink="http://www.w3.org/1999/xlink" width="576pt" height="576pt" viewBox="0 0 576 576" xmlns="http://www.w3.org/2000/svg" version="1.1">
 <metadata>
  <rdf:RDF xmlns:dc="http://purl.org/dc/elements/1.1/" xmlns:cc="http://creativecommons.org/ns#" xmlns:rdf="http://www.w3.org/1999/02/22-rdf-syntax-ns#">
   <cc:Work>
    <dc:type rdf:resource="http://purl.org/dc/dcmitype/StillImage"/>
    <dc:date>2025-02-19T16:59:29.070552</dc:date>
    <dc:format>image/svg+xml</dc:format>
    <dc:creator>
     <cc:Agent>
      <dc:title>Matplotlib v3.8.4, https://matplotlib.org/</dc:title>
     </cc:Agent>
    </dc:creator>
   </cc:Work>
  </rdf:RDF>
 </metadata>
 <defs>
  <style type="text/css">*{stroke-linejoin: round; stroke-linecap: butt}</style>
 </defs>
 <g id="figure_1">
  <g id="patch_1">
   <path d="M 0 576 
L 576 576 
L 576 0 
L 0 0 
L 0 576 
z
" style="fill: none"/>
  </g>
  <g id="axes_1">
   <g id="patch_2">
    <path d="M 72 280.32 
L 518.4 280.32 
L 518.4 69.12 
L 72 69.12 
L 72 280.32 
z
" style="fill: none"/>
   </g>
   <g id="PathCollection_1">
    <defs>
     <path id="medec071f03" d="M 0 1.5 
C 0.397805 1.5 0.77937 1.341951 1.06066 1.06066 
C 1.341951 0.77937 1.5 0.397805 1.5 0 
C 1.5 -0.397805 1.341951 -0.77937 1.06066 -1.06066 
C 0.77937 -1.341951 0.397805 -1.5 0 -1.5 
C -0.397805 -1.5 -0.77937 -1.341951 -1.06066 -1.06066 
C -1.341951 -0.77937 -1.5 -0.397805 -1.5 0 
C -1.5 0.397805 -1.341951 0.77937 -1.06066 1.06066 
C -0.77937 1.341951 -0.397805 1.5 0 1.5 
z
" style="stroke: #000000"/>
    </defs>
    <g clip-path="url(#p896e07a313)">
     <use xlink:href="#medec071f03" x="135.771429" y="260.012308" style="stroke: #000000"/>
     <use xlink:href="#medec071f03" x="189.16884" y="227.898371" style="stroke: #000000"/>
     <use xlink:href="#medec071f03" x="295.2" y="174.72" style="stroke: #000000"/>
     <use xlink:href="#medec071f03" x="401.23116" y="227.898371" style="stroke: #000000"/>
     <use xlink:href="#medec071f03" x="454.628571" y="260.012308" style="stroke: #000000"/>
    </g>
   </g>
   <g id="matplotlib.axis_1">
    <g id="xtick_1">
     <g id="line2d_1">
      <defs>
       <path id="m5d9b8faaeb" d="M 0 0 
L 0 3.5 
" style="stroke: #000000; stroke-width: 0.8"/>
      </defs>
      <g>
       <use xlink:href="#m5d9b8faaeb" x="135.771429" y="174.72" style="stroke: #000000; stroke-width: 0.8"/>
      </g>
     </g>
     <g id="text_1">
      <!-- $T_1$ -->
      <g transform="translate(130.321429 189.318437) scale(0.1 -0.1)">
       <defs>
        <path id="DejaVuSans-Oblique-54" d="M 378 4666 
L 4325 4666 
L 4225 4134 
L 2559 4134 
L 1759 0 
L 1125 0 
L 1925 4134 
L 275 4134 
L 378 4666 
z
" transform="scale(0.015625)"/>
        <path id="DejaVuSans-31" d="M 794 531 
L 1825 531 
L 1825 4091 
L 703 3866 
L 703 4441 
L 1819 4666 
L 2450 4666 
L 2450 531 
L 3481 531 
L 3481 0 
L 794 0 
L 794 531 
z
" transform="scale(0.015625)"/>
       </defs>
       <use xlink:href="#DejaVuSans-Oblique-54" transform="translate(0 0.09375)"/>
       <use xlink:href="#DejaVuSans-31" transform="translate(61.083984 -16.3125) scale(0.7)"/>
      </g>
     </g>
    </g>
    <g id="xtick_2">
     <g id="line2d_2">
      <g>
       <use xlink:href="#m5d9b8faaeb" x="189.16884" y="174.72" style="stroke: #000000; stroke-width: 0.8"/>
      </g>
     </g>
     <g id="text_2">
      <!-- $T_{ice}$ -->
      <g transform="translate(180.91884 189.318437) scale(0.1 -0.1)">
       <defs>
        <path id="DejaVuSans-Oblique-69" d="M 1172 4863 
L 1747 4863 
L 1606 4134 
L 1031 4134 
L 1172 4863 
z
M 909 3500 
L 1484 3500 
L 800 0 
L 225 0 
L 909 3500 
z
" transform="scale(0.015625)"/>
        <path id="DejaVuSans-Oblique-63" d="M 3431 3366 
L 3316 2797 
Q 3109 2947 2876 3022 
Q 2644 3097 2394 3097 
Q 2119 3097 1870 3000 
Q 1622 2903 1453 2725 
Q 1184 2453 1037 2087 
Q 891 1722 891 1331 
Q 891 859 1127 628 
Q 1363 397 1844 397 
Q 2081 397 2348 469 
Q 2616 541 2906 684 
L 2797 116 
Q 2547 13 2283 -39 
Q 2019 -91 1741 -91 
Q 1044 -91 669 257 
Q 294 606 294 1253 
Q 294 1797 489 2255 
Q 684 2713 1069 3078 
Q 1331 3328 1684 3456 
Q 2038 3584 2456 3584 
Q 2700 3584 2940 3529 
Q 3181 3475 3431 3366 
z
" transform="scale(0.015625)"/>
        <path id="DejaVuSans-Oblique-65" d="M 3078 2063 
Q 3088 2113 3092 2166 
Q 3097 2219 3097 2272 
Q 3097 2653 2873 2875 
Q 2650 3097 2266 3097 
Q 1838 3097 1509 2826 
Q 1181 2556 1013 2059 
L 3078 2063 
z
M 3578 1613 
L 903 1613 
Q 884 1494 878 1425 
Q 872 1356 872 1306 
Q 872 872 1139 634 
Q 1406 397 1894 397 
Q 2269 397 2603 481 
Q 2938 566 3225 728 
L 3116 159 
Q 2806 34 2476 -28 
Q 2147 -91 1806 -91 
Q 1078 -91 686 257 
Q 294 606 294 1247 
Q 294 1794 489 2264 
Q 684 2734 1063 3103 
Q 1306 3334 1642 3459 
Q 1978 3584 2356 3584 
Q 2950 3584 3301 3228 
Q 3653 2872 3653 2272 
Q 3653 2128 3634 1964 
Q 3616 1800 3578 1613 
z
" transform="scale(0.015625)"/>
       </defs>
       <use xlink:href="#DejaVuSans-Oblique-54" transform="translate(0 0.09375)"/>
       <use xlink:href="#DejaVuSans-Oblique-69" transform="translate(61.083984 -16.3125) scale(0.7)"/>
       <use xlink:href="#DejaVuSans-Oblique-63" transform="translate(80.532227 -16.3125) scale(0.7)"/>
       <use xlink:href="#DejaVuSans-Oblique-65" transform="translate(119.018555 -16.3125) scale(0.7)"/>
      </g>
     </g>
    </g>
    <g id="xtick_3">
     <g id="line2d_3">
      <g>
       <use xlink:href="#m5d9b8faaeb" x="295.2" y="174.72" style="stroke: #000000; stroke-width: 0.8"/>
      </g>
     </g>
     <g id="text_3">
      <!-- $T_2$ -->
      <g transform="translate(289.75 189.318437) scale(0.1 -0.1)">
       <defs>
        <path id="DejaVuSans-32" d="M 1228 531 
L 3431 531 
L 3431 0 
L 469 0 
L 469 531 
Q 828 903 1448 1529 
Q 2069 2156 2228 2338 
Q 2531 2678 2651 2914 
Q 2772 3150 2772 3378 
Q 2772 3750 2511 3984 
Q 2250 4219 1831 4219 
Q 1534 4219 1204 4116 
Q 875 4013 500 3803 
L 500 4441 
Q 881 4594 1212 4672 
Q 1544 4750 1819 4750 
Q 2544 4750 2975 4387 
Q 3406 4025 3406 3419 
Q 3406 3131 3298 2873 
Q 3191 2616 2906 2266 
Q 2828 2175 2409 1742 
Q 1991 1309 1228 531 
z
" transform="scale(0.015625)"/>
       </defs>
       <use xlink:href="#DejaVuSans-Oblique-54" transform="translate(0 0.09375)"/>
       <use xlink:href="#DejaVuSans-32" transform="translate(61.083984 -16.3125) scale(0.7)"/>
      </g>
     </g>
    </g>
    <g id="xtick_4">
     <g id="line2d_4">
      <g>
       <use xlink:href="#m5d9b8faaeb" x="401.23116" y="174.72" style="stroke: #000000; stroke-width: 0.8"/>
      </g>
     </g>
     <g id="text_4">
      <!-- $T_{hot}$ -->
      <g transform="translate(392.28116 189.318437) scale(0.1 -0.1)">
       <defs>
        <path id="DejaVuSans-Oblique-68" d="M 3566 2113 
L 3156 0 
L 2578 0 
L 2988 2091 
Q 3016 2238 3031 2350 
Q 3047 2463 3047 2528 
Q 3047 2791 2881 2937 
Q 2716 3084 2419 3084 
Q 1956 3084 1617 2771 
Q 1278 2459 1178 1941 
L 800 0 
L 225 0 
L 1172 4863 
L 1747 4863 
L 1375 2950 
Q 1594 3244 1934 3414 
Q 2275 3584 2650 3584 
Q 3113 3584 3367 3334 
Q 3622 3084 3622 2631 
Q 3622 2519 3608 2391 
Q 3594 2263 3566 2113 
z
" transform="scale(0.015625)"/>
        <path id="DejaVuSans-Oblique-6f" d="M 1625 -91 
Q 1009 -91 651 289 
Q 294 669 294 1325 
Q 294 1706 417 2101 
Q 541 2497 738 2766 
Q 1047 3184 1428 3384 
Q 1809 3584 2291 3584 
Q 2888 3584 3255 3212 
Q 3622 2841 3622 2241 
Q 3622 1825 3500 1412 
Q 3378 1000 3181 728 
Q 2875 309 2494 109 
Q 2113 -91 1625 -91 
z
M 891 1344 
Q 891 869 1089 633 
Q 1288 397 1691 397 
Q 2269 397 2648 901 
Q 3028 1406 3028 2181 
Q 3028 2634 2825 2865 
Q 2622 3097 2228 3097 
Q 1903 3097 1650 2945 
Q 1397 2794 1197 2484 
Q 1050 2253 970 1956 
Q 891 1659 891 1344 
z
" transform="scale(0.015625)"/>
        <path id="DejaVuSans-Oblique-74" d="M 2706 3500 
L 2619 3053 
L 1472 3053 
L 1100 1153 
Q 1081 1047 1072 975 
Q 1063 903 1063 863 
Q 1063 663 1183 572 
Q 1303 481 1569 481 
L 2150 481 
L 2053 0 
L 1503 0 
Q 991 0 739 200 
Q 488 400 488 806 
Q 488 878 497 964 
Q 506 1050 525 1153 
L 897 3053 
L 409 3053 
L 500 3500 
L 978 3500 
L 1172 4494 
L 1747 4494 
L 1556 3500 
L 2706 3500 
z
" transform="scale(0.015625)"/>
       </defs>
       <use xlink:href="#DejaVuSans-Oblique-54" transform="translate(0 0.09375)"/>
       <use xlink:href="#DejaVuSans-Oblique-68" transform="translate(61.083984 -16.3125) scale(0.7)"/>
       <use xlink:href="#DejaVuSans-Oblique-6f" transform="translate(105.449219 -16.3125) scale(0.7)"/>
       <use xlink:href="#DejaVuSans-Oblique-74" transform="translate(148.276367 -16.3125) scale(0.7)"/>
      </g>
     </g>
    </g>
    <g id="xtick_5">
     <g id="line2d_5">
      <g>
       <use xlink:href="#m5d9b8faaeb" x="454.628571" y="174.72" style="stroke: #000000; stroke-width: 0.8"/>
      </g>
     </g>
     <g id="text_5">
      <!-- $T_3$ -->
      <g transform="translate(449.178571 189.318437) scale(0.1 -0.1)">
       <defs>
        <path id="DejaVuSans-33" d="M 2597 2516 
Q 3050 2419 3304 2112 
Q 3559 1806 3559 1356 
Q 3559 666 3084 287 
Q 2609 -91 1734 -91 
Q 1441 -91 1130 -33 
Q 819 25 488 141 
L 488 750 
Q 750 597 1062 519 
Q 1375 441 1716 441 
Q 2309 441 2620 675 
Q 2931 909 2931 1356 
Q 2931 1769 2642 2001 
Q 2353 2234 1838 2234 
L 1294 2234 
L 1294 2753 
L 1863 2753 
Q 2328 2753 2575 2939 
Q 2822 3125 2822 3475 
Q 2822 3834 2567 4026 
Q 2313 4219 1838 4219 
Q 1578 4219 1281 4162 
Q 984 4106 628 3988 
L 628 4550 
Q 988 4650 1302 4700 
Q 1616 4750 1894 4750 
Q 2613 4750 3031 4423 
Q 3450 4097 3450 3541 
Q 3450 3153 3228 2886 
Q 3006 2619 2597 2516 
z
" transform="scale(0.015625)"/>
       </defs>
       <use xlink:href="#DejaVuSans-Oblique-54" transform="translate(0 0.09375)"/>
       <use xlink:href="#DejaVuSans-33" transform="translate(61.083984 -16.3125) scale(0.7)"/>
      </g>
     </g>
    </g>
    <g id="text_6">
     <!-- $T$ -->
     <g transform="translate(512.2 202.996562) scale(0.1 -0.1)">
      <use xlink:href="#DejaVuSans-Oblique-54" transform="translate(0 0.09375)"/>
     </g>
    </g>
   </g>
   <g id="matplotlib.axis_2">
    <g id="ytick_1">
     <g id="line2d_6">
      <defs>
       <path id="m0090c6b434" d="M 0 0 
L -3.5 0 
" style="stroke: #000000; stroke-width: 0.8"/>
      </defs>
      <g>
       <use xlink:href="#m0090c6b434" x="72" y="276.258462" style="stroke: #000000; stroke-width: 0.8"/>
      </g>
     </g>
     <g id="text_7">
      <!-- −5 -->
      <g transform="translate(50.257812 280.05768) scale(0.1 -0.1)">
       <defs>
        <path id="DejaVuSans-2212" d="M 678 2272 
L 4684 2272 
L 4684 1741 
L 678 1741 
L 678 2272 
z
" transform="scale(0.015625)"/>
        <path id="DejaVuSans-35" d="M 691 4666 
L 3169 4666 
L 3169 4134 
L 1269 4134 
L 1269 2991 
Q 1406 3038 1543 3061 
Q 1681 3084 1819 3084 
Q 2600 3084 3056 2656 
Q 3513 2228 3513 1497 
Q 3513 744 3044 326 
Q 2575 -91 1722 -91 
Q 1428 -91 1123 -41 
Q 819 9 494 109 
L 494 744 
Q 775 591 1075 516 
Q 1375 441 1709 441 
Q 2250 441 2565 725 
Q 2881 1009 2881 1497 
Q 2881 1984 2565 2268 
Q 2250 2553 1709 2553 
Q 1456 2553 1204 2497 
Q 953 2441 691 2322 
L 691 4666 
z
" transform="scale(0.015625)"/>
       </defs>
       <use xlink:href="#DejaVuSans-2212"/>
       <use xlink:href="#DejaVuSans-35" x="83.789062"/>
      </g>
     </g>
    </g>
    <g id="ytick_2">
     <g id="line2d_7">
      <g>
       <use xlink:href="#m0090c6b434" x="72" y="174.72" style="stroke: #000000; stroke-width: 0.8"/>
      </g>
     </g>
     <g id="text_8">
      <!-- 0 -->
      <g transform="translate(58.6375 178.519219) scale(0.1 -0.1)">
       <defs>
        <path id="DejaVuSans-30" d="M 2034 4250 
Q 1547 4250 1301 3770 
Q 1056 3291 1056 2328 
Q 1056 1369 1301 889 
Q 1547 409 2034 409 
Q 2525 409 2770 889 
Q 3016 1369 3016 2328 
Q 3016 3291 2770 3770 
Q 2525 4250 2034 4250 
z
M 2034 4750 
Q 2819 4750 3233 4129 
Q 3647 3509 3647 2328 
Q 3647 1150 3233 529 
Q 2819 -91 2034 -91 
Q 1250 -91 836 529 
Q 422 1150 422 2328 
Q 422 3509 836 4129 
Q 1250 4750 2034 4750 
z
" transform="scale(0.015625)"/>
       </defs>
       <use xlink:href="#DejaVuSans-30"/>
      </g>
     </g>
    </g>
    <g id="ytick_3">
     <g id="line2d_8">
      <g>
       <use xlink:href="#m0090c6b434" x="72" y="73.181538" style="stroke: #000000; stroke-width: 0.8"/>
      </g>
     </g>
     <g id="text_9">
      <!-- 5 -->
      <g transform="translate(58.6375 76.980757) scale(0.1 -0.1)">
       <use xlink:href="#DejaVuSans-35"/>
      </g>
     </g>
    </g>
    <g id="text_10">
     <!-- $U(T)$ -->
     <g transform="translate(44.178125 185.37) rotate(-90) scale(0.1 -0.1)">
      <defs>
       <path id="DejaVuSans-Oblique-55" d="M 991 4666 
L 1625 4666 
L 1075 1831 
Q 1041 1641 1027 1517 
Q 1013 1394 1013 1300 
Q 1013 869 1253 645 
Q 1494 422 1959 422 
Q 2563 422 2898 753 
Q 3234 1084 3378 1831 
L 3928 4666 
L 4563 4666 
L 4000 1753 
Q 3816 809 3300 359 
Q 2784 -91 1888 -91 
Q 1188 -91 780 261 
Q 372 613 372 1216 
Q 372 1325 387 1461 
Q 403 1597 434 1753 
L 991 4666 
z
" transform="scale(0.015625)"/>
       <path id="DejaVuSans-28" d="M 1984 4856 
Q 1566 4138 1362 3434 
Q 1159 2731 1159 2009 
Q 1159 1288 1364 580 
Q 1569 -128 1984 -844 
L 1484 -844 
Q 1016 -109 783 600 
Q 550 1309 550 2009 
Q 550 2706 781 3412 
Q 1013 4119 1484 4856 
L 1984 4856 
z
" transform="scale(0.015625)"/>
       <path id="DejaVuSans-29" d="M 513 4856 
L 1013 4856 
Q 1481 4119 1714 3412 
Q 1947 2706 1947 2009 
Q 1947 1309 1714 600 
Q 1481 -109 1013 -844 
L 513 -844 
Q 928 -128 1133 580 
Q 1338 1288 1338 2009 
Q 1338 2731 1133 3434 
Q 928 4138 513 4856 
z
" transform="scale(0.015625)"/>
      </defs>
      <use xlink:href="#DejaVuSans-Oblique-55" transform="translate(0 0.125)"/>
      <use xlink:href="#DejaVuSans-28" transform="translate(73.193359 0.125)"/>
      <use xlink:href="#DejaVuSans-Oblique-54" transform="translate(112.207031 0.125)"/>
      <use xlink:href="#DejaVuSans-29" transform="translate(173.291016 0.125)"/>
     </g>
    </g>
   </g>
   <g id="line2d_9">
    <path d="M 71.98565 107.952641 
L 74.807818 124.812193 
L 77.582153 140.077238 
L 80.356487 154.112404 
L 83.082988 166.770092 
L 85.761656 178.167206 
L 88.392491 188.411503 
L 90.975492 197.602276 
L 93.558493 205.978967 
L 96.093661 213.450757 
L 98.580995 220.098 
L 101.020496 225.994587 
L 103.412164 231.208437 
L 105.755998 235.801954 
L 108.099833 239.911659 
L 110.395834 243.493309 
L 112.644002 246.597102 
L 114.892169 249.323274 
L 117.092504 251.645456 
L 119.292838 253.643999 
L 121.445339 255.303055 
L 123.59784 256.685531 
L 125.750341 257.806929 
L 127.902842 258.682185 
L 130.103176 259.33746 
L 132.351344 259.772229 
L 134.647345 259.986979 
L 136.991179 259.983197 
L 139.43068 259.756841 
L 141.965848 259.299237 
L 144.644516 258.589374 
L 147.514517 257.593483 
L 150.575852 256.289065 
L 153.876353 254.633335 
L 157.463855 252.57646 
L 161.38619 250.064838 
L 165.786859 246.975476 
L 170.857194 243.134352 
L 176.979864 238.204494 
L 185.542034 230.998047 
L 204.197043 215.23066 
L 211.706879 209.22248 
L 218.307882 204.221393 
L 224.382718 199.893957 
L 230.122721 196.074808 
L 235.623557 192.6794 
L 240.933059 189.660713 
L 246.099061 186.976662 
L 251.169397 184.591631 
L 256.144066 182.496373 
L 261.023068 180.680231 
L 265.854237 179.117269 
L 270.637572 177.802138 
L 275.373074 176.728984 
L 280.108577 175.884223 
L 284.796245 175.273386 
L 289.483914 174.887066 
L 294.171583 174.725408 
L 298.811418 174.786689 
L 303.451254 175.068105 
L 308.138922 175.575873 
L 312.826591 176.30803 
L 317.51426 177.264223 
L 322.249762 178.457074 
L 327.033098 179.892596 
L 331.864266 181.576389 
L 336.743269 183.513456 
L 341.717938 185.730442 
L 346.74044 188.212548 
L 351.906442 191.015449 
L 357.215944 194.152254 
L 362.71678 197.664497 
L 368.456783 201.597915 
L 374.531619 206.035538 
L 381.084788 211.102623 
L 388.546792 217.162349 
L 398.304796 225.396412 
L 414.807304 239.34324 
L 421.121306 244.357805 
L 426.239475 248.147017 
L 430.640144 251.136677 
L 434.562479 253.539729 
L 438.102147 255.455519 
L 441.354815 256.97085 
L 444.368317 258.13699 
L 447.190485 258.997364 
L 449.869153 259.585034 
L 452.40432 259.916507 
L 454.843822 260.011388 
L 457.187656 259.879078 
L 459.435824 259.531176 
L 461.636158 258.966609 
L 463.788659 258.185751 
L 465.94116 257.16457 
L 468.045827 255.919594 
L 470.150495 254.416519 
L 472.255163 252.640548 
L 474.407664 250.52596 
L 476.560165 248.092886 
L 478.712666 245.32371 
L 480.913 242.1266 
L 483.161168 238.456534 
L 485.409335 234.356512 
L 487.705336 229.701437 
L 490.049171 224.435423 
L 492.440838 218.497659 
L 494.832506 211.959111 
L 497.272007 204.637528 
L 499.759342 196.457742 
L 502.294509 187.338118 
L 504.877511 177.190028 
L 507.460512 166.130984 
L 510.091346 153.880472 
L 512.770014 140.329454 
L 515.496515 125.359775 
L 518.223017 109.13956 
L 518.41435 107.952641 
L 518.41435 107.952641 
" clip-path="url(#p896e07a313)" style="fill: none; stroke: #000000; stroke-width: 0.8; stroke-linecap: square"/>
   </g>
   <g id="LineCollection_1">
    <path d="M 135.771429 174.72 
L 135.771429 377.796923 
" clip-path="url(#p896e07a313)" style="fill: none; stroke-dasharray: 0.8,1.32; stroke-dashoffset: 0; stroke: #000000; stroke-width: 0.8"/>
    <path d="M 189.16884 174.72 
L 189.16884 377.796923 
" clip-path="url(#p896e07a313)" style="fill: none; stroke-dasharray: 0.8,1.32; stroke-dashoffset: 0; stroke: #000000; stroke-width: 0.8"/>
    <path d="M 295.2 174.72 
L 295.2 377.796923 
" clip-path="url(#p896e07a313)" style="fill: none; stroke-dasharray: 0.8,1.32; stroke-dashoffset: 0; stroke: #000000; stroke-width: 0.8"/>
    <path d="M 401.23116 174.72 
L 401.23116 377.796923 
" clip-path="url(#p896e07a313)" style="fill: none; stroke-dasharray: 0.8,1.32; stroke-dashoffset: 0; stroke: #000000; stroke-width: 0.8"/>
    <path d="M 454.628571 174.72 
L 454.628571 377.796923 
" clip-path="url(#p896e07a313)" style="fill: none; stroke-dasharray: 0.8,1.32; stroke-dashoffset: 0; stroke: #000000; stroke-width: 0.8"/>
   </g>
   <g id="line2d_10">
    <defs>
     <path id="mc574d15a1f" d="M 3 0 
L -3 -3 
L -3 3 
z
" style="stroke: #000000; stroke-linejoin: miter"/>
    </defs>
    <g>
     <use xlink:href="#mc574d15a1f" x="518.4" y="174.72" style="stroke: #000000; stroke-linejoin: miter"/>
    </g>
   </g>
   <g id="line2d_11">
    <defs>
     <path id="m5f5e32097b" d="M 0 -3 
L -3 3 
L 3 3 
z
" style="stroke: #000000; stroke-linejoin: miter"/>
    </defs>
    <g>
     <use xlink:href="#m5f5e32097b" x="72" y="69.12" style="stroke: #000000; stroke-linejoin: miter"/>
    </g>
   </g>
   <g id="line2d_12">
    <defs>
     <path id="mcb9cbf11af" d="M -0 3 
L 3 -3 
L -3 -3 
z
" style="stroke: #000000; stroke-linejoin: miter"/>
    </defs>
    <g>
     <use xlink:href="#mcb9cbf11af" x="72" y="280.32" style="stroke: #000000; stroke-linejoin: miter"/>
    </g>
   </g>
   <g id="patch_3">
    <path d="M 72 280.32 
L 72 69.12 
" style="fill: none; stroke: #000000; stroke-width: 0.8; stroke-linejoin: miter; stroke-linecap: square"/>
   </g>
   <g id="patch_4">
    <path d="M 72 174.72 
L 518.4 174.72 
" style="fill: none; stroke: #000000; stroke-width: 0.8; stroke-linejoin: miter; stroke-linecap: square"/>
   </g>
  </g>
  <g id="axes_2">
   <g id="patch_5">
    <path d="M 72 512.64 
L 518.4 512.64 
L 518.4 301.44 
L 72 301.44 
L 72 512.64 
z
" style="fill: none"/>
   </g>
   <g id="PathCollection_2">
    <g clip-path="url(#pfef362f69f)">
     <use xlink:href="#medec071f03" x="135.771429" y="407.04" style="stroke: #000000"/>
     <use xlink:href="#medec071f03" x="189.16884" y="447.111202" style="stroke: #000000"/>
     <use xlink:href="#medec071f03" x="295.2" y="407.04" style="stroke: #000000"/>
     <use xlink:href="#medec071f03" x="401.23116" y="366.968798" style="stroke: #000000"/>
     <use xlink:href="#medec071f03" x="454.628571" y="407.04" style="stroke: #000000"/>
    </g>
   </g>
   <g id="matplotlib.axis_3">
    <g id="xtick_6">
     <g id="line2d_13">
      <g>
       <use xlink:href="#m5d9b8faaeb" x="135.771429" y="407.04" style="stroke: #000000; stroke-width: 0.8"/>
      </g>
     </g>
     <g id="text_11">
      <!-- $T_1$ -->
      <g transform="translate(130.321429 421.638438) scale(0.1 -0.1)">
       <use xlink:href="#DejaVuSans-Oblique-54" transform="translate(0 0.09375)"/>
       <use xlink:href="#DejaVuSans-31" transform="translate(61.083984 -16.3125) scale(0.7)"/>
      </g>
     </g>
    </g>
    <g id="xtick_7">
     <g id="line2d_14">
      <g>
       <use xlink:href="#m5d9b8faaeb" x="189.16884" y="407.04" style="stroke: #000000; stroke-width: 0.8"/>
      </g>
     </g>
     <g id="text_12">
      <!-- $T_{ice}$ -->
      <g transform="translate(180.91884 421.638438) scale(0.1 -0.1)">
       <use xlink:href="#DejaVuSans-Oblique-54" transform="translate(0 0.09375)"/>
       <use xlink:href="#DejaVuSans-Oblique-69" transform="translate(61.083984 -16.3125) scale(0.7)"/>
       <use xlink:href="#DejaVuSans-Oblique-63" transform="translate(80.532227 -16.3125) scale(0.7)"/>
       <use xlink:href="#DejaVuSans-Oblique-65" transform="translate(119.018555 -16.3125) scale(0.7)"/>
      </g>
     </g>
    </g>
    <g id="xtick_8">
     <g id="line2d_15">
      <g>
       <use xlink:href="#m5d9b8faaeb" x="295.2" y="407.04" style="stroke: #000000; stroke-width: 0.8"/>
      </g>
     </g>
     <g id="text_13">
      <!-- $T_2$ -->
      <g transform="translate(289.75 421.638438) scale(0.1 -0.1)">
       <use xlink:href="#DejaVuSans-Oblique-54" transform="translate(0 0.09375)"/>
       <use xlink:href="#DejaVuSans-32" transform="translate(61.083984 -16.3125) scale(0.7)"/>
      </g>
     </g>
    </g>
    <g id="xtick_9">
     <g id="line2d_16">
      <g>
       <use xlink:href="#m5d9b8faaeb" x="401.23116" y="407.04" style="stroke: #000000; stroke-width: 0.8"/>
      </g>
     </g>
     <g id="text_14">
      <!-- $T_{hot}$ -->
      <g transform="translate(392.28116 421.638438) scale(0.1 -0.1)">
       <use xlink:href="#DejaVuSans-Oblique-54" transform="translate(0 0.09375)"/>
       <use xlink:href="#DejaVuSans-Oblique-68" transform="translate(61.083984 -16.3125) scale(0.7)"/>
       <use xlink:href="#DejaVuSans-Oblique-6f" transform="translate(105.449219 -16.3125) scale(0.7)"/>
       <use xlink:href="#DejaVuSans-Oblique-74" transform="translate(148.276367 -16.3125) scale(0.7)"/>
      </g>
     </g>
    </g>
    <g id="xtick_10">
     <g id="line2d_17">
      <g>
       <use xlink:href="#m5d9b8faaeb" x="454.628571" y="407.04" style="stroke: #000000; stroke-width: 0.8"/>
      </g>
     </g>
     <g id="text_15">
      <!-- $T_3$ -->
      <g transform="translate(449.178571 421.638438) scale(0.1 -0.1)">
       <use xlink:href="#DejaVuSans-Oblique-54" transform="translate(0 0.09375)"/>
       <use xlink:href="#DejaVuSans-33" transform="translate(61.083984 -16.3125) scale(0.7)"/>
      </g>
     </g>
    </g>
    <g id="text_16">
     <!-- $T$ -->
     <g transform="translate(512.2 435.316562) scale(0.1 -0.1)">
      <use xlink:href="#DejaVuSans-Oblique-54" transform="translate(0 0.09375)"/>
     </g>
    </g>
   </g>
   <g id="matplotlib.axis_4">
    <g id="ytick_4">
     <g id="line2d_18">
      <g>
       <use xlink:href="#m0090c6b434" x="72" y="459.84" style="stroke: #000000; stroke-width: 0.8"/>
      </g>
     </g>
     <g id="text_17">
      <!-- −5 -->
      <g transform="translate(50.257812 463.639219) scale(0.1 -0.1)">
       <use xlink:href="#DejaVuSans-2212"/>
       <use xlink:href="#DejaVuSans-35" x="83.789062"/>
      </g>
     </g>
    </g>
    <g id="ytick_5">
     <g id="line2d_19">
      <g>
       <use xlink:href="#m0090c6b434" x="72" y="407.04" style="stroke: #000000; stroke-width: 0.8"/>
      </g>
     </g>
     <g id="text_18">
      <!-- 0 -->
      <g transform="translate(58.6375 410.839219) scale(0.1 -0.1)">
       <use xlink:href="#DejaVuSans-30"/>
      </g>
     </g>
    </g>
    <g id="ytick_6">
     <g id="line2d_20">
      <g>
       <use xlink:href="#m0090c6b434" x="72" y="354.24" style="stroke: #000000; stroke-width: 0.8"/>
      </g>
     </g>
     <g id="text_19">
      <!-- 5 -->
      <g transform="translate(58.6375 358.039219) scale(0.1 -0.1)">
       <use xlink:href="#DejaVuSans-35"/>
      </g>
     </g>
    </g>
    <g id="text_20">
     <!-- $-U^{\prime}(T)$ -->
     <g transform="translate(44.178125 423.34) rotate(-90) scale(0.1 -0.1)">
      <defs>
       <path id="Cmsy10-30" d="M 225 347 
Q 184 359 184 409 
L 966 3316 
Q 1003 3434 1093 3506 
Q 1184 3578 1300 3578 
Q 1450 3578 1564 3479 
Q 1678 3381 1678 3231 
Q 1678 3166 1644 3084 
L 488 319 
Q 466 275 428 275 
Q 394 275 320 306 
Q 247 338 225 347 
z
" transform="scale(0.015625)"/>
      </defs>
      <use xlink:href="#DejaVuSans-2212" transform="translate(0 0.584375)"/>
      <use xlink:href="#DejaVuSans-Oblique-55" transform="translate(83.789062 0.584375)"/>
      <use xlink:href="#Cmsy10-30" transform="translate(163.999193 38.865625) scale(0.7)"/>
      <use xlink:href="#DejaVuSans-28" transform="translate(185.976732 0.584375)"/>
      <use xlink:href="#DejaVuSans-Oblique-54" transform="translate(224.990404 0.584375)"/>
      <use xlink:href="#DejaVuSans-29" transform="translate(286.074388 0.584375)"/>
     </g>
    </g>
   </g>
   <g id="line2d_21">
    <path d="M 115.848836 357.159619 
L 118.910171 366.67508 
L 121.923672 375.332976 
L 124.937174 383.322822 
L 127.902842 390.566515 
L 130.86851 397.227181 
L 133.786344 403.240641 
L 136.704179 408.74653 
L 139.57418 413.692897 
L 142.444182 418.19851 
L 145.266349 422.222133 
L 148.088517 425.864038 
L 150.910685 429.145066 
L 153.732853 432.085278 
L 156.555021 434.703974 
L 159.377189 437.019703 
L 162.199357 439.050283 
L 165.069358 440.840469 
L 167.93936 442.370673 
L 170.857194 443.676867 
L 173.822862 444.763658 
L 176.884197 445.648361 
L 180.041198 446.326595 
L 183.293867 446.795672 
L 186.642201 447.05459 
L 190.18187 447.102407 
L 193.865038 446.928277 
L 197.787373 446.516743 
L 201.948875 445.852729 
L 206.397377 444.914851 
L 211.228546 443.664654 
L 216.490215 442.069476 
L 222.325884 440.063849 
L 228.926887 437.554784 
L 236.628057 434.381416 
L 245.955561 430.287245 
L 258.248733 424.633185 
L 278.003909 415.270285 
L 338.226103 386.625837 
L 349.945275 381.350845 
L 358.794445 377.602789 
L 366.112948 374.737606 
L 372.426951 372.498489 
L 378.023454 370.744018 
L 383.093789 369.382977 
L 387.733625 368.363402 
L 392.038627 367.641545 
L 396.056629 367.18992 
L 399.835464 366.98544 
L 403.422965 367.011272 
L 406.866967 367.258528 
L 410.167468 367.719542 
L 413.32447 368.383948 
L 416.385804 369.25417 
L 419.351472 370.32587 
L 422.269307 371.616149 
L 425.139308 373.129616 
L 427.961476 374.87019 
L 430.735811 376.841065 
L 433.510145 379.085792 
L 436.28448 381.621222 
L 439.058814 384.464886 
L 441.833149 387.635016 
L 444.607484 391.150554 
L 447.381818 395.031165 
L 450.156153 399.297253 
L 452.978321 404.054233 
L 455.800489 409.255075 
L 458.622657 414.923697 
L 461.492658 421.193685 
L 464.362659 428.000026 
L 467.280494 435.498413 
L 470.246162 443.748638 
L 472.159496 449.423123 
L 472.159496 449.423123 
" clip-path="url(#pfef362f69f)" style="fill: none; stroke: #000000; stroke-width: 0.8; stroke-linecap: square"/>
   </g>
   <g id="LineCollection_2">
    <path d="M 135.771429 407.04 
L 135.771429 301.44 
" clip-path="url(#pfef362f69f)" style="fill: none; stroke-dasharray: 0.8,1.32; stroke-dashoffset: 0; stroke: #000000; stroke-width: 0.8"/>
    <path d="M 189.16884 407.04 
L 189.16884 301.44 
" clip-path="url(#pfef362f69f)" style="fill: none; stroke-dasharray: 0.8,1.32; stroke-dashoffset: 0; stroke: #000000; stroke-width: 0.8"/>
    <path d="M 295.2 407.04 
L 295.2 301.44 
" clip-path="url(#pfef362f69f)" style="fill: none; stroke-dasharray: 0.8,1.32; stroke-dashoffset: 0; stroke: #000000; stroke-width: 0.8"/>
    <path d="M 401.23116 407.04 
L 401.23116 301.44 
" clip-path="url(#pfef362f69f)" style="fill: none; stroke-dasharray: 0.8,1.32; stroke-dashoffset: 0; stroke: #000000; stroke-width: 0.8"/>
    <path d="M 454.628571 407.04 
L 454.628571 301.44 
" clip-path="url(#pfef362f69f)" style="fill: none; stroke-dasharray: 0.8,1.32; stroke-dashoffset: 0; stroke: #000000; stroke-width: 0.8"/>
   </g>
   <g id="line2d_22">
    <g>
     <use xlink:href="#m5f5e32097b" x="72" y="301.44" style="stroke: #000000; stroke-linejoin: miter"/>
    </g>
   </g>
   <g id="line2d_23">
    <g>
     <use xlink:href="#mcb9cbf11af" x="72" y="512.64" style="stroke: #000000; stroke-linejoin: miter"/>
    </g>
   </g>
   <g id="line2d_24">
    <g>
     <use xlink:href="#mc574d15a1f" x="518.4" y="407.04" style="stroke: #000000; stroke-linejoin: miter"/>
    </g>
   </g>
   <g id="patch_6">
    <path d="M 72 512.64 
L 72 301.44 
" style="fill: none; stroke: #000000; stroke-width: 0.8; stroke-linejoin: miter; stroke-linecap: square"/>
   </g>
   <g id="patch_7">
    <path d="M 72 407.04 
L 518.4 407.04 
" style="fill: none; stroke: #000000; stroke-width: 0.8; stroke-linejoin: miter; stroke-linecap: square"/>
   </g>
  </g>
 </g>
 <defs>
  <clipPath id="p896e07a313">
   <rect x="72" y="69.12" width="446.4" height="211.2"/>
  </clipPath>
  <clipPath id="pfef362f69f">
   <rect x="72" y="301.44" width="446.4" height="211.2"/>
  </clipPath>
 </defs>
</svg>
