<?xml version="1.0" encoding="utf-8" standalone="no"?>
<!DOCTYPE svg PUBLIC "-//W3C//DTD SVG 1.1//EN"
  "http://www.w3.org/Graphics/SVG/1.1/DTD/svg11.dtd">
<svg xmlns:xlink="http://www.w3.org/1999/xlink" width="1800pt" height="720pt" viewBox="0 0 1800 720" xmlns="http://www.w3.org/2000/svg" version="1.1">
 <metadata>
  <rdf:RDF xmlns:dc="http://purl.org/dc/elements/1.1/" xmlns:cc="http://creativecommons.org/ns#" xmlns:rdf="http://www.w3.org/1999/02/22-rdf-syntax-ns#">
   <cc:Work>
    <dc:type rdf:resource="http://purl.org/dc/dcmitype/StillImage"/>
    <dc:date>2025-02-22T00:13:29.508183</dc:date>
    <dc:format>image/svg+xml</dc:format>
    <dc:creator>
     <cc:Agent>
      <dc:title>Matplotlib v3.8.4, https://matplotlib.org/</dc:title>
     </cc:Agent>
    </dc:creator>
   </cc:Work>
  </rdf:RDF>
 </metadata>
 <defs>
  <style type="text/css">*{stroke-linejoin: round; stroke-linecap: butt}</style>
 </defs>
 <g id="figure_1">
  <g id="patch_1">
   <path d="M 0 720 
L 1800 720 
L 1800 0 
L 0 0 
L 0 720 
z
" style="fill: none"/>
  </g>
  <g id="axes_1">
   <g id="patch_2">
    <path d="M 10.8 709.2 
L 1789.2 709.2 
L 1789.2 10.8 
L 10.8 10.8 
L 10.8 709.2 
z
" style="fill: none"/>
   </g>
   <g id="matplotlib.axis_1"/>
   <g id="matplotlib.axis_2"/>
   <g id="line2d_1">
    <path d="M 91.636364 386.067034 
L 93.254709 356.978359 
L 94.873055 233.03146 
L 96.4914 278.988364 
L 98.109746 255.317185 
L 99.728092 412.266511 
L 101.346437 239.083203 
L 102.964783 188.202527 
L 104.583129 144.986339 
L 106.201474 221.980252 
L 107.81982 223.418796 
L 109.438165 278.880508 
L 111.056511 266.792983 
L 112.674857 188.196988 
L 114.293202 167.225184 
L 115.911548 239.385475 
L 117.529894 155.857604 
L 119.148239 118.243481 
L 120.766585 227.597886 
L 122.38493 212.483363 
L 124.003276 223.576985 
L 125.621622 193.996443 
L 127.239967 210.608744 
L 128.858313 147.836134 
L 130.476658 141.024051 
L 132.095004 89.11717 
L 133.71335 205.393942 
L 135.331695 185.860796 
L 136.950041 210.94568 
L 138.568387 158.940812 
L 140.186732 174.216126 
L 141.805078 149.574677 
L 143.423423 237.503212 
L 145.041769 207.45184 
L 146.660115 219.669009 
L 148.27846 315.501197 
L 149.896806 259.948899 
L 151.515152 260.812174 
L 153.133497 270.571908 
L 154.751843 242.769563 
L 156.370188 307.957318 
L 157.988534 319.000531 
L 159.60688 274.740336 
L 161.225225 351.239265 
L 162.843571 367.226237 
L 164.461916 364.060482 
L 166.080262 282.081804 
L 167.698608 440.220487 
L 169.316953 391.48657 
L 170.935299 427.615641 
L 172.553645 406.447115 
L 174.17199 430.298326 
L 175.790336 343.758635 
L 177.408681 470.621611 
L 179.027027 464.243766 
L 180.645373 434.236798 
L 182.263718 468.915048 
L 183.882064 440.038988 
L 185.50041 459.048929 
L 187.118755 358.417668 
L 188.737101 532.849347 
L 190.355446 529.810199 
L 191.973792 413.977898 
L 193.592138 630.899276 
L 195.210483 521.244634 
L 196.828829 391.00654 
L 198.447174 538.199414 
L 200.06552 487.633723 
L 201.683866 345.29125 
L 203.302211 464.247192 
L 204.920557 532.940751 
L 206.538903 561.785603 
L 208.157248 493.762612 
L 209.775594 573.143581 
L 211.393939 503.049176 
L 213.012285 454.479428 
L 214.630631 640.119108 
L 216.248976 486.097628 
L 217.867322 536.696851 
L 219.485667 439.685146 
L 221.104013 489.552561 
L 222.722359 438.842437 
L 224.340704 485.466105 
L 225.95905 376.42148 
L 227.577396 493.644798 
L 229.195741 346.600514 
L 230.814087 353.291764 
L 232.432432 435.216569 
L 234.050778 375.004238 
L 235.669124 364.059735 
L 237.287469 363.094736 
L 238.905815 328.318293 
L 240.524161 330.656442 
L 242.142506 451.6197 
L 243.760852 284.71517 
L 245.379197 260.009673 
L 246.997543 215.070894 
L 248.615889 236.208506 
L 250.234234 265.76764 
L 251.85258 356.25156 
L 253.470925 229.103362 
L 255.089271 174.997905 
L 256.707617 150.727097 
L 258.325962 172.122007 
L 259.944308 169.879491 
L 261.562654 228.0399 
L 263.180999 222.406157 
L 264.799345 289.755858 
L 268.036036 53.145471 
L 269.654382 197.807247 
L 271.272727 166.829837 
L 272.891073 90.317573 
L 274.509419 150.337787 
L 276.127764 132.881989 
L 277.74611 83.331573 
L 279.364455 238.617877 
L 280.982801 94.155151 
L 282.601147 132.950857 
L 284.219492 296.058107 
L 285.837838 206.614501 
L 287.456183 138.918833 
L 289.074529 202.666312 
L 290.692875 247.666232 
L 292.31122 140.8513 
L 293.929566 296.461505 
L 295.547912 193.348576 
L 297.166257 230.417881 
L 298.784603 261.85824 
L 300.402948 238.209921 
L 302.021294 194.17443 
L 303.63964 249.763595 
L 305.257985 381.460862 
L 306.876331 383.58624 
L 308.494676 269.067112 
L 310.113022 345.750218 
L 311.731368 346.559086 
L 313.349713 333.516949 
L 314.968059 358.60508 
L 316.586405 386.027568 
L 318.20475 398.026762 
L 319.823096 434.818021 
L 321.441441 452.018568 
L 323.059787 388.444219 
L 324.678133 443.121903 
L 326.296478 391.903977 
L 327.914824 491.772701 
L 329.53317 419.910302 
L 331.151515 479.323801 
L 332.769861 488.923949 
L 334.388206 529.27232 
L 336.006552 505.151156 
L 337.624898 616.659886 
L 339.243243 545.53128 
L 340.861589 536.308718 
L 342.479934 522.282985 
L 344.09828 576.936801 
L 345.716626 457.332223 
L 347.334971 525.763772 
L 348.953317 483.723736 
L 350.571663 467.689309 
L 352.190008 470.489178 
L 353.808354 538.367166 
L 355.426699 544.817163 
L 357.045045 477.05512 
L 358.663391 597.104947 
L 360.281736 468.680466 
L 361.900082 404.16573 
L 363.518428 502.036605 
L 365.136773 488.260632 
L 366.755119 495.885042 
L 368.373464 352.377333 
L 369.99181 360.44685 
L 371.610156 380.908343 
L 373.228501 369.992734 
L 374.846847 428.766163 
L 376.465192 362.991813 
L 378.083538 246.172784 
L 379.701884 397.853934 
L 381.320229 258.139063 
L 382.938575 317.875755 
L 384.556921 222.485784 
L 386.175266 324.705027 
L 387.793612 263.057627 
L 389.411957 339.300682 
L 391.030303 272.283067 
L 392.648649 249.85223 
L 394.266994 188.941947 
L 395.88534 215.99138 
L 397.503686 348.426407 
L 399.122031 168.905559 
L 400.740377 193.864163 
L 402.358722 67.691381 
L 403.977068 192.382801 
L 405.595414 268.61616 
L 407.213759 148.560107 
L 408.832105 223.044913 
L 410.45045 182.395006 
L 412.068796 176.043081 
L 413.687142 116.316411 
L 415.305487 198.771504 
L 416.923833 128.350334 
L 418.542179 129.815921 
L 420.160524 225.989342 
L 421.77887 58.677516 
L 423.397215 158.618807 
L 425.015561 249.996354 
L 426.633907 206.932934 
L 428.252252 142.674095 
L 429.870598 132.328148 
L 431.488943 279.155101 
L 433.107289 282.621555 
L 434.725635 200.196245 
L 436.34398 245.76422 
L 437.962326 256.93954 
L 439.580672 309.261796 
L 441.199017 336.624382 
L 442.817363 193.840059 
L 444.435708 274.932779 
L 446.054054 285.439169 
L 449.290745 236.343415 
L 450.909091 331.93323 
L 452.527437 314.313739 
L 454.145782 281.267538 
L 455.764128 356.09944 
L 457.382473 341.083458 
L 459.000819 341.581126 
L 460.619165 394.840101 
L 462.23751 340.405947 
L 463.855856 433.618172 
L 465.474201 423.772722 
L 467.092547 530.771245 
L 468.710893 414.259081 
L 470.329238 386.612579 
L 471.947584 400.885219 
L 473.56593 459.829672 
L 475.184275 488.784329 
L 476.802621 633.312472 
L 478.420966 572.597892 
L 480.039312 490.511726 
L 481.657658 462.111294 
L 483.276003 457.562927 
L 484.894349 511.378395 
L 486.512695 536.951325 
L 488.13104 498.274603 
L 489.749386 511.310378 
L 491.367731 558.525785 
L 492.986077 583.914195 
L 494.604423 544.053149 
L 496.222768 529.634341 
L 497.841114 474.271543 
L 499.459459 443.831507 
L 501.077805 499.957599 
L 502.696151 485.314709 
L 504.314496 490.261865 
L 505.932842 454.629089 
L 507.551188 468.157217 
L 509.169533 332.412025 
L 510.787879 468.676969 
L 512.406224 463.768982 
L 514.02457 470.008437 
L 515.642916 503.759031 
L 517.261261 352.634405 
L 518.879607 493.561475 
L 520.497952 379.733572 
L 522.116298 303.401352 
L 523.734644 465.522209 
L 525.352989 322.320958 
L 526.971335 300.361464 
L 528.589681 423.435406 
L 530.208026 266.18517 
L 531.826372 234.973024 
L 533.444717 339.480196 
L 535.063063 262.680674 
L 536.681409 347.60227 
L 538.299754 346.440532 
L 539.9181 284.392341 
L 543.154791 223.125681 
L 544.773137 183.889205 
L 546.391482 210.963242 
L 548.009828 159.73509 
L 549.628174 170.848669 
L 551.246519 184.195869 
L 552.864865 128.137353 
L 554.48321 162.575093 
L 556.101556 234.797455 
L 557.719902 138.636243 
L 559.338247 233.982897 
L 560.956593 212.934138 
L 562.574939 199.571414 
L 564.193284 156.596574 
L 565.81163 157.262657 
L 567.429975 173.34306 
L 569.048321 197.924981 
L 570.666667 238.852445 
L 572.285012 157.421046 
L 573.903358 224.195999 
L 575.521704 139.508801 
L 577.140049 100.868899 
L 578.758395 250.852615 
L 580.37674 192.652775 
L 581.995086 250.035482 
L 583.613432 226.304071 
L 585.231777 224.364326 
L 586.850123 288.059405 
L 588.468468 314.771171 
L 590.086814 284.227936 
L 591.70516 283.167111 
L 593.323505 314.51825 
L 594.941851 190.083039 
L 596.560197 366.892194 
L 598.178542 340.997199 
L 599.796888 312.565754 
L 601.415233 334.135623 
L 603.033579 423.193327 
L 604.651925 388.087428 
L 606.27027 516.454478 
L 607.888616 307.107097 
L 609.506962 393.642604 
L 611.125307 444.995512 
L 612.743653 379.827958 
L 614.361998 339.529256 
L 615.980344 367.630848 
L 617.59869 480.418106 
L 619.217035 480.508515 
L 620.835381 463.810563 
L 622.453726 526.949718 
L 624.072072 473.697506 
L 625.690418 575.376066 
L 627.308763 575.269421 
L 628.927109 520.756957 
L 630.545455 446.744144 
L 632.1638 467.214393 
L 633.782146 490.859399 
L 635.400491 501.05178 
L 637.018837 491.880028 
L 638.637183 643.839049 
L 640.255528 424.382869 
L 641.873874 527.778899 
L 643.492219 548.439549 
L 645.110565 558.916249 
L 646.728911 482.950248 
L 648.347256 421.766767 
L 649.965602 431.719047 
L 651.583948 472.347109 
L 653.202293 536.683379 
L 654.820639 480.994489 
L 656.438984 364.569854 
L 658.05733 425.118241 
L 659.675676 470.056193 
L 661.294021 345.891585 
L 662.912367 527.826987 
L 664.530713 376.032872 
L 666.149058 406.062876 
L 667.767404 328.909431 
L 669.385749 409.335807 
L 671.004095 308.862695 
L 672.622441 431.731208 
L 674.240786 408.056505 
L 675.859132 372.160616 
L 677.477477 292.69371 
L 679.095823 343.294894 
L 680.714169 335.918205 
L 682.332514 146.370593 
L 683.95086 248.930427 
L 685.569206 240.948188 
L 687.187551 235.393188 
L 688.805897 224.566815 
L 690.424242 126.036502 
L 692.042588 156.904042 
L 693.660934 221.090445 
L 695.279279 183.826189 
L 696.897625 217.546409 
L 698.515971 130.87871 
L 700.134316 155.571695 
L 701.752662 54.139773 
L 703.371007 102.057366 
L 704.989353 216.570819 
L 706.607699 74.833123 
L 708.226044 163.000964 
L 709.84439 231.965858 
L 711.462735 280.388975 
L 713.081081 132.280228 
L 714.699427 234.041289 
L 716.317772 92.834088 
L 717.936118 223.374968 
L 719.554464 258.067617 
L 721.172809 151.710346 
L 722.791155 257.276684 
L 724.4095 268.500583 
L 726.027846 186.667981 
L 727.646192 215.861974 
L 729.264537 165.597423 
L 730.882883 155.109347 
L 732.501229 262.961197 
L 734.119574 213.053109 
L 735.73792 287.861596 
L 737.356265 253.640618 
L 738.974611 241.568344 
L 740.592957 304.192994 
L 742.211302 285.883156 
L 743.829648 322.617932 
L 745.447993 385.546958 
L 747.066339 437.050781 
L 748.684685 371.028587 
L 750.30303 249.762537 
L 751.921376 371.607902 
L 753.539722 429.101254 
L 755.158067 448.383452 
L 756.776413 490.650372 
L 758.394758 418.507792 
L 760.013104 461.97988 
L 761.63145 521.777195 
L 763.249795 431.11149 
L 764.868141 525.051353 
L 766.486486 429.38576 
L 768.104832 418.831602 
L 769.723178 519.445907 
L 771.341523 465.063167 
L 772.959869 497.065889 
L 774.578215 590.789384 
L 776.19656 502.180117 
L 777.814906 515.00668 
L 779.433251 585.927187 
L 781.051597 463.89321 
L 782.669943 422.337793 
L 784.288288 438.660808 
L 785.906634 495.000022 
L 787.52498 542.872412 
L 789.143325 424.369603 
L 790.761671 478.915352 
L 792.380016 551.108199 
L 793.998362 468.248773 
L 795.616708 489.48618 
L 797.235053 452.025693 
L 798.853399 448.432466 
L 800.471744 419.714155 
L 802.09009 486.626308 
L 803.708436 494.722819 
L 805.326781 374.832875 
L 806.945127 428.434457 
L 808.563473 407.283754 
L 810.181818 348.84673 
L 811.800164 384.032955 
L 813.418509 349.956596 
L 815.036855 344.911023 
L 816.655201 408.146708 
L 818.273546 280.271758 
L 819.891892 297.190269 
L 821.510238 368.327279 
L 823.128583 303.805329 
L 824.746929 190.848569 
L 826.365274 278.064428 
L 827.98362 190.275311 
L 829.601966 283.970867 
L 831.220311 217.274038 
L 832.838657 249.774979 
L 834.457002 212.4922 
L 836.075348 305.737944 
L 837.693694 245.013322 
L 839.312039 247.236173 
L 840.930385 209.215134 
L 842.548731 275.880636 
L 844.167076 178.14835 
L 845.785422 286.082741 
L 847.403767 111.370814 
L 849.022113 108.045669 
L 850.640459 163.766486 
L 852.258804 280.862138 
L 853.87715 134.145243 
L 855.495495 166.356339 
L 857.113841 203.493625 
L 858.732187 81.606542 
L 860.350532 184.535136 
L 861.968878 38.395274 
L 863.587224 257.291053 
L 865.205569 131.491725 
L 866.823915 166.470723 
L 868.44226 270.174682 
L 870.060606 199.101071 
L 871.678952 211.660903 
L 873.297297 284.795359 
L 874.915643 253.685951 
L 876.533989 345.721109 
L 878.152334 260.671558 
L 879.77068 276.342075 
L 883.007371 293.227437 
L 884.625717 274.353373 
L 886.244062 302.551956 
L 887.862408 372.902409 
L 889.480753 299.758632 
L 891.099099 217.502437 
L 892.717445 383.07284 
L 894.33579 433.677724 
L 895.954136 467.789621 
L 897.572482 457.053832 
L 899.190827 440.967646 
L 900.809173 465.202909 
L 902.427518 553.760871 
L 904.045864 416.458781 
L 905.66421 484.254361 
L 907.282555 422.149007 
L 908.900901 442.79504 
L 910.519247 493.021021 
L 912.137592 472.692656 
L 913.755938 562.330847 
L 915.374283 511.781447 
L 916.992629 410.064835 
L 918.610975 569.575153 
L 920.22932 559.034505 
L 921.847666 506.140556 
L 923.466011 583.994062 
L 925.084357 552.212065 
L 926.702703 597.359234 
L 928.321048 571.961324 
L 929.939394 523.061862 
L 931.55774 516.408446 
L 933.176085 543.862684 
L 934.794431 540.971017 
L 936.412776 481.38596 
L 938.031122 466.650145 
L 939.649468 341.753851 
L 941.267813 556.409334 
L 942.886159 449.477997 
L 946.12285 561.104801 
L 947.741196 322.553724 
L 949.359541 438.950702 
L 950.977887 442.952915 
L 954.214578 320.688514 
L 955.832924 384.353643 
L 957.451269 472.978431 
L 959.069615 420.42235 
L 960.687961 384.792143 
L 963.924652 263.881646 
L 965.542998 310.746404 
L 967.161343 288.026668 
L 968.779689 279.755205 
L 970.398034 288.425138 
L 972.01638 88.565023 
L 973.634726 169.027578 
L 975.253071 280.057203 
L 976.871417 185.617634 
L 978.489762 223.203233 
L 980.108108 218.333003 
L 981.726454 282.399019 
L 983.344799 105.32907 
L 984.963145 269.443148 
L 986.581491 176.210147 
L 988.199836 229.268325 
L 989.818182 251.592718 
L 991.436527 180.431578 
L 993.054873 147.900985 
L 994.673219 136.6302 
L 997.90991 296.588145 
L 999.528256 162.207212 
L 1001.146601 151.163072 
L 1002.764947 251.11532 
L 1004.383292 199.725514 
L 1006.001638 174.828106 
L 1007.619984 183.669552 
L 1009.238329 153.656897 
L 1010.856675 166.904719 
L 1012.47502 256.260589 
L 1014.093366 109.84589 
L 1015.711712 108.610134 
L 1017.330057 201.775306 
L 1018.948403 241.067391 
L 1020.566749 301.605173 
L 1022.185094 252.721864 
L 1023.80344 296.933785 
L 1025.421785 253.071602 
L 1027.040131 220.730566 
L 1028.658477 280.12819 
L 1030.276822 240.104874 
L 1031.895168 255.131326 
L 1033.513514 348.636484 
L 1035.131859 359.734136 
L 1036.750205 343.337696 
L 1038.36855 305.578421 
L 1039.986896 441.59497 
L 1041.605242 416.562571 
L 1043.223587 394.240639 
L 1044.841933 341.987496 
L 1046.460278 378.121915 
L 1048.078624 374.83706 
L 1049.69697 374.21313 
L 1051.315315 466.935368 
L 1052.933661 514.032178 
L 1054.552007 513.709614 
L 1056.170352 509.241097 
L 1057.788698 491.014316 
L 1059.407043 454.586802 
L 1061.025389 411.250793 
L 1062.643735 508.746608 
L 1064.26208 426.645848 
L 1065.880426 560.198749 
L 1067.498771 404.39582 
L 1069.117117 479.633111 
L 1070.735463 488.040019 
L 1072.353808 486.621475 
L 1073.972154 554.821594 
L 1075.5905 639.622254 
L 1077.208845 517.397062 
L 1078.827191 474.127401 
L 1080.445536 436.859694 
L 1082.063882 424.991972 
L 1083.682228 537.76786 
L 1085.300573 383.88075 
L 1086.918919 442.037892 
L 1088.537265 438.973066 
L 1090.15561 504.742288 
L 1091.773956 509.08432 
L 1093.392301 379.162139 
L 1095.010647 410.577843 
L 1096.628993 470.095055 
L 1098.247338 467.756321 
L 1099.865684 360.87242 
L 1101.484029 511.146534 
L 1103.102375 324.626232 
L 1104.720721 367.521106 
L 1106.339066 218.604453 
L 1107.957412 325.689951 
L 1109.575758 269.882409 
L 1111.194103 334.062873 
L 1112.812449 404.761174 
L 1114.430794 371.622504 
L 1116.04914 222.647781 
L 1117.667486 298.020773 
L 1119.285831 187.001791 
L 1120.904177 242.461826 
L 1122.522523 213.848588 
L 1124.140868 144.235656 
L 1125.759214 182.439487 
L 1127.377559 228.281413 
L 1128.995905 207.655289 
L 1130.614251 250.248564 
L 1132.232596 178.735055 
L 1133.850942 276.874223 
L 1135.469287 188.241693 
L 1137.087633 165.766274 
L 1138.705979 139.977864 
L 1140.324324 134.873982 
L 1141.94267 94.319313 
L 1143.561016 120.175019 
L 1146.797707 213.080493 
L 1148.416052 197.704607 
L 1150.034398 231.863362 
L 1151.652744 198.664607 
L 1153.271089 274.684631 
L 1154.889435 172.922948 
L 1156.507781 148.435421 
L 1158.126126 286.867376 
L 1159.744472 211.37314 
L 1161.362817 268.086648 
L 1162.981163 136.356475 
L 1164.599509 213.819504 
L 1166.217854 306.744539 
L 1167.8362 266.379207 
L 1169.454545 272.067715 
L 1171.072891 242.847027 
L 1172.691237 254.045292 
L 1174.309582 290.733937 
L 1175.927928 356.300563 
L 1177.546274 372.852225 
L 1179.164619 416.087073 
L 1180.782965 408.694798 
L 1182.40131 349.890192 
L 1184.019656 404.253261 
L 1185.638002 472.297471 
L 1187.256347 364.197776 
L 1188.874693 434.864288 
L 1190.493038 368.917911 
L 1192.111384 430.035324 
L 1193.72973 409.077106 
L 1195.348075 333.51928 
L 1196.966421 468.43433 
L 1198.584767 482.806313 
L 1200.203112 400.187524 
L 1201.821458 457.803237 
L 1203.439803 646.749504 
L 1205.058149 510.187284 
L 1206.676495 500.996723 
L 1208.29484 537.67692 
L 1209.913186 421.086987 
L 1211.531532 487.879707 
L 1213.149877 488.915135 
L 1214.768223 489.506781 
L 1216.386568 555.933131 
L 1221.241605 458.802848 
L 1222.859951 540.706908 
L 1224.478296 430.523276 
L 1226.096642 439.7004 
L 1227.714988 471.698435 
L 1229.333333 530.590212 
L 1230.951679 506.814713 
L 1232.570025 600.969871 
L 1235.806716 361.788024 
L 1237.425061 462.090572 
L 1239.043407 436.554582 
L 1240.661753 334.387997 
L 1242.280098 377.67796 
L 1243.898444 385.409764 
L 1245.51679 456.168146 
L 1247.135135 473.305548 
L 1250.371826 344.366294 
L 1251.990172 261.307118 
L 1253.608518 308.631067 
L 1255.226863 322.33394 
L 1256.845209 308.024204 
L 1258.463554 371.650219 
L 1260.0819 304.140482 
L 1261.700246 189.39134 
L 1263.318591 282.492462 
L 1264.936937 200.644403 
L 1266.555283 183.770753 
L 1268.173628 278.901457 
L 1269.791974 141.95114 
L 1271.410319 233.586853 
L 1273.028665 210.871559 
L 1274.647011 234.270281 
L 1276.265356 287.852294 
L 1277.883702 233.913736 
L 1279.502048 137.855228 
L 1281.120393 144.019842 
L 1282.738739 157.235961 
L 1284.357084 102.995271 
L 1285.97543 135.270914 
L 1287.593776 265.036622 
L 1289.212121 103.164468 
L 1290.830467 94.073081 
L 1292.448812 130.239306 
L 1294.067158 251.122165 
L 1295.685504 152.279819 
L 1297.303849 195.658088 
L 1298.922195 198.138323 
L 1300.540541 206.315268 
L 1302.158886 252.767976 
L 1303.777232 162.761058 
L 1305.395577 230.434808 
L 1307.013923 137.26468 
L 1308.632269 217.240722 
L 1310.250614 268.485999 
L 1311.86896 253.444086 
L 1313.487305 196.755105 
L 1315.105651 307.757525 
L 1316.723997 271.442927 
L 1318.342342 269.661257 
L 1319.960688 303.86759 
L 1321.579034 289.350298 
L 1323.197379 340.578061 
L 1324.815725 239.081246 
L 1326.43407 325.399026 
L 1328.052416 393.481543 
L 1329.670762 387.124221 
L 1331.289107 374.815781 
L 1332.907453 391.054765 
L 1334.525799 346.702082 
L 1336.144144 440.546116 
L 1337.76249 420.237548 
L 1339.380835 519.561385 
L 1340.999181 504.959262 
L 1342.617527 366.008153 
L 1344.235872 477.407878 
L 1345.854218 523.211479 
L 1347.472563 490.394437 
L 1349.090909 444.744612 
L 1350.709255 486.845846 
L 1352.3276 453.068398 
L 1353.945946 505.312987 
L 1355.564292 512.409882 
L 1357.182637 521.3677 
L 1358.800983 572.280483 
L 1360.419328 513.049698 
L 1362.037674 493.425874 
L 1363.65602 497.539772 
L 1365.274365 518.329736 
L 1366.892711 477.839153 
L 1368.511057 610.919992 
L 1370.129402 495.265931 
L 1371.747748 502.640824 
L 1373.366093 378.106483 
L 1374.984439 345.40549 
L 1376.602785 498.71891 
L 1378.22113 524.920381 
L 1379.839476 413.433167 
L 1381.457821 430.459638 
L 1383.076167 407.1977 
L 1384.694513 369.647362 
L 1386.312858 488.133556 
L 1387.931204 430.387268 
L 1389.54955 360.877722 
L 1391.167895 259.509893 
L 1392.786241 296.841305 
L 1394.404586 369.48307 
L 1396.022932 461.020046 
L 1397.641278 340.581847 
L 1399.259623 325.919481 
L 1400.877969 226.51661 
L 1402.496314 381.556821 
L 1404.11466 280.788215 
L 1405.733006 344.290952 
L 1407.351351 151.090923 
L 1408.969697 296.712812 
L 1410.588043 258.121861 
L 1412.206388 248.319157 
L 1413.824734 340.706682 
L 1415.443079 223.952545 
L 1417.061425 151.637816 
L 1418.679771 234.172585 
L 1420.298116 162.960655 
L 1421.916462 188.826781 
L 1423.534808 172.705946 
L 1425.153153 143.452929 
L 1426.771499 137.699623 
L 1428.389844 184.348374 
L 1430.00819 188.546849 
L 1431.626536 176.569757 
L 1433.244881 219.863345 
L 1434.863227 254.765289 
L 1436.481572 107.258024 
L 1438.099918 199.304628 
L 1439.718264 131.037243 
L 1441.336609 162.156112 
L 1442.954955 93.004034 
L 1444.573301 124.293082 
L 1446.191646 179.388862 
L 1447.809992 261.232216 
L 1451.046683 178.919807 
L 1452.665029 133.259081 
L 1454.283374 111.735328 
L 1455.90172 222.663646 
L 1457.520066 226.172035 
L 1459.138411 292.134951 
L 1460.756757 258.553464 
L 1462.375102 242.613044 
L 1463.993448 296.763517 
L 1465.611794 285.469398 
L 1467.230139 293.865092 
L 1468.848485 317.929148 
L 1470.46683 311.011896 
L 1472.085176 364.985405 
L 1473.703522 479.049617 
L 1475.321867 385.70544 
L 1476.940213 478.221254 
L 1478.558559 409.063776 
L 1480.176904 436.591578 
L 1481.79525 475.779409 
L 1483.413595 466.124834 
L 1485.031941 318.065636 
L 1486.650287 530.447024 
L 1488.268632 420.101344 
L 1489.886978 523.3473 
L 1491.505324 536.692037 
L 1493.123669 423.801691 
L 1494.742015 562.458326 
L 1496.36036 560.378314 
L 1497.978706 498.066027 
L 1499.597052 547.212144 
L 1501.215397 553.947963 
L 1502.833743 551.722034 
L 1504.452088 538.334728 
L 1506.070434 537.069484 
L 1507.68878 535.490985 
L 1509.307125 461.741486 
L 1510.925471 483.846895 
L 1512.543817 495.100617 
L 1514.162162 473.864643 
L 1515.780508 487.240767 
L 1517.398853 457.749926 
L 1519.017199 560.347638 
L 1520.635545 503.973417 
L 1522.25389 520.332116 
L 1523.872236 500.19474 
L 1525.490581 441.380483 
L 1527.108927 567.154232 
L 1528.727273 406.618842 
L 1530.345618 374.835445 
L 1531.963964 409.644999 
L 1533.58231 498.920521 
L 1535.200655 425.175032 
L 1536.819001 412.918286 
L 1538.437346 398.566371 
L 1540.055692 421.034258 
L 1541.674038 385.077539 
L 1543.292383 324.702421 
L 1544.910729 293.398424 
L 1546.529075 258.763953 
L 1548.14742 272.880735 
L 1549.765766 343.945112 
L 1551.384111 342.392996 
L 1553.002457 380.465118 
L 1556.239148 214.664439 
L 1557.857494 192.620033 
L 1559.475839 313.741312 
L 1561.094185 282.780909 
L 1562.712531 290.195049 
L 1564.330876 149.797358 
L 1565.949222 126.871934 
L 1567.567568 144.944653 
L 1569.185913 191.670964 
L 1570.804259 200.364175 
L 1572.422604 116.090334 
L 1574.04095 180.031932 
L 1575.659296 165.471489 
L 1577.277641 108.769984 
L 1578.895987 216.237329 
L 1580.514333 173.587087 
L 1582.132678 306.781717 
L 1583.751024 181.473796 
L 1585.369369 85.942233 
L 1586.987715 198.214758 
L 1588.606061 76.141675 
L 1590.224406 212.426467 
L 1591.842752 107.492433 
L 1593.461097 178.507507 
L 1595.079443 268.852232 
L 1596.697789 251.624803 
L 1598.316134 202.49673 
L 1599.93448 269.761698 
L 1601.552826 239.935776 
L 1603.171171 185.154912 
L 1604.789517 291.26223 
L 1606.407862 195.185745 
L 1608.026208 303.334064 
L 1609.644554 327.52036 
L 1611.262899 334.908149 
L 1612.881245 324.984624 
L 1614.49959 254.941905 
L 1616.117936 494.602839 
L 1617.736282 387.342543 
L 1619.354627 311.345033 
L 1620.972973 313.106264 
L 1622.591319 406.532959 
L 1624.209664 410.39125 
L 1625.82801 361.466681 
L 1627.446355 514.300797 
L 1629.064701 461.135833 
L 1630.683047 473.698984 
L 1632.301392 429.65438 
L 1633.919738 438.930367 
L 1635.538084 496.35448 
L 1637.156429 478.702376 
L 1638.774775 524.137086 
L 1640.39312 466.413235 
L 1642.011466 563.967635 
L 1643.629812 475.154299 
L 1645.248157 429.841047 
L 1646.866503 529.030984 
L 1648.484848 582.678184 
L 1650.103194 550.25657 
L 1651.72154 501.128891 
L 1653.339885 539.628333 
L 1654.958231 517.086051 
L 1656.576577 504.811554 
L 1658.194922 516.854339 
L 1659.813268 453.29947 
L 1661.431613 549.809405 
L 1663.049959 480.140896 
L 1664.668305 537.044251 
L 1666.28665 413.073892 
L 1667.904996 458.657174 
L 1669.523342 456.67412 
L 1671.141687 484.04976 
L 1672.760033 489.476664 
L 1674.378378 468.28067 
L 1675.996724 402.114374 
L 1677.61507 509.472435 
L 1679.233415 373.080387 
L 1680.851761 380.139608 
L 1682.470106 382.766868 
L 1684.088452 354.52299 
L 1685.706798 383.588766 
L 1687.325143 321.777647 
L 1688.943489 334.210753 
L 1692.18018 286.713977 
L 1693.798526 316.85018 
L 1695.416871 231.802458 
L 1697.035217 339.517603 
L 1698.653563 288.867797 
L 1700.271908 221.00978 
L 1701.890254 301.36305 
L 1703.5086 188.68031 
L 1705.126945 224.476231 
L 1706.745291 209.831593 
L 1708.363636 182.556523 
L 1708.363636 182.556523 
" clip-path="url(#p2fcf66a67e)" style="fill: none; stroke: #000000; stroke-width: 1.5; stroke-linecap: square"/>
   </g>
  </g>
 </g>
 <defs>
  <clipPath id="p2fcf66a67e">
   <rect x="10.8" y="10.8" width="1778.4" height="698.4"/>
  </clipPath>
 </defs>
</svg>
