<?xml version="1.0" encoding="utf-8" standalone="no"?>
<!DOCTYPE svg PUBLIC "-//W3C//DTD SVG 1.1//EN"
  "http://www.w3.org/Graphics/SVG/1.1/DTD/svg11.dtd">
<svg xmlns:xlink="http://www.w3.org/1999/xlink" width="1800pt" height="720pt" viewBox="0 0 1800 720" xmlns="http://www.w3.org/2000/svg" version="1.1">
 <metadata>
  <rdf:RDF xmlns:dc="http://purl.org/dc/elements/1.1/" xmlns:cc="http://creativecommons.org/ns#" xmlns:rdf="http://www.w3.org/1999/02/22-rdf-syntax-ns#">
   <cc:Work>
    <dc:type rdf:resource="http://purl.org/dc/dcmitype/StillImage"/>
    <dc:date>2025-03-06T12:19:27.550971</dc:date>
    <dc:format>image/svg+xml</dc:format>
    <dc:creator>
     <cc:Agent>
      <dc:title>Matplotlib v3.8.4, https://matplotlib.org/</dc:title>
     </cc:Agent>
    </dc:creator>
   </cc:Work>
  </rdf:RDF>
 </metadata>
 <defs>
  <style type="text/css">*{stroke-linejoin: round; stroke-linecap: butt}</style>
 </defs>
 <g id="figure_1">
  <g id="patch_1">
   <path d="M 0 720 
L 1800 720 
L 1800 0 
L 0 0 
L 0 720 
z
" style="fill: none"/>
  </g>
  <g id="axes_1">
   <g id="patch_2">
    <path d="M 225 640.8 
L 1620 640.8 
L 1620 86.4 
L 225 86.4 
L 225 640.8 
z
" style="fill: none"/>
   </g>
   <g id="PathCollection_1">
    <defs>
     <path id="m547717fc58" d="M 0 3 
C 0.795609 3 1.55874 2.683901 2.12132 2.12132 
C 2.683901 1.55874 3 0.795609 3 0 
C 3 -0.795609 2.683901 -1.55874 2.12132 -2.12132 
C 1.55874 -2.683901 0.795609 -3 0 -3 
C -0.795609 -3 -1.55874 -2.683901 -2.12132 -2.12132 
C -2.683901 -1.55874 -3 -0.795609 -3 0 
C -3 0.795609 -2.683901 1.55874 -2.12132 2.12132 
C -1.55874 2.683901 -0.795609 3 0 3 
z
" style="stroke: #000000"/>
    </defs>
    <g clip-path="url(#pfc7dfe004e)">
     <use xlink:href="#m547717fc58" x="706.486364" y="363.6" style="stroke: #000000"/>
     <use xlink:href="#m547717fc58" x="1031.563636" y="363.6" style="stroke: #000000"/>
     <use xlink:href="#m547717fc58" x="1142.403581" y="153.154811" style="stroke: #000000"/>
    </g>
   </g>
   <g id="matplotlib.axis_1">
    <g id="xtick_1">
     <g id="line2d_1">
      <defs>
       <path id="m175aa3941e" d="M 0 0 
L 0 3.5 
" style="stroke: #000000; stroke-width: 0.8"/>
      </defs>
      <g>
       <use xlink:href="#m175aa3941e" x="288.409091" y="640.8" style="stroke: #000000; stroke-width: 0.8"/>
      </g>
     </g>
     <g id="text_1">
      <!-- 0 -->
      <g transform="translate(282.682841 661.477188) scale(0.18 -0.18)">
       <defs>
        <path id="DejaVuSans-30" d="M 2034 4250 
Q 1547 4250 1301 3770 
Q 1056 3291 1056 2328 
Q 1056 1369 1301 889 
Q 1547 409 2034 409 
Q 2525 409 2770 889 
Q 3016 1369 3016 2328 
Q 3016 3291 2770 3770 
Q 2525 4250 2034 4250 
z
M 2034 4750 
Q 2819 4750 3233 4129 
Q 3647 3509 3647 2328 
Q 3647 1150 3233 529 
Q 2819 -91 2034 -91 
Q 1250 -91 836 529 
Q 422 1150 422 2328 
Q 422 3509 836 4129 
Q 1250 4750 2034 4750 
z
" transform="scale(0.015625)"/>
       </defs>
       <use xlink:href="#DejaVuSans-30"/>
      </g>
     </g>
    </g>
    <g id="xtick_2">
     <g id="line2d_2">
      <g>
       <use xlink:href="#m175aa3941e" x="706.486364" y="640.8" style="stroke: #000000; stroke-width: 0.8"/>
      </g>
     </g>
     <g id="text_2">
      <!-- $t_1$ -->
      <g transform="translate(698.656364 661.477188) scale(0.18 -0.18)">
       <defs>
        <path id="DejaVuSans-Oblique-74" d="M 2706 3500 
L 2619 3053 
L 1472 3053 
L 1100 1153 
Q 1081 1047 1072 975 
Q 1063 903 1063 863 
Q 1063 663 1183 572 
Q 1303 481 1569 481 
L 2150 481 
L 2053 0 
L 1503 0 
Q 991 0 739 200 
Q 488 400 488 806 
Q 488 878 497 964 
Q 506 1050 525 1153 
L 897 3053 
L 409 3053 
L 500 3500 
L 978 3500 
L 1172 4494 
L 1747 4494 
L 1556 3500 
L 2706 3500 
z
" transform="scale(0.015625)"/>
        <path id="DejaVuSans-31" d="M 794 531 
L 1825 531 
L 1825 4091 
L 703 3866 
L 703 4441 
L 1819 4666 
L 2450 4666 
L 2450 531 
L 3481 531 
L 3481 0 
L 794 0 
L 794 531 
z
" transform="scale(0.015625)"/>
       </defs>
       <use xlink:href="#DejaVuSans-Oblique-74" transform="translate(0 0.78125)"/>
       <use xlink:href="#DejaVuSans-31" transform="translate(39.208984 -15.625) scale(0.7)"/>
      </g>
     </g>
    </g>
    <g id="xtick_3">
     <g id="line2d_3">
      <g>
       <use xlink:href="#m175aa3941e" x="1031.563636" y="640.8" style="stroke: #000000; stroke-width: 0.8"/>
      </g>
     </g>
     <g id="text_3">
      <!-- $t_2$ -->
      <g transform="translate(1023.733636 661.477188) scale(0.18 -0.18)">
       <defs>
        <path id="DejaVuSans-32" d="M 1228 531 
L 3431 531 
L 3431 0 
L 469 0 
L 469 531 
Q 828 903 1448 1529 
Q 2069 2156 2228 2338 
Q 2531 2678 2651 2914 
Q 2772 3150 2772 3378 
Q 2772 3750 2511 3984 
Q 2250 4219 1831 4219 
Q 1534 4219 1204 4116 
Q 875 4013 500 3803 
L 500 4441 
Q 881 4594 1212 4672 
Q 1544 4750 1819 4750 
Q 2544 4750 2975 4387 
Q 3406 4025 3406 3419 
Q 3406 3131 3298 2873 
Q 3191 2616 2906 2266 
Q 2828 2175 2409 1742 
Q 1991 1309 1228 531 
z
" transform="scale(0.015625)"/>
       </defs>
       <use xlink:href="#DejaVuSans-Oblique-74" transform="translate(0 0.78125)"/>
       <use xlink:href="#DejaVuSans-32" transform="translate(39.208984 -15.625) scale(0.7)"/>
      </g>
     </g>
    </g>
    <g id="xtick_4">
     <g id="line2d_4">
      <g>
       <use xlink:href="#m175aa3941e" x="1142.403581" y="640.8" style="stroke: #000000; stroke-width: 0.8"/>
      </g>
     </g>
     <g id="text_4">
      <!-- $t_3$ -->
      <g transform="translate(1134.573581 661.477188) scale(0.18 -0.18)">
       <defs>
        <path id="DejaVuSans-33" d="M 2597 2516 
Q 3050 2419 3304 2112 
Q 3559 1806 3559 1356 
Q 3559 666 3084 287 
Q 2609 -91 1734 -91 
Q 1441 -91 1130 -33 
Q 819 25 488 141 
L 488 750 
Q 750 597 1062 519 
Q 1375 441 1716 441 
Q 2309 441 2620 675 
Q 2931 909 2931 1356 
Q 2931 1769 2642 2001 
Q 2353 2234 1838 2234 
L 1294 2234 
L 1294 2753 
L 1863 2753 
Q 2328 2753 2575 2939 
Q 2822 3125 2822 3475 
Q 2822 3834 2567 4026 
Q 2313 4219 1838 4219 
Q 1578 4219 1281 4162 
Q 984 4106 628 3988 
L 628 4550 
Q 988 4650 1302 4700 
Q 1616 4750 1894 4750 
Q 2613 4750 3031 4423 
Q 3450 4097 3450 3541 
Q 3450 3153 3228 2886 
Q 3006 2619 2597 2516 
z
" transform="scale(0.015625)"/>
       </defs>
       <use xlink:href="#DejaVuSans-Oblique-74" transform="translate(0 0.78125)"/>
       <use xlink:href="#DejaVuSans-33" transform="translate(39.208984 -15.625) scale(0.7)"/>
      </g>
     </g>
    </g>
    <g id="xtick_5">
     <g id="line2d_5">
      <g>
       <use xlink:href="#m175aa3941e" x="1556.590909" y="640.8" style="stroke: #000000; stroke-width: 0.8"/>
      </g>
     </g>
     <g id="text_5">
      <!-- 3 -->
      <g transform="translate(1550.864659 661.477188) scale(0.18 -0.18)">
       <use xlink:href="#DejaVuSans-33"/>
      </g>
     </g>
    </g>
    <g id="text_6">
     <!-- $t$ -->
     <g transform="translate(1612 690.4175) scale(0.2 -0.2)">
      <use xlink:href="#DejaVuSans-Oblique-74" transform="translate(0 0.78125)"/>
     </g>
    </g>
   </g>
   <g id="matplotlib.axis_2">
    <g id="ytick_1">
     <g id="line2d_6">
      <defs>
       <path id="mb732ae3e75" d="M 0 0 
L -3.5 0 
" style="stroke: #000000; stroke-width: 0.8"/>
      </defs>
      <g>
       <use xlink:href="#mb732ae3e75" x="225" y="640.8" style="stroke: #000000; stroke-width: 0.8"/>
      </g>
     </g>
     <g id="text_7">
      <!-- −2 -->
      <g transform="translate(191.464063 647.638594) scale(0.18 -0.18)">
       <defs>
        <path id="DejaVuSans-2212" d="M 678 2272 
L 4684 2272 
L 4684 1741 
L 678 1741 
L 678 2272 
z
" transform="scale(0.015625)"/>
       </defs>
       <use xlink:href="#DejaVuSans-2212"/>
       <use xlink:href="#DejaVuSans-32" x="83.789062"/>
      </g>
     </g>
    </g>
    <g id="ytick_2">
     <g id="line2d_7">
      <g>
       <use xlink:href="#mb732ae3e75" x="225" y="502.2" style="stroke: #000000; stroke-width: 0.8"/>
      </g>
     </g>
     <g id="text_8">
      <!-- −1 -->
      <g transform="translate(191.464063 509.038594) scale(0.18 -0.18)">
       <use xlink:href="#DejaVuSans-2212"/>
       <use xlink:href="#DejaVuSans-31" x="83.789062"/>
      </g>
     </g>
    </g>
    <g id="ytick_3">
     <g id="line2d_8">
      <g>
       <use xlink:href="#mb732ae3e75" x="225" y="363.6" style="stroke: #000000; stroke-width: 0.8"/>
      </g>
     </g>
     <g id="text_9">
      <!-- 0 -->
      <g transform="translate(206.5475 370.438594) scale(0.18 -0.18)">
       <use xlink:href="#DejaVuSans-30"/>
      </g>
     </g>
    </g>
    <g id="ytick_4">
     <g id="line2d_9">
      <g>
       <use xlink:href="#mb732ae3e75" x="225" y="225" style="stroke: #000000; stroke-width: 0.8"/>
      </g>
     </g>
     <g id="text_10">
      <!-- 1 -->
      <g transform="translate(206.5475 231.838594) scale(0.18 -0.18)">
       <use xlink:href="#DejaVuSans-31"/>
      </g>
     </g>
    </g>
    <g id="ytick_5">
     <g id="line2d_10">
      <g>
       <use xlink:href="#mb732ae3e75" x="225" y="86.4" style="stroke: #000000; stroke-width: 0.8"/>
      </g>
     </g>
     <g id="text_11">
      <!-- 2 -->
      <g transform="translate(206.5475 93.238594) scale(0.18 -0.18)">
       <use xlink:href="#DejaVuSans-32"/>
      </g>
     </g>
    </g>
    <g id="text_12">
     <!-- $X(t)$ -->
     <g transform="translate(124.264063 82.240625) scale(0.2 -0.2)">
      <defs>
       <path id="DejaVuSans-Oblique-58" d="M 878 4666 
L 1516 4666 
L 2316 2981 
L 3763 4666 
L 4500 4666 
L 2578 2438 
L 3738 0 
L 3103 0 
L 2163 1966 
L 459 0 
L -275 0 
L 1906 2509 
L 878 4666 
z
" transform="scale(0.015625)"/>
       <path id="DejaVuSans-28" d="M 1984 4856 
Q 1566 4138 1362 3434 
Q 1159 2731 1159 2009 
Q 1159 1288 1364 580 
Q 1569 -128 1984 -844 
L 1484 -844 
Q 1016 -109 783 600 
Q 550 1309 550 2009 
Q 550 2706 781 3412 
Q 1013 4119 1484 4856 
L 1984 4856 
z
" transform="scale(0.015625)"/>
       <path id="DejaVuSans-29" d="M 513 4856 
L 1013 4856 
Q 1481 4119 1714 3412 
Q 1947 2706 1947 2009 
Q 1947 1309 1714 600 
Q 1481 -109 1013 -844 
L 513 -844 
Q 928 -128 1133 580 
Q 1338 1288 1338 2009 
Q 1338 2731 1133 3434 
Q 928 4138 513 4856 
z
" transform="scale(0.015625)"/>
      </defs>
      <use xlink:href="#DejaVuSans-Oblique-58" transform="translate(0 0.125)"/>
      <use xlink:href="#DejaVuSans-28" transform="translate(68.505859 0.125)"/>
      <use xlink:href="#DejaVuSans-Oblique-74" transform="translate(107.519531 0.125)"/>
      <use xlink:href="#DejaVuSans-29" transform="translate(146.728516 0.125)"/>
     </g>
    </g>
   </g>
   <g id="line2d_11">
    <path d="M 288.409091 502.2 
L 292.636786 532.056618 
L 296.864482 513.397383 
L 301.092177 509.252457 
L 305.319873 473.802524 
L 309.547568 479.132971 
L 313.775264 542.709541 
L 318.002959 499.436733 
L 322.230655 488.305735 
L 326.45835 510.69563 
L 330.686046 480.526949 
L 334.913741 491.274328 
L 339.141437 454.606159 
L 343.369132 447.792227 
L 347.596828 466.115565 
L 351.824523 468.125301 
L 356.052219 460.70293 
L 360.279914 413.707149 
L 364.50761 403.102745 
L 368.735305 383.571054 
L 372.963001 440.700444 
L 377.190696 430.878957 
L 381.418392 472.088995 
L 385.646087 485.463831 
L 389.873783 459.771195 
L 394.101478 434.970044 
L 398.329174 408.682404 
L 402.556869 470.741864 
L 406.784565 490.703707 
L 411.01226 454.116606 
L 415.239956 492.006077 
L 419.467651 560.51009 
L 423.695347 460.040818 
L 427.923042 424.660427 
L 432.150738 431.445633 
L 436.378433 504.441077 
L 440.606129 521.141163 
L 444.833824 468.798931 
L 449.06152 460.480312 
L 453.289215 444.763323 
L 457.516911 409.847742 
L 461.744606 393.933446 
L 465.972302 398.302104 
L 470.199997 408.442077 
L 474.427693 437.765153 
L 478.655388 469.364588 
L 482.883084 490.929448 
L 487.110779 468.441428 
L 491.338475 488.266083 
L 495.56617 506.485632 
L 499.793866 451.706881 
L 504.021561 437.63287 
L 508.249257 456.310856 
L 512.476952 459.810044 
L 516.704648 469.431198 
L 520.932343 496.325213 
L 525.160039 488.886617 
L 529.387734 440.320211 
L 533.61543 465.656949 
L 537.843125 487.257073 
L 542.070821 522.899766 
L 546.298516 496.587905 
L 550.526212 504.568293 
L 554.753907 499.588506 
L 558.981603 475.928132 
L 563.209298 456.107583 
L 567.436994 462.032186 
L 571.664689 485.021947 
L 575.892385 477.367349 
L 580.12008 469.035871 
L 584.347776 462.33919 
L 588.575471 441.253479 
L 592.803167 494.588156 
L 597.030862 511.178404 
L 601.258558 512.993022 
L 605.486253 500.623359 
L 609.713949 484.775858 
L 613.941644 405.950319 
L 618.16934 407.762188 
L 622.397035 435.733333 
L 626.624731 471.668172 
L 630.852426 493.012855 
L 635.080122 450.799489 
L 639.307817 456.790706 
L 643.535513 455.705534 
L 647.763208 484.780695 
L 651.990904 455.221537 
L 656.218599 487.554536 
L 660.446295 452.872558 
L 664.67399 444.947373 
L 668.901686 404.733246 
L 673.129381 415.2418 
L 677.357077 440.217907 
L 681.584772 454.060578 
L 685.812468 438.27576 
L 690.040163 445.51348 
L 694.267859 445.093606 
L 698.495554 465.81734 
L 702.72325 402.454812 
L 706.950945 363.700864 
L 711.178641 348.37204 
L 715.406336 340.098679 
L 719.634032 362.268238 
L 723.861727 351.447011 
L 728.089423 340.044938 
L 732.317118 385.787683 
L 736.544814 403.826895 
L 740.772509 421.1349 
L 745.000205 380.835686 
L 749.2279 352.822557 
L 753.455596 367.853799 
L 757.683291 371.825905 
L 761.910987 392.906739 
L 766.138682 418.778703 
L 770.366378 440.245452 
L 774.594073 440.822381 
L 778.821769 476.401507 
L 783.049464 450.796973 
L 787.27716 423.964319 
L 791.504855 438.974319 
L 795.732551 415.391828 
L 804.187942 473.821569 
L 808.415637 517.158555 
L 812.643333 547.402911 
L 816.871028 471.637761 
L 821.098724 532.772725 
L 825.326419 449.500178 
L 829.554115 449.97618 
L 833.78181 439.68092 
L 838.009505 443.426653 
L 842.237201 436.439962 
L 846.464896 464.449618 
L 850.692592 502.949035 
L 854.920287 530.669015 
L 859.147983 507.169767 
L 863.375678 487.691691 
L 867.603374 519.767978 
L 871.831069 503.367972 
L 876.058765 483.249472 
L 880.28646 501.478987 
L 884.514156 436.626959 
L 888.741851 475.300897 
L 892.969547 493.42745 
L 897.197242 457.620142 
L 901.424938 460.200533 
L 905.652633 411.779411 
L 909.880329 403.809832 
L 914.108024 447.524696 
L 918.33572 474.677191 
L 922.563415 447.422917 
L 926.791111 449.690488 
L 931.018806 445.979597 
L 935.246502 417.047293 
L 939.474197 437.886199 
L 943.701893 496.258724 
L 947.929588 427.929639 
L 952.157284 425.968938 
L 956.384979 382.403227 
L 960.612675 422.840546 
L 964.84037 457.457605 
L 969.068066 461.484621 
L 973.295761 495.629258 
L 977.523457 532.582244 
L 981.751152 479.169125 
L 985.978848 480.01967 
L 990.206543 534.841892 
L 994.434239 503.880269 
L 998.661934 547.982007 
L 1002.88963 454.64285 
L 1007.117325 477.060872 
L 1011.345021 502.78791 
L 1015.572716 472.755824 
L 1019.800412 486.282189 
L 1024.028107 405.784462 
L 1028.255803 382.362258 
L 1032.483498 370.077305 
L 1036.711194 338.192546 
L 1040.938889 315.198449 
L 1045.166585 316.105043 
L 1049.39428 311.262345 
L 1053.621976 286.591099 
L 1057.849671 305.409815 
L 1062.077367 271.719339 
L 1066.305062 320.685614 
L 1070.532758 335.763811 
L 1074.760453 356.787651 
L 1078.988149 330.206111 
L 1083.215844 326.02523 
L 1087.44354 291.404824 
L 1091.671235 269.386414 
L 1095.898931 265.926513 
L 1100.126626 244.286121 
L 1104.354322 239.008655 
L 1108.582017 180.283118 
L 1112.809713 185.188768 
L 1117.037408 171.701521 
L 1121.265104 180.094368 
L 1125.492799 157.416594 
L 1129.720495 217.769922 
L 1133.94819 208.106054 
L 1138.175886 181.49783 
L 1142.403581 153.154811 
L 1142.403581 153.154811 
" clip-path="url(#pfc7dfe004e)" style="fill: none; stroke: #000000; stroke-width: 0.8; stroke-linecap: square"/>
   </g>
   <g id="LineCollection_1">
    <path d="M 706.486364 640.8 
L 706.486364 363.6 
" clip-path="url(#pfc7dfe004e)" style="fill: none; stroke-dasharray: 2.96,1.28; stroke-dashoffset: 0; stroke: #000000; stroke-width: 0.8"/>
   </g>
   <g id="LineCollection_2">
    <path d="M 1031.563636 640.8 
L 1031.563636 373.302 
" clip-path="url(#pfc7dfe004e)" style="fill: none; stroke-dasharray: 2.96,1.28; stroke-dashoffset: 0; stroke: #000000; stroke-width: 0.8"/>
   </g>
   <g id="LineCollection_3">
    <path d="M 1142.403581 640.8 
L 1142.403581 153.154811 
" clip-path="url(#pfc7dfe004e)" style="fill: none; stroke-dasharray: 2.96,1.28; stroke-dashoffset: 0; stroke: #000000; stroke-width: 0.8"/>
   </g>
   <g id="LineCollection_4">
    <path d="M 288.409091 225 
L 1556.590909 225 
" clip-path="url(#pfc7dfe004e)" style="fill: none; stroke-dasharray: 2.96,1.28; stroke-dashoffset: 0; stroke: #000000; stroke-width: 0.8"/>
   </g>
   <g id="patch_3">
    <path d="M 225 640.8 
L 225 86.4 
" style="fill: none; stroke: #000000; stroke-width: 0.8; stroke-linejoin: miter; stroke-linecap: square"/>
   </g>
   <g id="patch_4">
    <path d="M 1620 640.8 
L 1620 86.4 
" style="fill: none; stroke: #000000; stroke-width: 0.8; stroke-linejoin: miter; stroke-linecap: square"/>
   </g>
   <g id="patch_5">
    <path d="M 225 640.8 
L 1620 640.8 
" style="fill: none; stroke: #000000; stroke-width: 0.8; stroke-linejoin: miter; stroke-linecap: square"/>
   </g>
   <g id="patch_6">
    <path d="M 225 86.4 
L 1620 86.4 
" style="fill: none; stroke: #000000; stroke-width: 0.8; stroke-linejoin: miter; stroke-linecap: square"/>
   </g>
  </g>
 </g>
 <defs>
  <clipPath id="pfc7dfe004e">
   <rect x="225" y="86.4" width="1395" height="554.4"/>
  </clipPath>
 </defs>
</svg>
