<?xml version="1.0" encoding="utf-8" standalone="no"?>
<!DOCTYPE svg PUBLIC "-//W3C//DTD SVG 1.1//EN"
  "http://www.w3.org/Graphics/SVG/1.1/DTD/svg11.dtd">
<svg xmlns:xlink="http://www.w3.org/1999/xlink" width="432pt" height="720pt" viewBox="0 0 432 720" xmlns="http://www.w3.org/2000/svg" version="1.1">
 <metadata>
  <rdf:RDF xmlns:dc="http://purl.org/dc/elements/1.1/" xmlns:cc="http://creativecommons.org/ns#" xmlns:rdf="http://www.w3.org/1999/02/22-rdf-syntax-ns#">
   <cc:Work>
    <dc:type rdf:resource="http://purl.org/dc/dcmitype/StillImage"/>
    <dc:date>2025-02-26T23:07:21.743865</dc:date>
    <dc:format>image/svg+xml</dc:format>
    <dc:creator>
     <cc:Agent>
      <dc:title>Matplotlib v3.8.4, https://matplotlib.org/</dc:title>
     </cc:Agent>
    </dc:creator>
   </cc:Work>
  </rdf:RDF>
 </metadata>
 <defs>
  <style type="text/css">*{stroke-linejoin: round; stroke-linecap: butt}</style>
 </defs>
 <g id="figure_1">
  <g id="patch_1">
   <path d="M 0 720 
L 432 720 
L 432 0 
L 0 0 
L 0 720 
z
" style="fill: none"/>
  </g>
  <g id="axes_1">
   <g id="patch_2">
    <path d="M 54 640.8 
L 388.8 640.8 
L 388.8 86.4 
L 54 86.4 
L 54 640.8 
z
" style="fill: none"/>
   </g>
   <g id="matplotlib.axis_1">
    <g id="xtick_1">
     <g id="line2d_1">
      <defs>
       <path id="mbff3cad201" d="M 0 0 
L 0 3.5 
" style="stroke: #000000; stroke-width: 0.8"/>
      </defs>
      <g>
       <use xlink:href="#mbff3cad201" x="187.92" y="363.6" style="stroke: #000000; stroke-width: 0.8"/>
      </g>
     </g>
     <g id="text_1">
      <!-- −1.0 -->
      <g transform="translate(175.778594 354.698437) scale(0.1 -0.1)">
       <defs>
        <path id="DejaVuSans-2212" d="M 678 2272 
L 4684 2272 
L 4684 1741 
L 678 1741 
L 678 2272 
z
" transform="scale(0.015625)"/>
        <path id="DejaVuSans-31" d="M 794 531 
L 1825 531 
L 1825 4091 
L 703 3866 
L 703 4441 
L 1819 4666 
L 2450 4666 
L 2450 531 
L 3481 531 
L 3481 0 
L 794 0 
L 794 531 
z
" transform="scale(0.015625)"/>
        <path id="DejaVuSans-2e" d="M 684 794 
L 1344 794 
L 1344 0 
L 684 0 
L 684 794 
z
" transform="scale(0.015625)"/>
        <path id="DejaVuSans-30" d="M 2034 4250 
Q 1547 4250 1301 3770 
Q 1056 3291 1056 2328 
Q 1056 1369 1301 889 
Q 1547 409 2034 409 
Q 2525 409 2770 889 
Q 3016 1369 3016 2328 
Q 3016 3291 2770 3770 
Q 2525 4250 2034 4250 
z
M 2034 4750 
Q 2819 4750 3233 4129 
Q 3647 3509 3647 2328 
Q 3647 1150 3233 529 
Q 2819 -91 2034 -91 
Q 1250 -91 836 529 
Q 422 1150 422 2328 
Q 422 3509 836 4129 
Q 1250 4750 2034 4750 
z
" transform="scale(0.015625)"/>
       </defs>
       <use xlink:href="#DejaVuSans-2212"/>
       <use xlink:href="#DejaVuSans-31" x="83.789062"/>
       <use xlink:href="#DejaVuSans-2e" x="147.412109"/>
       <use xlink:href="#DejaVuSans-30" x="179.199219"/>
      </g>
     </g>
    </g>
    <g id="xtick_2">
     <g id="line2d_2">
      <g>
       <use xlink:href="#mbff3cad201" x="254.88" y="363.6" style="stroke: #000000; stroke-width: 0.8"/>
      </g>
     </g>
     <g id="text_2">
      <!-- 1.0 -->
      <g transform="translate(246.928438 354.698437) scale(0.1 -0.1)">
       <use xlink:href="#DejaVuSans-31"/>
       <use xlink:href="#DejaVuSans-2e" x="63.623047"/>
       <use xlink:href="#DejaVuSans-30" x="95.410156"/>
      </g>
     </g>
    </g>
    <g id="xtick_3">
     <g id="line2d_3">
      <g>
       <use xlink:href="#mbff3cad201" x="328.536" y="363.6" style="stroke: #000000; stroke-width: 0.8"/>
      </g>
     </g>
     <g id="text_3">
      <!-- 3.2 -->
      <g transform="translate(320.584438 354.698437) scale(0.1 -0.1)">
       <defs>
        <path id="DejaVuSans-33" d="M 2597 2516 
Q 3050 2419 3304 2112 
Q 3559 1806 3559 1356 
Q 3559 666 3084 287 
Q 2609 -91 1734 -91 
Q 1441 -91 1130 -33 
Q 819 25 488 141 
L 488 750 
Q 750 597 1062 519 
Q 1375 441 1716 441 
Q 2309 441 2620 675 
Q 2931 909 2931 1356 
Q 2931 1769 2642 2001 
Q 2353 2234 1838 2234 
L 1294 2234 
L 1294 2753 
L 1863 2753 
Q 2328 2753 2575 2939 
Q 2822 3125 2822 3475 
Q 2822 3834 2567 4026 
Q 2313 4219 1838 4219 
Q 1578 4219 1281 4162 
Q 984 4106 628 3988 
L 628 4550 
Q 988 4650 1302 4700 
Q 1616 4750 1894 4750 
Q 2613 4750 3031 4423 
Q 3450 4097 3450 3541 
Q 3450 3153 3228 2886 
Q 3006 2619 2597 2516 
z
" transform="scale(0.015625)"/>
        <path id="DejaVuSans-32" d="M 1228 531 
L 3431 531 
L 3431 0 
L 469 0 
L 469 531 
Q 828 903 1448 1529 
Q 2069 2156 2228 2338 
Q 2531 2678 2651 2914 
Q 2772 3150 2772 3378 
Q 2772 3750 2511 3984 
Q 2250 4219 1831 4219 
Q 1534 4219 1204 4116 
Q 875 4013 500 3803 
L 500 4441 
Q 881 4594 1212 4672 
Q 1544 4750 1819 4750 
Q 2544 4750 2975 4387 
Q 3406 4025 3406 3419 
Q 3406 3131 3298 2873 
Q 3191 2616 2906 2266 
Q 2828 2175 2409 1742 
Q 1991 1309 1228 531 
z
" transform="scale(0.015625)"/>
       </defs>
       <use xlink:href="#DejaVuSans-33"/>
       <use xlink:href="#DejaVuSans-2e" x="63.623047"/>
       <use xlink:href="#DejaVuSans-32" x="95.410156"/>
      </g>
     </g>
    </g>
    <g id="text_4">
     <!-- $X(t)$ -->
     <g transform="translate(370.2 384.698437) scale(0.1 -0.1)">
      <defs>
       <path id="DejaVuSans-Oblique-58" d="M 878 4666 
L 1516 4666 
L 2316 2981 
L 3763 4666 
L 4500 4666 
L 2578 2438 
L 3738 0 
L 3103 0 
L 2163 1966 
L 459 0 
L -275 0 
L 1906 2509 
L 878 4666 
z
" transform="scale(0.015625)"/>
       <path id="DejaVuSans-28" d="M 1984 4856 
Q 1566 4138 1362 3434 
Q 1159 2731 1159 2009 
Q 1159 1288 1364 580 
Q 1569 -128 1984 -844 
L 1484 -844 
Q 1016 -109 783 600 
Q 550 1309 550 2009 
Q 550 2706 781 3412 
Q 1013 4119 1484 4856 
L 1984 4856 
z
" transform="scale(0.015625)"/>
       <path id="DejaVuSans-Oblique-74" d="M 2706 3500 
L 2619 3053 
L 1472 3053 
L 1100 1153 
Q 1081 1047 1072 975 
Q 1063 903 1063 863 
Q 1063 663 1183 572 
Q 1303 481 1569 481 
L 2150 481 
L 2053 0 
L 1503 0 
Q 991 0 739 200 
Q 488 400 488 806 
Q 488 878 497 964 
Q 506 1050 525 1153 
L 897 3053 
L 409 3053 
L 500 3500 
L 978 3500 
L 1172 4494 
L 1747 4494 
L 1556 3500 
L 2706 3500 
z
" transform="scale(0.015625)"/>
       <path id="DejaVuSans-29" d="M 513 4856 
L 1013 4856 
Q 1481 4119 1714 3412 
Q 1947 2706 1947 2009 
Q 1947 1309 1714 600 
Q 1481 -109 1013 -844 
L 513 -844 
Q 928 -128 1133 580 
Q 1338 1288 1338 2009 
Q 1338 2731 1133 3434 
Q 928 4138 513 4856 
z
" transform="scale(0.015625)"/>
      </defs>
      <use xlink:href="#DejaVuSans-Oblique-58" transform="translate(0 0.125)"/>
      <use xlink:href="#DejaVuSans-28" transform="translate(68.505859 0.125)"/>
      <use xlink:href="#DejaVuSans-Oblique-74" transform="translate(107.519531 0.125)"/>
      <use xlink:href="#DejaVuSans-29" transform="translate(146.728516 0.125)"/>
     </g>
    </g>
   </g>
   <g id="matplotlib.axis_2">
    <g id="ytick_1">
     <g id="line2d_4">
      <defs>
       <path id="mad756b4cc2" d="M 0 0 
L -3.5 0 
" style="stroke: #000000; stroke-width: 0.8"/>
      </defs>
      <g>
       <use xlink:href="#mad756b4cc2" x="221.4" y="622.32" style="stroke: #000000; stroke-width: 0.8"/>
      </g>
     </g>
     <g id="text_5">
      <!-- −14 -->
      <g transform="translate(193.295312 626.119219) scale(0.1 -0.1)">
       <defs>
        <path id="DejaVuSans-34" d="M 2419 4116 
L 825 1625 
L 2419 1625 
L 2419 4116 
z
M 2253 4666 
L 3047 4666 
L 3047 1625 
L 3713 1625 
L 3713 1100 
L 3047 1100 
L 3047 0 
L 2419 0 
L 2419 1100 
L 313 1100 
L 313 1709 
L 2253 4666 
z
" transform="scale(0.015625)"/>
       </defs>
       <use xlink:href="#DejaVuSans-2212"/>
       <use xlink:href="#DejaVuSans-31" x="83.789062"/>
       <use xlink:href="#DejaVuSans-34" x="147.412109"/>
      </g>
     </g>
    </g>
    <g id="ytick_2">
     <g id="line2d_5">
      <g>
       <use xlink:href="#mad756b4cc2" x="221.4" y="456" style="stroke: #000000; stroke-width: 0.8"/>
      </g>
     </g>
     <g id="text_6">
      <!-- −5 -->
      <g transform="translate(199.657813 459.799219) scale(0.1 -0.1)">
       <defs>
        <path id="DejaVuSans-35" d="M 691 4666 
L 3169 4666 
L 3169 4134 
L 1269 4134 
L 1269 2991 
Q 1406 3038 1543 3061 
Q 1681 3084 1819 3084 
Q 2600 3084 3056 2656 
Q 3513 2228 3513 1497 
Q 3513 744 3044 326 
Q 2575 -91 1722 -91 
Q 1428 -91 1123 -41 
Q 819 9 494 109 
L 494 744 
Q 775 591 1075 516 
Q 1375 441 1709 441 
Q 2250 441 2565 725 
Q 2881 1009 2881 1497 
Q 2881 1984 2565 2268 
Q 2250 2553 1709 2553 
Q 1456 2553 1204 2497 
Q 953 2441 691 2322 
L 691 4666 
z
" transform="scale(0.015625)"/>
       </defs>
       <use xlink:href="#DejaVuSans-2212"/>
       <use xlink:href="#DejaVuSans-35" x="83.789062"/>
      </g>
     </g>
    </g>
    <g id="ytick_3">
     <g id="line2d_6">
      <g>
       <use xlink:href="#mad756b4cc2" x="221.4" y="271.2" style="stroke: #000000; stroke-width: 0.8"/>
      </g>
     </g>
     <g id="text_7">
      <!-- 5 -->
      <g transform="translate(208.0375 274.999219) scale(0.1 -0.1)">
       <use xlink:href="#DejaVuSans-35"/>
      </g>
     </g>
    </g>
    <g id="text_8">
     <!-- $U(X(t))$ -->
     <g transform="translate(177.595312 84.320312) scale(0.1 -0.1)">
      <defs>
       <path id="DejaVuSans-Oblique-55" d="M 991 4666 
L 1625 4666 
L 1075 1831 
Q 1041 1641 1027 1517 
Q 1013 1394 1013 1300 
Q 1013 869 1253 645 
Q 1494 422 1959 422 
Q 2563 422 2898 753 
Q 3234 1084 3378 1831 
L 3928 4666 
L 4563 4666 
L 4000 1753 
Q 3816 809 3300 359 
Q 2784 -91 1888 -91 
Q 1188 -91 780 261 
Q 372 613 372 1216 
Q 372 1325 387 1461 
Q 403 1597 434 1753 
L 991 4666 
z
" transform="scale(0.015625)"/>
      </defs>
      <use xlink:href="#DejaVuSans-Oblique-55" transform="translate(0 0.125)"/>
      <use xlink:href="#DejaVuSans-28" transform="translate(73.193359 0.125)"/>
      <use xlink:href="#DejaVuSans-Oblique-58" transform="translate(112.207031 0.125)"/>
      <use xlink:href="#DejaVuSans-28" transform="translate(180.712891 0.125)"/>
      <use xlink:href="#DejaVuSans-Oblique-74" transform="translate(219.726562 0.125)"/>
      <use xlink:href="#DejaVuSans-29" transform="translate(258.935547 0.125)"/>
      <use xlink:href="#DejaVuSans-29" transform="translate(297.949219 0.125)"/>
     </g>
    </g>
   </g>
   <g id="line2d_7">
    <path d="M 141.330718 -1 
L 142.463006 86.083227 
L 143.567957 154.427928 
L 144.639424 207.403798 
L 145.677408 248.174481 
L 146.681908 279.302184 
L 147.652925 302.854622 
L 148.590459 320.49398 
L 149.494509 333.550777 
L 150.365077 343.08506 
L 151.20216 349.937002 
L 152.005761 354.768621 
L 152.775878 358.098124 
L 153.512511 360.328074 
L 154.215662 361.768462 
L 154.885329 362.655522 
L 155.554995 363.186777 
L 156.291629 363.481019 
L 157.229163 363.594144 
L 159.606481 363.774318 
L 160.477048 364.133715 
L 161.280648 364.711443 
L 162.084248 365.565125 
L 162.954815 366.831394 
L 163.892349 368.61271 
L 164.930333 371.097267 
L 166.068767 374.426652 
L 167.374617 378.971419 
L 168.881368 385.05776 
L 170.756436 393.616115 
L 173.636004 407.959907 
L 177.419622 426.609874 
L 179.39514 435.244487 
L 181.035824 441.46329 
L 182.442124 445.962582 
L 183.681008 449.21839 
L 184.785959 451.525854 
L 185.756976 453.07182 
L 186.627543 454.067009 
L 187.39766 454.636887 
L 188.10081 454.902693 
L 188.770477 454.93131 
L 189.440144 454.743212 
L 190.143294 454.316083 
L 190.913411 453.58416 
L 191.783978 452.434083 
L 192.754995 450.763636 
L 193.859946 448.393061 
L 195.09883 445.185454 
L 196.538614 440.804158 
L 198.212781 434.957648 
L 200.255266 426.975284 
L 203.2018 414.462901 
L 208.324752 392.684421 
L 210.534653 384.313583 
L 212.376238 378.176476 
L 213.949955 373.667643 
L 215.356256 370.284201 
L 216.59514 367.847954 
L 217.733573 366.081351 
L 218.738074 364.90974 
L 219.642124 364.171218 
L 220.479208 363.756589 
L 221.282808 363.602532 
L 222.052925 363.678408 
L 222.856526 363.988873 
L 223.693609 364.560077 
L 224.59766 365.455395 
L 225.60216 366.779897 
L 226.707111 368.622337 
L 227.945995 371.142988 
L 229.318812 374.457305 
L 230.892529 378.863168 
L 232.70063 384.611337 
L 234.910531 392.418673 
L 238.024482 404.325711 
L 243.616202 425.766398 
L 245.926553 433.689672 
L 247.835104 439.482393 
L 249.475788 443.793505 
L 250.949055 447.066669 
L 252.254905 449.453746 
L 253.426823 451.161133 
L 254.49829 452.34887 
L 255.469307 453.110189 
L 256.373357 453.5463 
L 257.210441 453.714509 
L 258.047525 453.656509 
L 258.884608 453.373896 
L 259.755176 452.844787 
L 260.692709 452.012097 
L 261.730693 450.781349 
L 262.869127 449.07359 
L 264.141494 446.747429 
L 265.581278 443.627227 
L 267.221962 439.51481 
L 269.163996 434.017789 
L 271.708731 426.096513 
L 278.30495 405.237139 
L 280.213501 400.115826 
L 281.753735 396.583168 
L 283.059586 394.10343 
L 284.19802 392.384209 
L 285.20252 391.245409 
L 286.073087 390.567409 
L 286.876688 390.211344 
L 287.613321 390.123125 
L 288.316472 390.259603 
L 289.053105 390.641368 
L 289.823222 391.309347 
L 290.660306 392.355379 
L 291.564356 393.868239 
L 292.535374 395.945128 
L 293.606841 398.788337 
L 294.778758 402.566534 
L 296.051125 407.459889 
L 297.423942 413.654132 
L 298.930693 421.518468 
L 300.571377 431.29417 
L 302.412961 443.663268 
L 304.488929 459.173207 
L 306.966697 479.444618 
L 310.415482 509.684628 
L 315.973717 558.404235 
L 318.317552 576.901516 
L 320.192619 590.044199 
L 321.79982 599.817949 
L 323.206121 607.048261 
L 324.411521 612.14942 
L 325.482988 615.763615 
L 326.387039 618.099195 
L 327.190639 619.602639 
L 327.860306 620.430717 
L 328.429523 620.823888 
L 328.931773 620.929693 
L 329.434023 620.806513 
L 329.936274 620.451953 
L 330.505491 619.767934 
L 331.141674 618.646099 
L 331.878308 616.873528 
L 332.715392 614.241288 
L 333.652925 610.515495 
L 334.690909 605.442693 
L 335.862826 598.54454 
L 337.168677 589.449995 
L 338.608461 577.804792 
L 340.249145 562.658067 
L 342.157696 542.89309 
L 344.568497 515.467458 
L 352.537534 422.817376 
L 354.312151 405.770362 
L 355.818902 393.311496 
L 357.158236 384.017734 
L 358.330153 377.361578 
L 359.40162 372.511897 
L 360.339154 369.225336 
L 361.209721 366.938137 
L 362.013321 365.431742 
L 362.749955 364.505952 
L 363.453105 363.96784 
L 364.189739 363.688861 
L 365.093789 363.601137 
L 366.60054 363.481861 
L 367.236724 363.175519 
L 367.772457 362.671155 
L 368.308191 361.854756 
L 368.877408 360.544532 
L 369.480108 358.530353 
L 370.116292 355.536336 
L 370.785959 351.204425 
L 371.489109 345.07442 
L 372.225743 336.559715 
L 372.99586 324.917927 
L 373.79946 309.215395 
L 374.636544 288.284395 
L 375.507111 260.671652 
L 376.411161 224.576529 
L 377.348695 177.776947 
L 378.319712 117.540781 
L 379.324212 40.520042 
L 379.790651 -1 
L 379.790651 -1 
" clip-path="url(#p80025c25fa)" style="fill: none; stroke: #000000; stroke-width: 0.8; stroke-linecap: square"/>
   </g>
   <g id="line2d_8">
    <defs>
     <path id="m1a4ecaebca" d="M 0 -3 
L -3 3 
L 3 3 
z
" style="stroke: #000000; stroke-linejoin: miter"/>
    </defs>
    <g>
     <use xlink:href="#m1a4ecaebca" x="221.4" y="86.4" style="stroke: #000000; stroke-linejoin: miter"/>
    </g>
   </g>
   <g id="line2d_9">
    <defs>
     <path id="m52c187dbda" d="M -0 3 
L 3 -3 
L -3 -3 
z
" style="stroke: #000000; stroke-linejoin: miter"/>
    </defs>
    <g>
     <use xlink:href="#m52c187dbda" x="221.4" y="640.8" style="stroke: #000000; stroke-linejoin: miter"/>
    </g>
   </g>
   <g id="line2d_10">
    <defs>
     <path id="m171cc7e90c" d="M 3 0 
L -3 -3 
L -3 3 
z
" style="stroke: #000000; stroke-linejoin: miter"/>
    </defs>
    <g>
     <use xlink:href="#m171cc7e90c" x="388.8" y="363.6" style="stroke: #000000; stroke-linejoin: miter"/>
    </g>
   </g>
   <g id="line2d_11">
    <defs>
     <path id="mc71e439fa9" d="M -3 -0 
L 3 3 
L 3 -3 
z
" style="stroke: #000000; stroke-linejoin: miter"/>
    </defs>
    <g>
     <use xlink:href="#mc71e439fa9" x="54" y="363.6" style="stroke: #000000; stroke-linejoin: miter"/>
    </g>
   </g>
   <g id="patch_3">
    <path d="M 221.4 640.8 
L 221.4 86.4 
" style="fill: none; stroke: #000000; stroke-width: 0.8; stroke-linejoin: miter; stroke-linecap: square"/>
   </g>
   <g id="patch_4">
    <path d="M 54 363.6 
L 388.8 363.6 
" style="fill: none; stroke: #000000; stroke-width: 0.8; stroke-linejoin: miter; stroke-linecap: square"/>
   </g>
  </g>
 </g>
 <defs>
  <clipPath id="p80025c25fa">
   <rect x="54" y="86.4" width="334.8" height="554.4"/>
  </clipPath>
 </defs>
</svg>
